OutlineCutoutDetail-Bold.ufo
<glyph name="exclamation" format="2">
  <advance width="388.2564697265625"/>
  <unicode hex="0021"/>
  <outline>
    <contour>
      <point x="268.8191452026367" y="252.0935516357422" type="line"/>
      <point x="303.1314697265625" y="865" type="line"/>
      <point x="85.125" y="865" type="line"/>
      <point x="119.43732452392578" y="252.0935516357422" type="line"/>
    </contour>
    <contour>
      <point x="301.5917765299479" y="92.46354166666666" type="curve" smooth="yes"/>
      <point x="301.5917765299479" y="151.77428441489582"/>
      <point x="253.4389776115104" y="199.92708333333331"/>
      <point x="194.12823486328125" y="199.92708333333331" type="curve" smooth="yes"/>
      <point x="134.8174921150521" y="199.92708333333331"/>
      <point x="86.66469319661459" y="151.77428441489582"/>
      <point x="86.66469319661459" y="92.46354166666666" type="curve" smooth="yes"/>
      <point x="86.66469319661458" y="33.152798918437504"/>
      <point x="134.81749211505206" y="-14.999999999999986"/>
      <point x="194.12823486328125" y="-15.0" type="curve" smooth="yes"/>
      <point x="253.43897761151038" y="-15.000000000000014"/>
      <point x="301.5917765299479" y="33.15279891843747"/>
    </contour>
  </outline>
</glyph>
<glyph name="quote_dbl" format="2">
  <advance width="550.6032409667969"/>
  <unicode hex="0022"/>
  <outline>
    <contour>
      <point x="225.02496337890625" y="536.40625" type="line"/>
      <point x="243.2525177001953" y="850" type="line"/>
      <point x="78.125" y="850" type="line"/>
      <point x="96.35255432128906" y="536.40625" type="line"/>
    </contour>
    <contour>
      <point x="456.25069427490234" y="536.40625" type="line"/>
      <point x="474.4782409667969" y="850" type="line"/>
      <point x="309.3507308959961" y="850" type="line"/>
      <point x="327.5782775878906" y="536.40625" type="line"/>
    </contour>
  </outline>
</glyph>
<glyph name="numbersign" format="2">
  <advance width="755.452392578125"/>
  <unicode hex="0023"/>
  <outline>
    <contour>
      <point x="559.980598449707" y="169.6553497314453" type="line"/>
      <point x="670.9553604125977" y="169.6553497314453" type="line"/>
      <point x="670.9553604125977" y="337.9578170776367" type="line"/>
      <point x="589.6568603515625" y="337.9578170776367" type="line"/>
      <point x="620.3526306152344" y="512.0421829223633" type="line"/>
      <point x="731.327392578125" y="512.0421829223633" type="line"/>
      <point x="731.327392578125" y="680.3446502685547" type="line"/>
      <point x="650.0288925170898" y="680.3446502685547" type="line"/>
      <point x="679.9437103271484" y="850" type="line"/>
      <point x="500.05023193359375" y="850" type="line"/>
      <point x="470.13541412353516" y="680.3446502685547" type="line"/>
      <point x="375.3652801513672" y="680.3446502685547" type="line"/>
      <point x="405.2800979614258" y="850" type="line"/>
      <point x="225.38661193847656" y="850" type="line"/>
      <point x="195.47179412841797" y="680.3446502685547" type="line"/>
      <point x="84.49703216552734" y="680.3446502685547" type="line"/>
      <point x="84.49703216552734" y="512.0421829223633" type="line"/>
      <point x="165.7955322265625" y="512.0421829223633" type="line"/>
      <point x="135.09976196289062" y="337.9578170776367" type="line"/>
      <point x="24.125" y="337.9578170776367" type="line"/>
      <point x="24.125" y="169.6553497314453" type="line"/>
      <point x="105.42350006103516" y="169.6553497314453" type="line"/>
      <point x="75.50868225097656" y="0" type="line"/>
      <point x="255.40216064453125" y="0" type="line"/>
      <point x="285.31697845458984" y="169.6553497314453" type="line"/>
      <point x="380.0871124267578" y="169.6553497314453" type="line"/>
      <point x="350.1722946166992" y="0" type="line"/>
      <point x="530.0657806396484" y="0" type="line"/>
    </contour>
    <contour>
      <point x="314.9932403564453" y="337.9578170776367" type="line"/>
      <point x="345.6890182495117" y="512.0421829223633" type="line"/>
      <point x="440.4591522216797" y="512.0421829223633" type="line"/>
      <point x="409.7633743286133" y="337.9578170776367" type="line"/>
    </contour>
  </outline>
</glyph>
<glyph name="dollar" format="2">
  <advance width="583.6815476190476"/>
  <unicode hex="0024"/>
  <outline>
    <contour>
      <point x="194.6532745361328" y="-100" type="line"/>
      <point x="374.0282745361328" y="-100" type="line"/>
      <point x="374.0282745361328" y="30.475875854492188" type="line"/>
      <point x="483.1637211154941" y="64.12941871701808"/>
      <point x="560.5565476190476" y="150.0109075707049"/>
      <point x="560.5565476190476" y="260.8104166666667" type="curve"/>
      <point x="560.5565476190476" y="410.3045054635394"/>
      <point x="440.1103434057059" y="466.333755033626"/>
      <point x="358.746234437571" y="500.11720715135465" type="curve"/>
      <point x="267.92335624204276" y="537.8280651159467" type="line"/>
      <point x="227.23642204160456" y="554.7218172974644"/>
      <point x="200.015625" y="567.504869744461"/>
      <point x="200.015625" y="599.5777083333334" type="curve"/>
      <point x="200.015625" y="635.5724494255965"/>
      <point x="234.3006246021285" y="664.07"/>
      <point x="314.65744047619046" y="664.07" type="curve"/>
      <point x="396.1431526324043" y="664.0699998564346"/>
      <point x="469.3862358762368" y="637.1796862881304"/>
      <point x="520.2648773193359" y="594.3810653686523" type="curve"/>
      <point x="520.2648773193359" y="779.0538864135742" type="line"/>
      <point x="481.49161500900243" y="806.4024207901477"/>
      <point x="430.9985094869137" y="823.0150883131358"/>
      <point x="374.02827453613276" y="830.4203720092775" type="curve"/>
      <point x="374.0282745361328" y="950" type="line"/>
      <point x="194.6532745361328" y="950" type="line"/>
      <point x="194.6532745361328" y="817.2664260864258" type="line"/>
      <point x="95.12891622902248" y="782.0552932631947"/>
      <point x="25.12500000000003" y="697.7049691181112"/>
      <point x="25.125" y="594.7229166666667" type="curve"/>
      <point x="25.125000000000043" y="448.35268443590877"/>
      <point x="143.12440157764615" y="394.77141286340077"/>
      <point x="223.92289203180553" y="361.39037844596066" type="curve"/>
      <point x="314.04513587627775" y="324.1573347759674" type="line"/>
      <point x="347.4436649660808" y="310.35908875958785"/>
      <point x="385.6659226190477" y="296.27320302944185"/>
      <point x="385.6659226190476" y="256.48479166666664" type="curve"/>
      <point x="385.6659226190476" y="217.81079877455878"/>
      <point x="349.5548539437723" y="186.56499999999997"/>
      <point x="254.02410714285713" y="186.56499999999997" type="curve"/>
      <point x="159.8116173013698" y="186.56500097097904"/>
      <point x="76.49498599754838" y="221.2284636211162"/>
      <point x="25.125000000000014" y="274.44834899902344" type="curve"/>
      <point x="25.125000000000014" y="83.06795501708984" type="line"/>
      <point x="67.70684580020634" y="47.95533464573135"/>
      <point x="126.88638151909396" y="27.531931855526537"/>
      <point x="194.6532745361328" y="19.289489746093743" type="curve"/>
    </contour>
  </outline>
</glyph>
<glyph name="ampersand" format="2">
  <advance width="816.8440251668294"/>
  <unicode hex="0026"/>
  <outline>
    <contour>
      <point x="582.119324239095" y="-3.814697265625e-06" type="line"/>
      <point x="810.7190251668294" y="0" type="line"/>
      <point x="607.7321324666341" y="252.23931884765625" type="line"/>
      <point x="742.3982549031575" y="516.5364608764648" type="line"/>
      <point x="551.1468510945638" y="516.5364608764648" type="line"/>
      <point x="490.6267171223958" y="397.7590103149414" type="line"/>
      <point x="342.5651074991442" y="581.7645245735947" type="line"/>
      <point x="330.55293007885075" y="596.6928161760667"/>
      <point x="318.20651041666656" y="612.0046573553169"/>
      <point x="318.20651041666656" y="634.640625" type="curve"/>
      <point x="318.20651041666656" y="667.767830983045"/>
      <point x="345.18832565689434" y="694.59375"/>
      <point x="378.44088541666656" y="694.59375" type="curve"/>
      <point x="413.1771596248215" y="694.59375"/>
      <point x="440.8888020833333" y="665.7223983159093"/>
      <point x="440.8888020833333" y="630.15625" type="curve"/>
      <point x="611.2950520833333" y="630.15625" type="line"/>
      <point x="611.2950520833333" y="759.770042978125"/>
      <point x="506.06509506145824" y="865.0"/>
      <point x="376.45130208333325" y="865.0" type="curve" smooth="yes"/>
      <point x="246.8375091052082" y="865.0"/>
      <point x="141.60755208333325" y="759.770042978125"/>
      <point x="141.60755208333325" y="630.15625" type="curve"/>
      <point x="141.60755208333325" y="578.7821864551638"/>
      <point x="158.4517000693346" y="528.8884958952401"/>
      <point x="189.4606175740559" y="488.0949478149414" type="curve"/>
      <point x="97.537586304292" y="445.56575171834453"/>
      <point x="34.12499999999994" y="355.40710830664005"/>
      <point x="34.125" y="249.63020833333343" type="curve" smooth="yes"/>
      <point x="34.12499999999994" y="102.13051166157683"/>
      <point x="157.42868359959" y="-14.999999999999982"/>
      <point x="309.40130208333323" y="-15.0" type="curve"/>
      <point x="390.2770765424463" y="-15.0"/>
      <point x="465.5455238847461" y="21.868075328986194"/>
      <point x="515.1492085774739" y="83.21963500976562" type="curve"/>
    </contour>
    <contour>
      <point x="312.3908854166666" y="157.64843749999994" type="curve"/>
      <point x="256.5524444921465" y="157.64843749999994"/>
      <point x="211.25781249999994" y="201.39616000013126"/>
      <point x="211.25781249999994" y="256.6348958333333" type="curve" smooth="yes"/>
      <point x="211.25781249999994" y="306.66157945595387"/>
      <point x="248.40814461170737" y="347.2634164058461"/>
      <point x="296.8957677205403" y="354.4297561645508" type="curve"/>
      <point x="402.0012212117512" y="223.8216781616211" type="line"/>
      <point x="399.7299624542554" y="219.36731135403792" type="line"/>
      <point x="389.06298912597657" y="198.44736474995793"/>
      <point x="367.3313645355462" y="157.64843749999994"/>
    </contour>
  </outline>
</glyph>
<glyph name="quote" format="2">
  <advance width="319.3775177001953"/>
  <unicode hex="0027"/>
  <outline>
    <contour>
      <point x="225.02496337890625" y="536.40625" type="line"/>
      <point x="243.2525177001953" y="850" type="line"/>
      <point x="78.125" y="850" type="line"/>
      <point x="96.35255432128906" y="536.40625" type="line"/>
    </contour>
  </outline>
</glyph>
<glyph name="parenleft" format="2">
  <advance width="440.2996139526367"/>
  <unicode hex="0028"/>
  <outline>
    <contour>
      <point x="233.4999999999999" y="425.00000000000006" type="curve" smooth="yes"/>
      <point x="233.5" y="631.7098944529365"/>
      <point x="305.23010170266525" y="821.4346695781272"/>
      <point x="425.1746139526367" y="969.84375" type="curve"/>
      <point x="209.85000610351562" y="969.84375" type="line"/>
      <point x="111.16576723982223" y="811.7121091430225"/>
      <point x="54.125" y="624.964784397873"/>
      <point x="54.125" y="424.99999999999994" type="curve" smooth="yes"/>
      <point x="54.125" y="225.03350821851808"/>
      <point x="111.16674132020455" y="38.28470180320588"/>
      <point x="209.85245513916016" y="-119.84375" type="curve"/>
      <point x="425.17447662353516" y="-119.84375" type="line"/>
      <point x="305.23010170266537" y="28.56533042187283"/>
      <point x="233.5" y="218.29010554706363"/>
    </contour>
  </outline>
</glyph>
<glyph name="parenright" format="2">
  <advance width="439.2996139526365"/>
  <unicode hex="0029"/>
  <outline>
    <contour>
      <point x="386.1746139526365" y="424.9999999999999" type="curve" smooth="yes"/>
      <point x="386.1746139526367" y="624.9664917814821"/>
      <point x="329.13287263243217" y="811.7152981967944"/>
      <point x="230.44715881347656" y="969.84375" type="curve"/>
      <point x="15.125137329101562" y="969.84375" type="line"/>
      <point x="135.06951224997147" y="821.4346695781273"/>
      <point x="206.79961395263672" y="631.7098944529365"/>
      <point x="206.79961395263672" y="425.0000000000001" type="curve" smooth="yes"/>
      <point x="206.79961395263672" y="218.29010554706358"/>
      <point x="135.06951224997147" y="28.565330421872773"/>
      <point x="15.125" y="-119.84375" type="curve"/>
      <point x="230.4496078491211" y="-119.84375" type="line"/>
      <point x="329.1338467128144" y="38.287890856977555"/>
      <point x="386.1746139526367" y="225.03521560212695"/>
    </contour>
  </outline>
</glyph>
<glyph name="asterisk" format="2">
  <advance width="457.07291666666663"/>
  <unicode hex="002A"/>
  <outline>
    <contour>
      <point x="421.94791666666663" y="671.5885416666666" type="curve" smooth="yes"/>
      <point x="421.94791666666663" y="719.7545691361619"/>
      <point x="404.30317036573194" y="763.831964323861"/>
      <point x="375.1305236816406" y="797.6894226074219" type="curve"/>
      <point x="277.6329116821289" y="739.1640167236328" type="line"/>
      <point x="303.18092346191406" y="850.0421905517578" type="line"/>
      <point x="280.2080080016845" y="859.6781489414923"/>
      <point x="254.98882157477811" y="865.0000000000001"/>
      <point x="228.53645833333326" y="865.0000000000001" type="curve" smooth="yes"/>
      <point x="202.084628825333" y="865.0"/>
      <point x="176.86592636837264" y="859.6783636989575"/>
      <point x="153.89339447021484" y="850.0360946655273" type="curve"/>
      <point x="179.44000244140625" y="739.1640167236328" type="line"/>
      <point x="81.94892883300781" y="797.6855010986328" type="line"/>
      <point x="52.77232730577245" y="763.8384115361056"/>
      <point x="35.125000000000014" y="719.7580917768953"/>
      <point x="35.125" y="671.5885416666667" type="curve" smooth="yes"/>
      <point x="35.125" y="666.2142728675958"/>
      <point x="35.344670899779786" y="660.890906105703"/>
      <point x="35.77552032470703" y="655.7404479980469" type="curve"/>
      <point x="149.0967254638672" y="645.7770080566406" type="line"/>
      <point x="63.28678894042969" y="571.1187438964844" type="line"/>
      <point x="89.81772034919626" y="527.5882916914945"/>
      <point x="133.04187786595753" y="495.3583285957281"/>
      <point x="184.030029296875" y="483.33534240722656" type="curve"/>
      <point x="228.53646087646484" y="588.060661315918" type="line"/>
      <point x="273.0392837524414" y="483.3438262939453" type="line"/>
      <point x="324.0271194093867" y="495.35637100871776"/>
      <point x="367.2513653453034" y="527.5848790898106"/>
      <point x="393.7832489013672" y="571.1212539672852" type="curve"/>
      <point x="307.97618865966797" y="645.7770080566406" type="line"/>
      <point x="421.28782653808594" y="655.7396087646484" type="line"/>
      <point x="421.7249875348547" y="660.8122415651538"/>
      <point x="421.9479166666667" y="666.1745630993271"/>
    </contour>
  </outline>
</glyph>
<glyph name="plus" format="2">
  <advance width="807.9375"/>
  <unicode hex="002B"/>
  <outline>
    <contour>
      <point x="316.46875" y="105.15625" type="line"/>
      <point x="491.46875" y="105.15625" type="line"/>
      <point x="491.46875" y="337.5" type="line"/>
      <point x="723.8125" y="337.5" type="line"/>
      <point x="723.8125" y="512.5" type="line"/>
      <point x="491.46875" y="512.5" type="line"/>
      <point x="491.46875" y="744.84375" type="line"/>
      <point x="316.46875" y="744.84375" type="line"/>
      <point x="316.46875" y="512.5" type="line"/>
      <point x="84.125" y="512.5" type="line"/>
      <point x="84.125" y="337.5" type="line"/>
      <point x="316.46875" y="337.5" type="line"/>
    </contour>
  </outline>
</glyph>
<glyph name="comma" format="2">
  <advance width="379.7158611948114"/>
  <unicode hex="002C"/>
  <outline>
    <contour>
      <point x="68.125" y="92.46354166666666" type="curve" smooth="yes"/>
      <point x="68.125" y="33.152798918437504"/>
      <point x="116.27779891843747" y="-15.0"/>
      <point x="175.58854166666666" y="-15.0" type="curve"/>
      <point x="198.24115295524058" y="-15.0"/>
      <point x="219.26614059743994" y="-7.975889164318233"/>
      <point x="236.60238138834634" y="4.031135559082031" type="curve"/>
      <point x="222.9904485299509" y="-75.86351588826071"/>
      <point x="174.34931323551547" y="-143.80961473230246"/>
      <point x="107.07985941569007" y="-183.47105407714844" type="curve"/>
      <point x="181.38147989908853" y="-183.47105407714844" type="line"/>
      <point x="261.0863191496553" y="-136.35945153911265"/>
      <point x="314.5908611948114" y="-49.54067636131025"/>
      <point x="314.5908611948114" y="49.67614380734861" type="curve"/>
      <point x="314.5908611948114" y="96.04029694447894"/>
      <point x="295.09558739473744" y="129.80131461102914"/>
      <point x="281.28038830597586" y="147.8056325943559" type="curve"/>
      <point x="250.55296643121522" y="187.85038842353987"/>
      <point x="206.8751007522585" y="199.92708333333331"/>
      <point x="175.58854166666666" y="199.92708333333331" type="curve"/>
      <point x="116.27779891843747" y="199.92708333333331"/>
      <point x="68.125" y="151.77428441489582"/>
    </contour>
  </outline>
</glyph>
<glyph name="hyphen" format="2">
  <advance width="542.3720238095239"/>
  <unicode hex="002D"/>
  <outline>
    <contour>
      <point x="84.125" y="222.421875" type="line"/>
      <point x="458.2470238095238" y="222.421875" type="line"/>
      <point x="458.2470238095238" y="397.421875" type="line"/>
      <point x="84.125" y="397.421875" type="line"/>
    </contour>
  </outline>
</glyph>
<glyph name="period" format="2">
  <advance width="349.1770833333333"/>
  <unicode hex="002E"/>
  <outline>
    <contour>
      <point x="282.0520833333333" y="92.46354166666666" type="curve" smooth="yes"/>
      <point x="282.0520833333333" y="151.77428441489582"/>
      <point x="233.89928441489582" y="199.92708333333331"/>
      <point x="174.58854166666666" y="199.92708333333331" type="curve" smooth="yes"/>
      <point x="115.2777989184375" y="199.92708333333331"/>
      <point x="67.125" y="151.77428441489582"/>
      <point x="67.125" y="92.46354166666666" type="curve" smooth="yes"/>
      <point x="67.12499999999999" y="33.152798918437504"/>
      <point x="115.27779891843747" y="-14.999999999999986"/>
      <point x="174.58854166666666" y="-15.0" type="curve" smooth="yes"/>
      <point x="233.89928441489582" y="-15.000000000000014"/>
      <point x="282.0520833333333" y="33.15279891843747"/>
    </contour>
  </outline>
</glyph>
<glyph name="slash" format="2">
  <advance width="454.2921829223633"/>
  <unicode hex="002F"/>
  <outline>
    <contour>
      <point x="277.9938507080078" y="969.84375" type="line"/>
      <point x="18.125" y="0" type="line"/>
      <point x="199.29833221435547" y="0" type="line"/>
      <point x="459.1671829223633" y="969.84375" type="line"/>
    </contour>
  </outline>
</glyph>
<glyph name="zero" format="2">
  <advance width="761.6130952380953"/>
  <unicode hex="0030"/>
  <outline>
    <contour>
      <point x="702.4880952380953" y="425.0" type="curve" smooth="yes"/>
      <point x="702.4880952380953" y="668.0598845525471"/>
      <point x="590.5779107578526" y="865.0"/>
      <point x="380.80654761904765" y="865.0" type="curve" smooth="yes"/>
      <point x="171.03518448024266" y="865.0"/>
      <point x="59.125" y="668.0598845525471"/>
      <point x="59.125" y="425.0" type="curve" smooth="yes"/>
      <point x="59.125" y="181.94011544745285"/>
      <point x="171.03518448024266" y="-15.0"/>
      <point x="380.80654761904765" y="-15.0" type="curve" smooth="yes"/>
      <point x="590.5779107578526" y="-15.0"/>
      <point x="702.4880952380953" y="181.94011544745285"/>
    </contour>
    <contour>
      <point x="523.1130952380953" y="425.0" type="curve" smooth="yes"/>
      <point x="523.1130952380953" y="275.85342775255975"/>
      <point x="478.8319142742373" y="155.40625"/>
      <point x="380.80654761904765" y="155.40625" type="curve" smooth="yes"/>
      <point x="282.781180963858" y="155.40625"/>
      <point x="238.5" y="275.85342775255975"/>
      <point x="238.5" y="425.0" type="curve" smooth="yes"/>
      <point x="238.5" y="574.1465722474402"/>
      <point x="282.781180963858" y="694.59375"/>
      <point x="380.80654761904765" y="694.59375" type="curve" smooth="yes"/>
      <point x="478.8319142742373" y="694.59375"/>
      <point x="523.1130952380953" y="574.1465722474402"/>
    </contour>
  </outline>
</glyph>
<glyph name="one" format="2">
  <advance width="655.2212295532227"/>
  <unicode hex="0031"/>
  <outline>
    <contour>
      <point x="304.3812484741211" y="0" type="line"/>
      <point x="491.09622955322266" y="0" type="line"/>
      <point x="491.09622955322266" y="850" type="line"/>
      <point x="196.2874984741211" y="850" type="line"/>
      <point x="109.125" y="679.59375" type="line"/>
      <point x="304.3812484741211" y="679.59375" type="line"/>
    </contour>
  </outline>
</glyph>
<glyph name="two" format="2">
  <advance width="703.4230422973633"/>
  <unicode hex="0032"/>
  <outline>
    <contour>
      <point x="53.125" y="0" type="line"/>
      <point x="637.2980422973633" y="0" type="line"/>
      <point x="637.2980422973633" y="170.40625" type="line"/>
      <point x="393.16334533691406" y="170.40625" type="line"/>
      <point x="518.3815176205154" y="339.1254153997019" type="line"/>
      <point x="587.9502191234017" y="432.86239495666285"/>
      <point x="617.2980389065214" y="506.06791586161313"/>
      <point x="617.2980389065214" y="588.3819444444443" type="curve"/>
      <point x="617.2980389065214" y="741.0427660451667"/>
      <point x="492.09416089893693" y="865.0"/>
      <point x="337.67998335096576" y="865.0" type="curve"/>
      <point x="245.21991262911826" y="865.0"/>
      <point x="161.94017120710373" y="834.9983103801275"/>
      <point x="103.645263671875" y="782.9153747558594" type="curve"/>
      <point x="103.645263671875" y="591.2100143432617" type="line"/>
      <point x="153.23607395503475" y="654.0788151804119"/>
      <point x="234.54914743024648" y="695.1229166666667"/>
      <point x="326.3883166842991" y="695.1229166666667" type="curve"/>
      <point x="389.73078123936267" y="695.1229166666667"/>
      <point x="441.1566270147701" y="655.2078476514885"/>
      <point x="441.1566270147701" y="591.3715277777777" type="curve"/>
      <point x="441.1566270147701" y="536.3872355938688"/>
      <point x="414.9827205427473" y="499.95390479837664"/>
      <point x="408.7521858215332" y="491.34988021850586" type="curve"/>
      <point x="403.4977912902832" y="484.08147048950195" type="line"/>
    </contour>
  </outline>
</glyph>
<glyph name="three" format="2">
  <advance width="671.5476226806641"/>
  <unicode hex="0033"/>
  <outline>
    <contour>
      <point x="274.16964540027436" y="154.96199586497673" type="curve"/>
      <point x="188.80047695579066" y="154.96199586497679"/>
      <point x="112.8282717425731" y="188.6477051450281"/>
      <point x="64.125" y="240.95990753173828" type="curve"/>
      <point x="64.125" y="49.204811096191406" type="line"/>
      <point x="123.36419462377143" y="7.676561590372195"/>
      <point x="202.7756359822099" y="-15.000000000000004"/>
      <point x="290.0446454002743" y="-14.999999999999993" type="curve"/>
      <point x="467.6743922712275" y="-15.0"/>
      <point x="611.8392882574173" y="116.93085165936176"/>
      <point x="611.8392882574173" y="280.2529761904762" type="curve"/>
      <point x="611.8392882574173" y="408.362977412934"/>
      <point x="536.9755741257761" y="502.4451801892434"/>
      <point x="427.7132263183594" y="546.8936157226562" type="curve"/>
      <point x="627.4226226806641" y="850" type="line"/>
      <point x="78.54167175292969" y="850" type="line"/>
      <point x="78.54167175292969" y="679.59375" type="line"/>
      <point x="327.90089416503906" y="679.59375" type="line"/>
      <point x="145.35916900634766" y="407.6474304199219" type="line"/>
      <point x="175.83237313036335" y="416.3258505694787"/>
      <point x="212.9355709865598" y="419.8314565159757"/>
      <point x="253.87797873360773" y="419.8314565159757" type="curve"/>
      <point x="353.11359383106947" y="419.8314565159757"/>
      <point x="432.46428825741725" y="372.8905467743767"/>
      <point x="432.46428825741725" y="287.3967261904762" type="curve"/>
      <point x="432.46428825741725" y="206.78408286197322"/>
      <point x="361.565167694869" y="154.96199586497673"/>
    </contour>
  </outline>
</glyph>
<glyph name="four" format="2">
  <advance width="778.8333358764648"/>
  <unicode hex="0034"/>
  <outline>
    <contour>
      <point x="13.125" y="180.3125" type="line"/>
      <point x="455.81737518310547" y="180.3125" type="line"/>
      <point x="455.81737518310547" y="0" type="line"/>
      <point x="634.7864608764648" y="0" type="line"/>
      <point x="634.7864608764648" y="180.3125" type="line"/>
      <point x="744.7083358764648" y="180.3125" type="line"/>
      <point x="744.7083358764648" y="341.9413604736328" type="line"/>
      <point x="634.7864608764648" y="341.9413604736328" type="line"/>
      <point x="634.7864608764648" y="567.4553604125977" type="line"/>
      <point x="455.81737518310547" y="567.4553604125977" type="line"/>
      <point x="455.81737518310547" y="341.9413604736328" type="line"/>
      <point x="294.70825958251953" y="341.9413604736328" type="line"/>
      <point x="587.9533386230469" y="850" type="line"/>
      <point x="394.5093688964844" y="850" type="line"/>
    </contour>
  </outline>
</glyph>
<glyph name="five" format="2">
  <advance width="659.7548491379312"/>
  <unicode hex="0035"/>
  <outline>
    <contour>
      <point x="287.2315912356322" y="-14.999999999999986" type="curve"/>
      <point x="463.4897529861189" y="-15.0"/>
      <point x="606.6298491379312" y="118.38126683950051"/>
      <point x="606.6298491379312" y="282.53317169540236" type="curve"/>
      <point x="606.6298491379312" y="448.55080357615645"/>
      <point x="470.3976364912987" y="580.0663433908047"/>
      <point x="302.5232579022989" y="580.0663433908047" type="curve"/>
      <point x="298.16461105730656" y="580.0663433908047"/>
      <point x="288.25229097422164" y="580.0116838191082"/>
      <point x="277.2766647338867" y="579.615364074707" type="curve"/>
      <point x="282.41424560546875" y="679.59375" type="line"/>
      <point x="566.6298522949219" y="679.59375" type="line"/>
      <point x="566.6298522949219" y="850" type="line"/>
      <point x="118.0678482055664" y="850" type="line"/>
      <point x="94.09423828125" y="383.46863555908203" type="line"/>
      <point x="157.44508100033684" y="415.41896590933834"/>
      <point x="226.36560378154905" y="421.9116558908047"/>
      <point x="271.06492456896564" y="421.91165589080475" type="curve"/>
      <point x="359.55142934773994" y="421.9116558908047"/>
      <point x="427.25484913793116" y="367.4238839046979"/>
      <point x="427.25484913793116" y="287.29567169540235" type="curve"/>
      <point x="427.25484913793116" y="207.6135576299125"/>
      <point x="357.56510429052554" y="152.67968749999997"/>
      <point x="271.6482579022989" y="152.67968749999997" type="curve"/>
      <point x="183.69207780732756" y="152.67968750000003"/>
      <point x="105.87791522690284" y="186.06970271883313"/>
      <point x="58.125" y="237.2749252319336" type="curve"/>
      <point x="58.125" y="53.017234802246094" type="line"/>
      <point x="117.96522741893835" y="10.85956570692462"/>
      <point x="198.52010156912542" y="-14.999999999999975"/>
    </contour>
  </outline>
</glyph>
<glyph name="six" format="2">
  <advance width="721.7548491379312"/>
  <unicode hex="0036"/>
  <outline>
    <contour>
      <point x="119.93130965924038" y="495.64701093393535" type="line"/>
      <point x="77.41416943810565" y="425.2986259664262"/>
      <point x="49.125000000000085" y="370.0505344916485"/>
      <point x="49.125" y="291.6015625000002" type="curve"/>
      <point x="49.125000000000014" y="119.54071685897102"/>
      <point x="188.81657892793632" y="-14.999999999999979"/>
      <point x="360.8774245689655" y="-15.0" type="curve" smooth="yes"/>
      <point x="532.9382702099947" y="-15.0"/>
      <point x="672.6298491379312" y="119.5407168589708"/>
      <point x="672.6298491379312" y="291.6015625" type="curve"/>
      <point x="672.6298491379312" y="456.0492046327721"/>
      <point x="541.7106699996832" y="585.2074693825008"/>
      <point x="378.50279235839844" y="590.147590637207" type="curve"/>
      <point x="540.1065444946289" y="850" type="line"/>
      <point x="334.09508514404297" y="850" type="line"/>
    </contour>
    <contour>
      <point x="493.25484913793116" y="291.60156250000006" type="curve" smooth="yes"/>
      <point x="493.25484913793116" y="216.4346901499503"/>
      <point x="434.5631963639305" y="155.40624999999997"/>
      <point x="360.8774245689656" y="155.40624999999997" type="curve" smooth="yes"/>
      <point x="287.19165277400066" y="155.40624999999997"/>
      <point x="228.5" y="216.4346901499503"/>
      <point x="228.5" y="291.60156250000006" type="curve" smooth="yes"/>
      <point x="228.5" y="366.7684348500498"/>
      <point x="287.19165277400066" y="427.7968750000001"/>
      <point x="360.8774245689656" y="427.7968750000001" type="curve" smooth="yes"/>
      <point x="434.5631963639305" y="427.7968750000001"/>
      <point x="493.25484913793116" y="366.7684348500498"/>
    </contour>
  </outline>
</glyph>
<glyph name="seven" format="2">
  <advance width="727.2098236083984"/>
  <unicode hex="0037"/>
  <outline>
    <contour>
      <point x="419.04540252685547" y="679.59375" type="line"/>
      <point x="85.99205017089844" y="0" type="line"/>
      <point x="281.655029296875" y="0" type="line"/>
      <point x="693.0848236083984" y="850" type="line"/>
      <point x="74.125" y="850" type="line"/>
      <point x="74.125" y="679.59375" type="line"/>
    </contour>
  </outline>
</glyph>
<glyph name="eight" format="2">
  <advance width="714.7604166666667"/>
  <unicode hex="0038"/>
  <outline>
    <contour>
      <point x="49.125" y="238.96874999999997" type="curve"/>
      <point x="49.125000000000014" y="98.9437589468711"/>
      <point x="187.10359252792912" y="-14.999999999999979"/>
      <point x="357.3802083333333" y="-15.0" type="curve" smooth="yes"/>
      <point x="527.6568241387375" y="-15.000000000000028"/>
      <point x="665.6354166666667" y="98.94375894687104"/>
      <point x="665.6354166666667" y="238.96874999999997" type="curve"/>
      <point x="665.6354166666667" y="329.53738450503255"/>
      <point x="626.8915370585866" y="395.4091312821463"/>
      <point x="565.1699371337891" y="437.3372344970703" type="curve"/>
      <point x="618.1510995791189" y="478.10922933897086"/>
      <point x="650.9270833333335" y="539.1796721434405"/>
      <point x="650.9270833333336" y="620.4479166666667" type="curve"/>
      <point x="650.9270833333335" y="755.2889288149886"/>
      <point x="519.5382541569359" y="865.0"/>
      <point x="357.38020833333337" y="865.0" type="curve" smooth="yes"/>
      <point x="195.2221625097309" y="865.0"/>
      <point x="63.83333333333333" y="755.2889288149886"/>
      <point x="63.833333333333314" y="620.4479166666666" type="curve"/>
      <point x="63.833333333333314" y="539.1786953107786"/>
      <point x="96.61010501754595" y="478.1077612259341"/>
      <point x="149.5922393798828" y="437.3370590209961" type="curve"/>
      <point x="87.8696111609186" y="395.41037504893114"/>
      <point x="49.125" y="329.53823954884274"/>
    </contour>
    <contour>
      <point x="471.5520833333335" y="602.5725080818966" type="curve" smooth="yes"/>
      <point x="471.5520833333335" y="548.157818496009"/>
      <point x="420.4599029237727" y="510.5512661637931"/>
      <point x="357.38020833333337" y="510.5512661637931" type="curve" smooth="yes"/>
      <point x="294.30051374289405" y="510.5512661637931"/>
      <point x="243.20833333333326" y="548.157818496009"/>
      <point x="243.20833333333326" y="602.5725080818966" type="curve" smooth="yes"/>
      <point x="243.20833333333326" y="656.9871976677841"/>
      <point x="294.30051374289405" y="694.59375"/>
      <point x="357.38020833333337" y="694.59375" type="curve" smooth="yes"/>
      <point x="420.4599029237727" y="694.59375"/>
      <point x="471.5520833333335" y="656.9871976677841"/>
    </contour>
    <contour>
      <point x="486.26041666666674" y="256.84415858477007" type="curve" smooth="yes"/>
      <point x="486.26041666666674" y="196.36530109057344"/>
      <point x="428.603003759213" y="155.40624999999994"/>
      <point x="357.38020833333337" y="155.40624999999994" type="curve" smooth="yes"/>
      <point x="286.15741290745376" y="155.40624999999994"/>
      <point x="228.5" y="196.36530109057344"/>
      <point x="228.5" y="256.84415858477007" type="curve" smooth="yes"/>
      <point x="228.5" y="317.3230160789667"/>
      <point x="286.15741290745376" y="358.2820671695402"/>
      <point x="357.38020833333337" y="358.2820671695402" type="curve" smooth="yes"/>
      <point x="428.603003759213" y="358.2820671695402"/>
      <point x="486.26041666666674" y="317.3230160789667"/>
    </contour>
  </outline>
</glyph>
<glyph name="nine" format="2">
  <advance width="721.7548491379312"/>
  <unicode hex="0039"/>
  <outline>
    <contour>
      <point x="601.823535006287" y="354.35298906606465" type="line"/>
      <point x="644.3406752274217" y="424.7013740335738"/>
      <point x="672.6298491379312" y="479.94946550835175"/>
      <point x="672.6298491379312" y="558.3984375" type="curve"/>
      <point x="672.6298491379312" y="730.4592831410292"/>
      <point x="532.9382702099948" y="865.0"/>
      <point x="360.8774245689656" y="865.0" type="curve" smooth="yes"/>
      <point x="188.81657892793635" y="865.0"/>
      <point x="49.125000000000014" y="730.4592831410292"/>
      <point x="49.125" y="558.3984375" type="curve"/>
      <point x="49.125000000000014" y="393.9507953672279"/>
      <point x="180.0441822923488" y="264.7925305220281"/>
      <point x="343.25205993652344" y="259.85240936279297" type="curve"/>
      <point x="181.64830780029297" y="0" type="line"/>
      <point x="387.6597595214844" y="0" type="line"/>
    </contour>
    <contour>
      <point x="493.25484913793116" y="558.3984375" type="curve" smooth="yes"/>
      <point x="493.25484913793116" y="483.23156514995026"/>
      <point x="434.5631963639305" y="422.2031249999999"/>
      <point x="360.8774245689656" y="422.2031249999999" type="curve" smooth="yes"/>
      <point x="287.19165277400066" y="422.2031249999999"/>
      <point x="228.5" y="483.23156514995026"/>
      <point x="228.5" y="558.3984375" type="curve" smooth="yes"/>
      <point x="228.5" y="633.5653098500497"/>
      <point x="287.19165277400066" y="694.5937500000001"/>
      <point x="360.8774245689656" y="694.5937500000001" type="curve" smooth="yes"/>
      <point x="434.5631963639305" y="694.5937500000001"/>
      <point x="493.25484913793116" y="633.5653098500497"/>
    </contour>
  </outline>
</glyph>
<glyph name="colon" format="2">
  <advance width="355.1770833333333"/>
  <unicode hex="003A"/>
  <outline>
    <contour>
      <point x="285.0520833333333" y="527.3802083333334" type="curve" smooth="yes"/>
      <point x="285.0520833333333" y="586.6909510815625"/>
      <point x="236.89928441489582" y="634.84375"/>
      <point x="177.58854166666666" y="634.84375" type="curve" smooth="yes"/>
      <point x="118.2777989184375" y="634.84375"/>
      <point x="70.125" y="586.6909510815625"/>
      <point x="70.125" y="527.3802083333334" type="curve" smooth="yes"/>
      <point x="70.12499999999999" y="468.06946558510424"/>
      <point x="118.27779891843747" y="419.91666666666674"/>
      <point x="177.58854166666666" y="419.91666666666674" type="curve" smooth="yes"/>
      <point x="236.89928441489582" y="419.9166666666667"/>
      <point x="285.0520833333333" y="468.0694655851042"/>
    </contour>
    <contour>
      <point x="285.0520833333333" y="92.46354166666666" type="curve" smooth="yes"/>
      <point x="285.0520833333333" y="151.77428441489582"/>
      <point x="236.89928441489582" y="199.92708333333331"/>
      <point x="177.58854166666666" y="199.92708333333331" type="curve" smooth="yes"/>
      <point x="118.2777989184375" y="199.92708333333331"/>
      <point x="70.125" y="151.77428441489582"/>
      <point x="70.125" y="92.46354166666666" type="curve" smooth="yes"/>
      <point x="70.12499999999999" y="33.152798918437504"/>
      <point x="118.27779891843747" y="-14.999999999999986"/>
      <point x="177.58854166666666" y="-15.0" type="curve" smooth="yes"/>
      <point x="236.89928441489582" y="-15.000000000000014"/>
      <point x="285.0520833333333" y="33.15279891843747"/>
    </contour>
  </outline>
</glyph>
<glyph name="semicolon" format="2">
  <advance width="376.7158611948114"/>
  <unicode hex="003B"/>
  <outline>
    <contour>
      <point x="285.0520833333333" y="527.3802083333334" type="curve" smooth="yes"/>
      <point x="285.0520833333333" y="586.6909510815625"/>
      <point x="236.89928441489582" y="634.84375"/>
      <point x="177.58854166666666" y="634.84375" type="curve" smooth="yes"/>
      <point x="118.2777989184375" y="634.84375"/>
      <point x="70.125" y="586.6909510815625"/>
      <point x="70.125" y="527.3802083333334" type="curve" smooth="yes"/>
      <point x="70.12499999999999" y="468.06946558510424"/>
      <point x="118.27779891843747" y="419.91666666666674"/>
      <point x="177.58854166666666" y="419.91666666666674" type="curve" smooth="yes"/>
      <point x="236.89928441489582" y="419.9166666666667"/>
      <point x="285.0520833333333" y="468.0694655851042"/>
    </contour>
    <contour>
      <point x="70.125" y="92.46354166666666" type="curve" smooth="yes"/>
      <point x="70.125" y="33.152798918437504"/>
      <point x="118.27779891843747" y="-15.0"/>
      <point x="177.58854166666666" y="-15.0" type="curve"/>
      <point x="200.24115295524058" y="-15.0"/>
      <point x="221.26614059743994" y="-7.975889164318233"/>
      <point x="238.60238138834634" y="4.031135559082031" type="curve"/>
      <point x="224.9904485299509" y="-75.86351588826071"/>
      <point x="176.34931323551547" y="-143.80961473230246"/>
      <point x="109.07985941569007" y="-183.47105407714844" type="curve"/>
      <point x="183.38147989908853" y="-183.47105407714844" type="line"/>
      <point x="263.0863191496553" y="-136.35945153911265"/>
      <point x="316.5908611948114" y="-49.54067636131025"/>
      <point x="316.5908611948114" y="49.67614380734861" type="curve"/>
      <point x="316.5908611948114" y="96.04029694447894"/>
      <point x="297.09558739473744" y="129.80131461102914"/>
      <point x="283.28038830597586" y="147.8056325943559" type="curve"/>
      <point x="252.55296643121522" y="187.85038842353987"/>
      <point x="208.8751007522585" y="199.92708333333331"/>
      <point x="177.58854166666666" y="199.92708333333331" type="curve"/>
      <point x="118.27779891843747" y="199.92708333333331"/>
      <point x="70.125" y="151.77428441489582"/>
    </contour>
  </outline>
</glyph>
<glyph name="less" format="2">
  <advance width="689.09375"/>
  <unicode hex="003C"/>
  <outline>
    <contour>
      <point x="634.96875" y="95.234375" type="line"/>
      <point x="634.96875" y="290.04588317871094" type="line"/>
      <point x="379.1943817138672" y="425" type="line"/>
      <point x="634.96875" y="559.9541168212891" type="line"/>
      <point x="634.96875" y="754.765625" type="line"/>
      <point x="15.125" y="425" type="line"/>
    </contour>
  </outline>
</glyph>
<glyph name="equal" format="2">
  <advance width="807.9375"/>
  <unicode hex="003D"/>
  <outline>
    <contour>
      <point x="84.125" y="463.6875" type="line"/>
      <point x="723.8125" y="463.6875" type="line"/>
      <point x="723.8125" y="638.6875" type="line"/>
      <point x="84.125" y="638.6875" type="line"/>
    </contour>
    <contour>
      <point x="84.125" y="211.3125" type="line"/>
      <point x="723.8125" y="211.3125" type="line"/>
      <point x="723.8125" y="386.3125" type="line"/>
      <point x="84.125" y="386.3125" type="line"/>
    </contour>
  </outline>
</glyph>
<glyph name="greater" format="2">
  <advance width="689.09375"/>
  <unicode hex="003E"/>
  <outline>
    <contour>
      <point x="54.125" y="95.234375" type="line"/>
      <point x="673.96875" y="425" type="line"/>
      <point x="54.125" y="754.765625" type="line"/>
      <point x="54.125" y="559.9541168212891" type="line"/>
      <point x="309.8993682861328" y="425" type="line"/>
      <point x="54.125" y="290.04588317871094" type="line"/>
    </contour>
  </outline>
</glyph>
<glyph name="question" format="2">
  <advance width="589.5476190476192"/>
  <unicode hex="003F"/>
  <outline>
    <contour>
      <point x="224.46130952380958" y="475.2419642857141" type="curve"/>
      <point x="209.564554813871" y="475.2419643253613"/>
      <point x="175.03734108336636" y="476.80835041920176"/>
      <point x="137.74446868896484" y="489.5003967285156" type="curve"/>
      <point x="146.3436279296875" y="252.0935516357422" type="line"/>
      <point x="294.43773651123047" y="252.0935516357422" type="line"/>
      <point x="298.8359146118164" y="312.8062973022461" type="line"/>
      <point x="428.7126999271747" y="339.12674611000597"/>
      <point x="526.422619047619" y="451.3763087421448"/>
      <point x="526.4226190476192" y="585.9761904761904" type="curve"/>
      <point x="526.4226190476192" y="739.9038813711023"/>
      <point x="404.9310854887785" y="865.0"/>
      <point x="255.33630952380958" y="865.0" type="curve"/>
      <point x="212.52004192729282" y="865.0"/>
      <point x="151.16264481408848" y="857.1324587057868"/>
      <point x="90.125" y="822.5507736206055" type="curve"/>
      <point x="90.125" y="640.5034790039062" type="line"/>
      <point x="128.50584741053737" y="674.5134823351892"/>
      <point x="178.8639426945209" y="695.1229166666667"/>
      <point x="234.1696428571429" y="695.1229166666666" type="curve"/>
      <point x="298.63759572321334" y="695.1229166666667"/>
      <point x="347.04761904761915" y="647.5270383984208"/>
      <point x="347.04761904761915" y="585.9761904761904" type="curve"/>
      <point x="347.04761904761915" y="521.4221091435511"/>
      <point x="292.1448600541222" y="475.2419642857141"/>
    </contour>
    <contour>
      <point x="327.85422653256705" y="92.46354166666666" type="curve" smooth="yes"/>
      <point x="327.85422653256705" y="151.77428441489582"/>
      <point x="279.70142761412956" y="199.92708333333331"/>
      <point x="220.3906848659004" y="199.92708333333331" type="curve" smooth="yes"/>
      <point x="161.07994211767124" y="199.92708333333331"/>
      <point x="112.92714319923374" y="151.77428441489582"/>
      <point x="112.92714319923374" y="92.46354166666666" type="curve" smooth="yes"/>
      <point x="112.92714319923374" y="33.152798918437504"/>
      <point x="161.0799421176712" y="-14.999999999999986"/>
      <point x="220.3906848659004" y="-15.0" type="curve" smooth="yes"/>
      <point x="279.70142761412956" y="-15.000000000000014"/>
      <point x="327.85422653256705" y="33.15279891843747"/>
    </contour>
  </outline>
</glyph>
<glyph name="at" format="2">
  <advance width="1068.25"/>
  <unicode hex="0040"/>
  <outline>
    <contour>
      <point x="151.47812500000003" y="425.00000000000006" type="curve"/>
      <point x="151.478125" y="636.1885576685627"/>
      <point x="322.93644233143743" y="807.646875"/>
      <point x="534.125" y="807.646875" type="curve" smooth="yes"/>
      <point x="745.3135576685626" y="807.646875"/>
      <point x="916.771875" y="636.1885576685626"/>
      <point x="916.771875" y="425.0" type="curve"/>
      <point x="916.771875" y="301.65857232939305"/>
      <point x="882.5285368448987" y="291.09672619047615"/>
      <point x="862.1763392857143" y="291.09672619047615" type="curve"/>
      <point x="797.8259012275078" y="291.09672619047615"/>
      <point x="804.7723212577785" y="396.68610387824504"/>
      <point x="804.7723218388574" y="467.5" type="curve"/>
      <point x="804.7723236083984" y="683.1473236083984" type="line"/>
      <point x="640.2918548583984" y="683.1473236083984" type="line"/>
      <point x="640.2918548583984" y="665.6537475585938" type="line"/>
      <point x="606.4109602214244" y="686.2766606341892"/>
      <point x="566.6433120679529" y="698.1473214285716"/>
      <point x="524.125" y="698.1473214285716" type="curve"/>
      <point x="369.2315279808035" y="698.1473214285714"/>
      <point x="243.47767857142856" y="572.3934720191965"/>
      <point x="243.47767857142856" y="417.5" type="curve" smooth="yes"/>
      <point x="243.47767857142856" y="262.6065279808035"/>
      <point x="369.2315279808035" y="136.85267857142858"/>
      <point x="524.125" y="136.85267857142856" type="curve"/>
      <point x="592.9965379939791" y="136.85267857142856"/>
      <point x="655.6916972483004" y="163.5072242504246"/>
      <point x="702.4486999511719" y="207.05799102783203" type="curve"/>
      <point x="736.0093041314402" y="166.3711988207674"/>
      <point x="781.9928625734683" y="141.85267857142853"/>
      <point x="838.6674107142857" y="141.85267857142856" type="curve"/>
      <point x="974.7902402352124" y="141.85267857142856"/>
      <point x="1049.125" y="268.61511445700495"/>
      <point x="1049.125" y="425.0" type="curve"/>
      <point x="1049.125" y="709.2362353000002"/>
      <point x="818.3612353000002" y="940.0"/>
      <point x="534.125" y="940.0" type="curve" smooth="yes"/>
      <point x="249.88876470000002" y="940.0"/>
      <point x="19.125" y="709.2362353000001"/>
      <point x="19.125" y="425.00000000000006" type="curve"/>
      <point x="19.125000000000014" y="140.76376469999985"/>
      <point x="249.88876469999968" y="-89.99999999999997"/>
      <point x="534.1249999999999" y="-90.0" type="curve"/>
      <point x="625.00761907031" y="-90.0"/>
      <point x="713.4926500805908" y="-66.74563744087271"/>
      <point x="791.625" y="-23.526695251464844" type="curve"/>
      <point x="791.625" y="119.77520751953125" type="line"/>
      <point x="717.8594096615997" y="69.68169238713418"/>
      <point x="630.2358510916689" y="42.353125000000034"/>
      <point x="539.7946428571429" y="42.35312500000005" type="curve"/>
      <point x="325.41704485865125" y="42.35312499999993"/>
      <point x="151.47812500000003" y="213.82761152328922"/>
    </contour>
    <contour>
      <point x="638.2098214285714" y="417.5" type="curve" smooth="yes"/>
      <point x="638.2098214285714" y="349.544809253985"/>
      <point x="588.5573615605067" y="294.44642857142856"/>
      <point x="524.125" y="294.44642857142856" type="curve" smooth="yes"/>
      <point x="459.6926384394933" y="294.44642857142856"/>
      <point x="410.04017857142856" y="349.544809253985"/>
      <point x="410.04017857142856" y="417.5" type="curve" smooth="yes"/>
      <point x="410.04017857142856" y="485.455190746015"/>
      <point x="459.6926384394933" y="540.5535714285714"/>
      <point x="524.125" y="540.5535714285714" type="curve" smooth="yes"/>
      <point x="588.5573615605067" y="540.5535714285714"/>
      <point x="638.2098214285714" y="485.455190746015"/>
    </contour>
  </outline>
</glyph>
<glyph name="A" format="2">
  <advance width="815.461311340332"/>
  <unicode hex="0041"/>
  <anchor x="407.73065476190476" y="1002.0427073559308" name="top" identifier="top"/>
  <anchor x="407.73065476190476" y="-177.38315858191936" name="below" identifier="below"/>
  <anchor x="832.3363095238095" y="0" name="ogonek" identifier="ogonek"/>
  <outline>
    <contour>
      <point x="-16.875" y="0" type="line"/>
      <point x="163.7943115234375" y="0" type="line"/>
      <point x="219.82504272460938" y="117.05093383789062" type="line"/>
      <point x="586.0559844970703" y="117.05093383789062" type="line"/>
      <point x="642.0867156982422" y="0" type="line"/>
      <point x="832.336311340332" y="0" type="line"/>
      <point x="407.73065185546875" y="880.5833358764648" type="line"/>
    </contour>
    <contour>
      <point x="402.94051361083984" y="499.5880813598633" type="line"/>
      <point x="511.20735931396484" y="273.4133529663086" type="line"/>
      <point x="294.67366790771484" y="273.4133529663086" type="line"/>
    </contour>
  </outline>
</glyph>
<glyph name="D" format="2">
  <advance width="811.1889880952381"/>
  <unicode hex="0044"/>
  <anchor x="387.52742346938777" y="1002.0427073559308" name="top" identifier="top"/>
  <anchor x="387.52742346938777" y="-177.38315858191936" name="below" identifier="below"/>
  <anchor x="387.52742346938777" y="0" name="bottom" identifier="bottom"/>
  <anchor x="173.8125" y="425.0" name="stroke" identifier="stroke"/>
  <outline>
    <contour>
      <point x="84.125" y="0" type="line"/>
      <point x="317.0639877319336" y="0.0" type="line"/>
      <point x="686.4535877251574" y="0.0"/>
      <point x="792.0639880952381" y="256.7975420746361"/>
      <point x="792.0639880952381" y="425.0" type="curve" smooth="yes"/>
      <point x="792.0639880952381" y="593.2024579253639"/>
      <point x="686.4535880884619" y="850.0"/>
      <point x="317.0639880952381" y="850.0" type="curve"/>
      <point x="84.125" y="850" type="line"/>
    </contour>
    <contour>
      <point x="263.5" y="170.40625" type="line"/>
      <point x="263.5" y="679.59375" type="line"/>
      <point x="312.5796127319336" y="679.59375" type="line"/>
      <point x="570.172040486904" y="679.59375"/>
      <point x="608.9932445607553" y="516.602675473247"/>
      <point x="608.9932445607553" y="425.0" type="curve" smooth="yes"/>
      <point x="608.9932445607553" y="333.39732452675304"/>
      <point x="570.1720408502085" y="170.40624999999991"/>
      <point x="312.5796130952381" y="170.40625" type="curve"/>
    </contour>
  </outline>
</glyph>
<glyph name="E" format="2">
  <advance width="658.5327377319336"/>
  <unicode hex="0045"/>
  <anchor x="347.37183779761904" y="1002.0427073559308" name="top" identifier="top"/>
  <anchor x="341.76636904761904" y="-177.38315858191936" name="below" identifier="below"/>
  <anchor x="347.37183779761904" y="0" name="bottom" identifier="bottom"/>
  <anchor x="599.4077380952381" y="0" name="ogonek" identifier="ogonek"/>
  <outline>
    <contour>
      <point x="84.125" y="0" type="line"/>
      <point x="599.4077377319336" y="0" type="line"/>
      <point x="599.4077377319336" y="170.40625" type="line"/>
      <point x="263.5" y="170.40625" type="line"/>
      <point x="263.5" y="346.84251403808594" type="line"/>
      <point x="569.4077377319336" y="346.84251403808594" type="line"/>
      <point x="569.4077377319336" y="507.8658218383789" type="line"/>
      <point x="263.5" y="507.8658218383789" type="line"/>
      <point x="263.5" y="679.59375" type="line"/>
      <point x="599.4077377319336" y="679.59375" type="line"/>
      <point x="599.4077377319336" y="850" type="line"/>
      <point x="84.125" y="850" type="line"/>
    </contour>
  </outline>
</glyph>
<glyph name="F" format="2">
  <advance width="627.5803604125977"/>
  <unicode hex="0046"/>
  <anchor x="349.3956473214286" y="1002.0427073559308" name="top" identifier="top"/>
  <anchor x="263.5" y="0" name="lefthook" identifier="lefthook"/>
  <outline>
    <contour>
      <point x="84.125" y="0" type="line"/>
      <point x="263.5" y="0" type="line"/>
      <point x="263.5" y="342.7286834716797" type="line"/>
      <point x="558.4553604125977" y="342.7286834716797" type="line"/>
      <point x="558.4553604125977" y="506.68798065185547" type="line"/>
      <point x="263.5" y="506.68798065185547" type="line"/>
      <point x="263.5" y="679.59375" type="line"/>
      <point x="603.4553604125977" y="679.59375" type="line"/>
      <point x="603.4553604125977" y="850" type="line"/>
      <point x="84.125" y="850" type="line"/>
    </contour>
  </outline>
</glyph>
<glyph name="H" format="2">
  <advance width="804.2916641235352"/>
  <unicode hex="0048"/>
  <anchor x="402.1458333333333" y="1002.0427073559308" name="top" identifier="top"/>
  <anchor x="402.1458333333333" y="-177.38315858191936" name="below" identifier="below"/>
  <anchor x="402.1458333333333" y="680.1015625" name="stroke" identifier="stroke"/>
  <anchor x="173.8125" y="0" name="bottom" identifier="bottom"/>
  <outline>
    <contour>
      <point x="84.125" y="0" type="line"/>
      <point x="263.5" y="0" type="line"/>
      <point x="263.5" y="344.796875" type="line"/>
      <point x="540.7916641235352" y="344.796875" type="line"/>
      <point x="540.7916641235352" y="0" type="line"/>
      <point x="720.1666641235352" y="0" type="line"/>
      <point x="720.1666641235352" y="850" type="line"/>
      <point x="540.7916641235352" y="850" type="line"/>
      <point x="540.7916641235352" y="515.203125" type="line"/>
      <point x="263.5" y="515.203125" type="line"/>
      <point x="263.5" y="850" type="line"/>
      <point x="84.125" y="850" type="line"/>
    </contour>
  </outline>
</glyph>
<glyph name="I" format="2">
  <advance width="352.26077586206895"/>
  <unicode hex="0049"/>
  <anchor x="176.13038793103448" y="1002.0427073559308" name="top" identifier="top"/>
  <anchor x="176.13038793103448" y="-177.38315858191936" name="below" identifier="below"/>
  <anchor x="268.13577586206895" y="0" name="ogonek" identifier="ogonek"/>
  <anchor x="176.13038793103448" y="425.0" name="stroke" identifier="stroke"/>
  <outline>
    <contour>
      <point x="84.125" y="0" type="line"/>
      <point x="268.13577586206895" y="0" type="line"/>
      <point x="268.13577586206895" y="850" type="line"/>
      <point x="84.125" y="850" type="line"/>
    </contour>
  </outline>
</glyph>
<glyph name="J" format="2">
  <advance width="572.5072631835938"/>
  <unicode hex="004A"/>
  <anchor x="414.6947608784893" y="1002.0427073559308" name="top" identifier="top"/>
  <outline>
    <contour>
      <point x="200.74089183087028" y="154.87708333333333" type="curve"/>
      <point x="126.44629797644455" y="154.87708333333336"/>
      <point x="59.84908161472478" y="187.27735088851807"/>
      <point x="15.125" y="238.32874298095703" type="curve"/>
      <point x="15.125" y="48.739891052246094" type="line"/>
      <point x="68.06267188100753" y="8.538742456774905"/>
      <point x="136.5596743732653" y="-14.999999999999956"/>
      <point x="211.32422516420354" y="-14.999999999999964" type="curve"/>
      <point x="309.4874671062067" y="-14.999999999999986"/>
      <point x="504.3822599355707" y="29.58558677033119"/>
      <point x="504.3822610764395" y="317.7563115763547" type="curve"/>
      <point x="504.38226318359375" y="850" type="line"/>
      <point x="325.00726318359375" y="850" type="line"/>
      <point x="325.00726318359375" y="326.2220116706007" type="line"/>
      <point x="325.00726318359375" y="282.28262506510436"/>
      <point x="322.2513578706593" y="154.87708333333333"/>
    </contour>
  </outline>
</glyph>
<glyph name="K" format="2">
  <advance width="763.6995544433594"/>
  <unicode hex="004B"/>
  <anchor x="366.5909863945578" y="1002.0427073559308" name="top" identifier="top"/>
  <anchor x="374.89880952380946" y="0" name="bottom" identifier="bottom"/>
  <anchor x="374.89880952380946" y="-177.38315858191936" name="below" identifier="below"/>
  <outline>
    <contour>
      <point x="84.125" y="0" type="line"/>
      <point x="263.5" y="0" type="line"/>
      <point x="263.5" y="280.3168182373047" type="line"/>
      <point x="287.58240509033203" y="308.25760650634766" type="line"/>
      <point x="554.2474365234375" y="0" type="line"/>
      <point x="784.5745544433594" y="0" type="line"/>
      <point x="400.8975372314453" y="439.72764587402344" type="line"/>
      <point x="754.5147323608398" y="850" type="line"/>
      <point x="541.3466796875" y="850" type="line"/>
      <point x="263.5" y="525.4518051147461" type="line"/>
      <point x="263.5" y="850" type="line"/>
      <point x="84.125" y="850" type="line"/>
    </contour>
  </outline>
</glyph>
<glyph name="L" format="2">
  <advance width="587.1041641235352"/>
  <unicode hex="004C"/>
  <anchor x="173.8125" y="1002.0427073559308" name="top" identifier="top"/>
  <anchor x="323.55208333333337" y="0" name="bottom" identifier="bottom"/>
  <anchor x="323.55208333333337" y="-177.38315858191936" name="below" identifier="below"/>
  <anchor x="373.3086219792834" y="850" name="right" identifier="right"/>
  <anchor x="173.8125" y="425.0" name="stroke" identifier="stroke"/>
  <anchor x="495.6792564655172" y="514.6875" name="dotmiddle" identifier="dotmiddle"/>
  <outline>
    <contour>
      <point x="84.125" y="0" type="line"/>
      <point x="562.9791641235352" y="0" type="line"/>
      <point x="562.9791641235352" y="170.40625" type="line"/>
      <point x="263.5" y="170.40625" type="line"/>
      <point x="263.5" y="850" type="line"/>
      <point x="84.125" y="850" type="line"/>
    </contour>
  </outline>
</glyph>
<glyph name="M" format="2">
  <advance width="967.4575881958008"/>
  <unicode hex="004D"/>
  <anchor x="483.7287946428571" y="1002.0427073559308" name="top" identifier="top"/>
  <anchor x="483.7287946428571" y="-177.38315858191936" name="below" identifier="below"/>
  <outline>
    <contour>
      <point x="84.125" y="0" type="line"/>
      <point x="254.53125" y="0" type="line"/>
      <point x="254.53125" y="460.7945785522461" type="line"/>
      <point x="477.4592971801758" y="232.62879943847656" type="line"/>
      <point x="703.9575881958008" y="464.4486999511719" type="line"/>
      <point x="703.9575881958008" y="0" type="line"/>
      <point x="883.3325881958008" y="0" type="line"/>
      <point x="883.3325881958008" y="880.5833358764648" type="line"/>
      <point x="483.72879791259766" y="471.5907897949219" type="line"/>
      <point x="84.125" y="880.5833358764648" type="line"/>
    </contour>
  </outline>
</glyph>
<glyph name="N" format="2">
  <advance width="886.5052108764648"/>
  <unicode hex="004E"/>
  <anchor x="443.25260416666663" y="1002.0427073559308" name="top" identifier="top"/>
  <anchor x="443.25260416666663" y="-177.38315858191936" name="below" identifier="below"/>
  <anchor x="443.25260416666663" y="0" name="bottom" identifier="bottom"/>
  <anchor x="802.3802083333333" y="0" name="right" identifier="right"/>
  <anchor x="254.53124999999997" y="0" name="lefthook" identifier="lefthook"/>
  <outline>
    <contour>
      <point x="254.53125" y="479.8241882324219" type="line"/>
      <point x="802.3802108764648" y="-30.583335876464844" type="line"/>
      <point x="802.3802108764648" y="850" type="line"/>
      <point x="631.9739608764648" y="850" type="line"/>
      <point x="631.9739608764648" y="370.1758117675781" type="line"/>
      <point x="84.125" y="880.5833358764648" type="line"/>
      <point x="84.125" y="0" type="line"/>
      <point x="254.53125" y="0" type="line"/>
    </contour>
  </outline>
</glyph>
<glyph name="O" format="2">
  <advance width="931.9457435344827"/>
  <unicode hex="004F"/>
  <anchor x="465.9728717672414" y="1002.0427073559308" name="top" identifier="top"/>
  <anchor x="465.9728717672414" y="-177.38315858191936" name="below" identifier="below"/>
  <anchor x="465.9728717672414" y="425.0" name="stroke" identifier="stroke"/>
  <anchor x="696.1703125" y="647.0833333333334" name="horn" identifier="horn"/>
  <outline>
    <contour>
      <point x="912.8207435344827" y="425.0" type="curve" smooth="yes"/>
      <point x="912.8207435344827" y="671.6220520833745"/>
      <point x="712.5949238506158" y="865.0"/>
      <point x="465.9728717672414" y="865.0" type="curve" smooth="yes"/>
      <point x="219.35081968386692" y="865.0"/>
      <point x="19.125" y="671.6220520833745"/>
      <point x="19.125" y="425.0" type="curve" smooth="yes"/>
      <point x="19.125" y="178.37794791662552"/>
      <point x="219.35081968386692" y="-15.0"/>
      <point x="465.9728717672414" y="-15.0" type="curve" smooth="yes"/>
      <point x="712.5949238506158" y="-15.0"/>
      <point x="912.8207435344827" y="178.37794791662552"/>
    </contour>
    <contour>
      <point x="724.396875" y="425.0" type="curve" smooth="yes"/>
      <point x="724.396875" y="276.2039119733148"/>
      <point x="614.4558854862099" y="155.40625"/>
      <point x="465.9728717672414" y="155.40625" type="curve" smooth="yes"/>
      <point x="317.4898580482728" y="155.40625"/>
      <point x="207.54886853448272" y="276.2039119733148"/>
      <point x="207.54886853448272" y="425.0" type="curve" smooth="yes"/>
      <point x="207.54886853448272" y="573.7960880266852"/>
      <point x="317.4898580482728" y="694.59375"/>
      <point x="465.9728717672414" y="694.59375" type="curve" smooth="yes"/>
      <point x="614.4558854862099" y="694.59375"/>
      <point x="724.396875" y="573.7960880266852"/>
    </contour>
  </outline>
</glyph>
<glyph name="Q" format="2">
  <advance width="973.0004653930664"/>
  <unicode hex="0051"/>
  <outline>
    <contour>
      <point x="912.8207435344829" y="425.0" type="curve" smooth="yes"/>
      <point x="912.8207435344827" y="671.6220520833745"/>
      <point x="712.5949238506158" y="865.0"/>
      <point x="465.9728717672414" y="865.0" type="curve" smooth="yes"/>
      <point x="219.35081968386692" y="865.0"/>
      <point x="19.125" y="671.6220520833745"/>
      <point x="19.125" y="425.0" type="curve" smooth="yes"/>
      <point x="19.125" y="178.37794791662552"/>
      <point x="219.35081968386692" y="-15.0"/>
      <point x="465.9728717672414" y="-15.0" type="curve" smooth="yes"/>
      <point x="552.3946645024016" y="-15.0"/>
      <point x="633.1192050591447" y="8.745956903119673"/>
      <point x="701.5270462036133" y="50.20989990234375" type="curve"/>
      <point x="751.736946105957" y="0" type="line"/>
      <point x="987.8754653930664" y="0" type="line"/>
      <point x="825.5833969116211" y="162.2920684814453" type="line"/>
      <point x="880.4007980454588" y="235.1451188482032"/>
      <point x="912.8207435344827" y="325.761999084223"/>
    </contour>
    <contour>
      <point x="724.396875" y="425.0" type="curve" smooth="yes"/>
      <point x="724.396875" y="276.17467904127307"/>
      <point x="611.6674496488021" y="155.40625"/>
      <point x="465.9728717672414" y="155.40625" type="curve" smooth="yes"/>
      <point x="320.2782938856807" y="155.40625"/>
      <point x="207.54886853448272" y="276.17467904127307"/>
      <point x="207.54886853448272" y="425.0" type="curve" smooth="yes"/>
      <point x="207.54886853448272" y="573.8253209587269"/>
      <point x="320.2782938856807" y="694.59375"/>
      <point x="465.9728717672414" y="694.59375" type="curve" smooth="yes"/>
      <point x="611.6674496488021" y="694.59375"/>
      <point x="724.396875" y="573.8253209587269"/>
    </contour>
  </outline>
</glyph>
<glyph name="T" format="2">
  <advance width="654.6041641235352"/>
  <unicode hex="0054"/>
  <anchor x="327.30208333333337" y="1002.0427073559308" name="top" identifier="top"/>
  <anchor x="327.30208333333337" y="-177.38315858191936" name="below" identifier="below"/>
  <anchor x="327.30208333333337" y="0" name="bottom" identifier="bottom"/>
  <anchor x="327.30208333333337" y="380.15625" name="stroke" identifier="stroke"/>
  <outline>
    <contour>
      <point x="416.98958587646484" y="0" type="line"/>
      <point x="416.98958587646484" y="679.59375" type="line"/>
      <point x="630.4791641235352" y="679.59375" type="line"/>
      <point x="630.4791641235352" y="850" type="line"/>
      <point x="24.125" y="850" type="line"/>
      <point x="24.125" y="679.59375" type="line"/>
      <point x="237.61458587646484" y="679.59375" type="line"/>
      <point x="237.61458587646484" y="0" type="line"/>
    </contour>
  </outline>
</glyph>
<glyph name="U" format="2">
  <advance width="782.1636903105536"/>
  <unicode hex="0055"/>
  <anchor x="391.08184523809524" y="1002.0427073559308" name="top" identifier="top"/>
  <anchor x="391.08184523809524" y="-177.38315858191936" name="below" identifier="below"/>
  <anchor x="718.0386904761905" y="647.0833333333334" name="horn" identifier="horn"/>
  <outline>
    <contour>
      <point x="64.125" y="351.6551208496094" type="line"/>
      <point x="64.12500000000001" y="43.07289447320693"/>
      <point x="272.3639725199276" y="-14.999999999999986"/>
      <point x="391.0818452380952" y="-15.0" type="curve" smooth="yes"/>
      <point x="509.79971795626284" y="-15.0"/>
      <point x="718.0386913328055" y="43.07289472376169"/>
      <point x="718.0386903105536" y="351.65512110016414" type="curve"/>
      <point x="718.038688659668" y="850" type="line"/>
      <point x="538.663688659668" y="850" type="line"/>
      <point x="538.663688659668" y="348.16105541110625" type="line"/>
      <point x="538.663688659668" y="305.2953703378097"/>
      <point x="535.9074882241857" y="155.40624999999997"/>
      <point x="391.08184523809524" y="155.40624999999997" type="curve" smooth="yes"/>
      <point x="246.25620064632653" y="155.40625"/>
      <point x="243.5" y="305.2953638855684"/>
      <point x="243.5" y="348.16105061107373" type="curve"/>
      <point x="243.5" y="850" type="line"/>
      <point x="64.125" y="850" type="line"/>
    </contour>
  </outline>
</glyph>
<glyph name="V" format="2">
  <advance width="797.3422622680664"/>
  <unicode hex="0056"/>
  <anchor x="398.67113095238096" y="1002.0427073559308" name="top" identifier="top"/>
  <anchor x="398.67113095238096" y="-177.38315858191936" name="below" identifier="below"/>
  <outline>
    <contour>
      <point x="818.2172622680664" y="850" type="line"/>
      <point x="633.1819381713867" y="850" type="line"/>
      <point x="403.61358642578125" y="361.11395263671875" type="line"/>
      <point x="174.0452423095703" y="850" type="line"/>
      <point x="-20.875" y="850" type="line"/>
      <point x="398.67112731933594" y="-30.583335876464844" type="line"/>
    </contour>
  </outline>
</glyph>
<glyph name="W" format="2">
  <advance width="1148.0595245361328"/>
  <unicode hex="0057"/>
  <anchor x="574.0297619047619" y="1002.0427073559308" name="top" identifier="top"/>
  <anchor x="574.0297619047619" y="-177.38315858191936" name="below" identifier="below"/>
  <outline>
    <contour>
      <point x="1160.9345245361328" y="850" type="line"/>
      <point x="980.4026184082031" y="850" type="line"/>
      <point x="811.9266128540039" y="392.9395294189453" type="line"/>
      <point x="582.3815383911133" y="850" type="line"/>
      <point x="575.348762512207" y="850" type="line"/>
      <point x="345.8036880493164" y="392.9395294189453" type="line"/>
      <point x="177.3276824951172" y="850" type="line"/>
      <point x="-12.875" y="850" type="line"/>
      <point x="314.2870330810547" y="-30.583335876464844" type="line"/>
      <point x="574.0297622680664" y="483.0807189941406" type="line"/>
      <point x="833.7724914550781" y="-30.583335876464844" type="line"/>
    </contour>
  </outline>
</glyph>
<glyph name="X" format="2">
  <advance width="792.6855163574219"/>
  <unicode hex="0058"/>
  <anchor x="396.342758420914" y="1002.0427073559308" name="top" identifier="top"/>
  <outline>
    <contour>
      <point x="782.5605163574219" y="0" type="line"/>
      <point x="507.08519744873047" y="450.15816497802734" type="line"/>
      <point x="752.4409484863281" y="850" type="line"/>
      <point x="555.6451568603516" y="850" type="line"/>
      <point x="398.6400451660156" y="589.6349411010742" type="line"/>
      <point x="241.96691131591797" y="850" type="line"/>
      <point x="34.836158752441406" y="850" type="line"/>
      <point x="282.9261474609375" y="444.8456726074219" type="line"/>
      <point x="10.125" y="0" type="line"/>
      <point x="207.04498291015625" y="0" type="line"/>
      <point x="391.3702850341797" y="305.4831085205078" type="line"/>
      <point x="575.3058395385742" y="0" type="line"/>
    </contour>
  </outline>
</glyph>
<glyph name="Y" format="2">
  <advance width="777.7202377319336"/>
  <unicode hex="0059"/>
  <anchor x="388.86011904761904" y="1002.0427073559308" name="top" identifier="top"/>
  <anchor x="388.86011904761904" y="-177.38315858191936" name="below" identifier="below"/>
  <outline>
    <contour>
      <point x="299.17262268066406" y="0" type="line"/>
      <point x="478.54762268066406" y="0" type="line"/>
      <point x="478.54762268066406" y="340.4710235595703" type="line"/>
      <point x="772.5952377319336" y="850" type="line"/>
      <point x="578.7468338012695" y="850" type="line"/>
      <point x="394.00196075439453" y="527.392204284668" type="line"/>
      <point x="209.257080078125" y="850" type="line"/>
      <point x="5.125" y="850" type="line"/>
      <point x="299.17262268066406" y="340.4710159301758" type="line"/>
    </contour>
  </outline>
</glyph>
<glyph name="Z" format="2">
  <advance width="699.7470245361328"/>
  <unicode hex="005A"/>
  <anchor x="351.3735119047619" y="1002.0427073559308" name="top" identifier="top"/>
  <anchor x="351.3735119047619" y="-177.38315858191936" name="below" identifier="below"/>
  <anchor x="351.3735119047619" y="425.0" name="stroke" identifier="stroke"/>
  <outline>
    <contour>
      <point x="325.9786376953125" y="170.40625" type="line"/>
      <point x="660.6220245361328" y="850" type="line"/>
      <point x="57.125" y="850" type="line"/>
      <point x="57.125" y="679.59375" type="line"/>
      <point x="376.7683868408203" y="679.59375" type="line"/>
      <point x="42.125" y="0" type="line"/>
      <point x="655.6220245361328" y="0" type="line"/>
      <point x="655.6220245361328" y="170.40625" type="line"/>
    </contour>
  </outline>
</glyph>
<glyph name="bracketleft" format="2">
  <advance width="435.625"/>
  <unicode hex="005B"/>
  <outline>
    <contour>
      <point x="84.125" y="-119.84375" type="line"/>
      <point x="413.5" y="-119.84375" type="line"/>
      <point x="413.5" y="50.5625" type="line"/>
      <point x="263.5" y="50.5625" type="line"/>
      <point x="263.5" y="799.4375" type="line"/>
      <point x="413.5" y="799.4375" type="line"/>
      <point x="413.5" y="969.84375" type="line"/>
      <point x="84.125" y="969.84375" type="line"/>
    </contour>
  </outline>
</glyph>
<glyph name="backslash" format="2">
  <advance width="454.2921829223633"/>
  <unicode hex="005C"/>
  <outline>
    <contour>
      <point x="176.29833221435547" y="969.84375" type="line"/>
      <point x="-4.875" y="969.84375" type="line"/>
      <point x="254.9938507080078" y="0" type="line"/>
      <point x="436.1671829223633" y="0" type="line"/>
    </contour>
  </outline>
</glyph>
<glyph name="bracketright" format="2">
  <advance width="435.625"/>
  <unicode hex="005D"/>
  <outline>
    <contour>
      <point x="351.5" y="-119.84375" type="line"/>
      <point x="351.5" y="969.84375" type="line"/>
      <point x="22.125" y="969.84375" type="line"/>
      <point x="22.125" y="799.4375" type="line"/>
      <point x="172.125" y="799.4375" type="line"/>
      <point x="172.125" y="50.5625" type="line"/>
      <point x="22.125" y="50.5625" type="line"/>
      <point x="22.125" y="-119.84375" type="line"/>
    </contour>
  </outline>
</glyph>
<glyph name="power" format="2">
  <advance width="499.6994094848633"/>
  <unicode hex="005E"/>
  <outline>
    <contour>
      <point x="23.125" y="518.5416641235352" type="line"/>
      <point x="173.4209747314453" y="518.5416641235352" type="line"/>
      <point x="249.8497085571289" y="641.8879089355469" type="line"/>
      <point x="326.2784423828125" y="518.5416641235352" type="line"/>
      <point x="476.5744094848633" y="518.5416641235352" type="line"/>
      <point x="249.8497085571289" y="880.5833358764648" type="line"/>
    </contour>
  </outline>
</glyph>
<glyph name="underscore" format="2">
  <advance width="778.9196428571428"/>
  <unicode hex="005F"/>
  <outline>
    <contour>
      <point x="84.125" y="-259.125" type="line"/>
      <point x="694.7946428571428" y="-259.125" type="line"/>
      <point x="694.7946428571428" y="-84.125" type="line"/>
      <point x="84.125" y="-84.125" type="line"/>
    </contour>
  </outline>
</glyph>
<glyph name="grave" format="2">
  <advance width="456.5885314941406"/>
  <unicode hex="0060"/>
  <anchor x="308.0560280192017" y="1002.0427073559308" name="center" identifier="center"/>
  <anchor x="308.0560280192017" y="896.1677073559308" name="bottom" identifier="bottom"/>
  <outline>
    <contour>
      <point x="259.75040435791016" y="896.1677093505859" type="line"/>
      <point x="372.4635314941406" y="896.1677093505859" type="line"/>
      <point x="268.20831298828125" y="1102.334373474121" type="line"/>
      <point x="84.125" y="1102.334373474121" type="line"/>
    </contour>
  </outline>
</glyph>
<glyph name="b" format="2">
  <advance width="763.7636031648483"/>
  <unicode hex="0062"/>
  <anchor x="414.82999992182687" y="797.2269085819194" name="top" identifier="top"/>
  <anchor x="396.2585713503983" y="-177.38315858191936" name="below" identifier="below"/>
  <outline>
    <contour>
      <point x="84.125" y="0" type="line"/>
      <point x="249.75850677490234" y="0" type="line"/>
      <point x="249.75850677490234" y="33.16327667236328" type="line"/>
      <point x="294.1174048624962" y="2.776374365453929"/>
      <point x="347.77127871192556" y="-14.999999999999993"/>
      <point x="405.54428563611253" y="-15.0" type="curve"/>
      <point x="584.8735487751752" y="-15.0"/>
      <point x="729.6386031648483" y="130.59261186093744"/>
      <point x="729.6386031648483" y="309.921875" type="curve" smooth="yes"/>
      <point x="729.6386031648483" y="489.2511381390626"/>
      <point x="584.8735487751752" y="634.84375"/>
      <point x="405.5442856361126" y="634.84375" type="curve"/>
      <point x="350.5011490205294" y="634.84375"/>
      <point x="299.19707062016687" y="618.7076122735194"/>
      <point x="256.10851287841797" y="590.8972396850586" type="curve"/>
      <point x="256.10851287841797" y="894.84375" type="line"/>
      <point x="84.125" y="894.84375" type="line"/>
    </contour>
    <contour>
      <point x="552.2835097740438" y="309.921875" type="curve" smooth="yes"/>
      <point x="552.2835097740438" y="220.77184332952993"/>
      <point x="484.747348091523" y="148.38433728448274"/>
      <point x="399.04514770507814" y="148.38433728448274" type="curve" smooth="yes"/>
      <point x="313.34294731863326" y="148.38433728448274"/>
      <point x="245.80678563611258" y="220.77184332952993"/>
      <point x="245.80678563611258" y="309.921875" type="curve" smooth="yes"/>
      <point x="245.80678563611258" y="399.07190667047007"/>
      <point x="313.34294731863326" y="471.45941271551726"/>
      <point x="399.04514770507814" y="471.45941271551726" type="curve" smooth="yes"/>
      <point x="484.747348091523" y="471.45941271551726"/>
      <point x="552.2835097740438" y="399.07190667047007"/>
    </contour>
  </outline>
</glyph>
<glyph name="d" format="2">
  <advance width="763.7636031648483"/>
  <unicode hex="0064"/>
  <anchor x="348.93360324302137" y="797.2269085819194" name="top" identifier="top"/>
  <anchor x="367.5050318144499" y="-177.38315858191936" name="below" identifier="below"/>
  <anchor x="367.5050318144499" y="0" name="bottom" identifier="bottom"/>
  <anchor x="799.7489524390535" y="850" name="right" identifier="right"/>
  <anchor x="603.9485739942529" y="764.84375" name="stroke" identifier="stroke"/>
  <outline>
    <contour>
      <point x="514.005096389946" y="0" type="line"/>
      <point x="679.6386031648483" y="0" type="line"/>
      <point x="679.6386031648483" y="894.84375" type="line"/>
      <point x="507.6550902864303" y="894.84375" type="line"/>
      <point x="507.6550902864303" y="590.9008865356445" type="line"/>
      <point x="464.5665325446814" y="618.7076122735194"/>
      <point x="413.26245414431884" y="634.84375"/>
      <point x="358.2193175287356" y="634.84375" type="curve"/>
      <point x="178.89005438967294" y="634.84375"/>
      <point x="34.125000000000014" y="489.25113813906256"/>
      <point x="34.125" y="309.921875" type="curve" smooth="yes"/>
      <point x="34.125000000000014" y="130.5926118609374"/>
      <point x="178.89005438967305" y="-14.999999999999979"/>
      <point x="358.21931752873564" y="-15.0" type="curve"/>
      <point x="415.9923244529226" y="-15.0"/>
      <point x="469.6461983023521" y="2.7763743654539326"/>
      <point x="514.005096389946" y="33.15363311767578" type="curve"/>
    </contour>
    <contour>
      <point x="517.9568175287357" y="309.921875" type="curve" smooth="yes"/>
      <point x="517.9568175287357" y="220.77184332952993"/>
      <point x="450.42065584621497" y="148.38433728448274"/>
      <point x="364.7184554597701" y="148.38433728448274" type="curve" smooth="yes"/>
      <point x="279.0162550733252" y="148.38433728448274"/>
      <point x="211.48009339080454" y="220.77184332952993"/>
      <point x="211.48009339080454" y="309.921875" type="curve" smooth="yes"/>
      <point x="211.48009339080454" y="399.07190667047007"/>
      <point x="279.0162550733252" y="471.45941271551726"/>
      <point x="364.7184554597701" y="471.45941271551726" type="curve" smooth="yes"/>
      <point x="450.42065584621497" y="471.45941271551726"/>
      <point x="517.9568175287357" y="399.07190667047007"/>
    </contour>
  </outline>
</glyph>
<glyph name="f" format="2">
  <advance width="525.9248504638672"/>
  <unicode hex="0066"/>
  <anchor x="306.59024354853295" y="1013.9076162100974" name="top" identifier="top"/>
  <outline>
    <contour>
      <point x="116.57734680175781" y="0" type="line"/>
      <point x="288.5608596801758" y="0" type="line"/>
      <point x="288.5608596801758" y="458.1425552368164" type="line"/>
      <point x="476.7998504638672" y="458.1425552368164" type="line"/>
      <point x="476.7998504638672" y="619.84375" type="line"/>
      <point x="288.5608596801758" y="619.84375" type="line"/>
      <point x="288.63047790527344" y="676.0063247680664" type="line"/>
      <point x="291.0497174809184" y="714.3569913069531"/>
      <point x="322.8420569612694" y="743.0177460488507"/>
      <point x="361.6981044501134" y="743.0177460488507" type="curve"/>
      <point x="391.44097205002976" y="743.0177460488505"/>
      <point x="443.15586210605375" y="737.3558289209063"/>
      <point x="491.7998504638672" y="702.9179077148438" type="curve"/>
      <point x="491.7998504638672" y="871.7410278320312" type="line"/>
      <point x="439.70558240824437" y="899.0899519199279"/>
      <point x="383.7803154403064" y="904.84375"/>
      <point x="346.2897711167801" y="904.84375" type="curve"/>
      <point x="244.40658475821965" y="904.84375"/>
      <point x="116.57734154933354" y="850.2655702086784"/>
      <point x="116.57734666128303" y="626.0063244047619" type="curve"/>
      <point x="116.57734680175781" y="619.84375" type="line"/>
      <point x="24.125" y="619.84375" type="line"/>
      <point x="24.125" y="458.1425552368164" type="line"/>
      <point x="116.57734680175781" y="458.1425552368164" type="line"/>
    </contour>
  </outline>
</glyph>
<glyph name="h" format="2">
  <advance width="721.3975067138672"/>
  <unicode hex="0068"/>
  <anchor x="372.1987537202381" y="1002.0427073559308" name="top" identifier="top"/>
  <anchor x="372.1987537202381" y="-177.38315858191936" name="below" identifier="below"/>
  <anchor x="170.11675646551723" y="1002.0427073559308" name="stem" identifier="stem"/>
  <anchor x="170.11675646551723" y="764.84375" name="stroke" identifier="stroke"/>
  <anchor x="170.11675646551723" y="0" name="bottom" identifier="bottom"/>
  <outline>
    <contour>
      <point x="84.125" y="0" type="line"/>
      <point x="256.10851287841797" y="0" type="line"/>
      <point x="256.10851287841797" y="312.68684266240626" type="line"/>
      <point x="256.10851287841797" y="356.3077597603198"/>
      <point x="256.10851297246694" y="478.2176834404727"/>
      <point x="368.65530030726245" y="478.2176834404727" type="curve" smooth="yes"/>
      <point x="481.20208764205796" y="478.2176834404727"/>
      <point x="481.2020876867782" y="356.30775637682746"/>
      <point x="481.2020876519564" y="312.68683547376185" type="curve"/>
      <point x="481.20208740234375" y="0" type="line"/>
      <point x="660.2725067138672" y="0" type="line"/>
      <point x="660.2725067138672" y="326.74058532714844" type="line"/>
      <point x="660.2725067138672" y="602.0154947997906"/>
      <point x="489.9611301292273" y="634.84375"/>
      <point x="410.6682650085746" y="634.84375" type="curve"/>
      <point x="352.7839045568005" y="634.84375"/>
      <point x="299.2993575245357" y="615.8560821912953"/>
      <point x="256.10851287841797" y="583.7714157104492" type="curve"/>
      <point x="256.10851287841797" y="894.84375" type="line"/>
      <point x="84.125" y="894.84375" type="line"/>
    </contour>
  </outline>
</glyph>
<glyph name="i" format="2">
  <advance width="358.23351293103445"/>
  <unicode hex="0069"/>
  <anchor x="179.11675646551723" y="-177.38315858191936" name="below" identifier="below"/>
  <anchor x="268.5853448275862" y="0" name="ogonek" identifier="ogonek"/>
  <outline>
    <contour>
      <point x="285.10851293103445" y="797.2269085819194" type="curve" smooth="yes"/>
      <point x="285.10851293103445" y="855.7253509714204"/>
      <point x="237.6151988550183" y="903.2186650474366"/>
      <point x="179.11675646551723" y="903.2186650474366" type="curve" smooth="yes"/>
      <point x="120.61831407601616" y="903.2186650474366"/>
      <point x="73.125" y="855.7253509714204"/>
      <point x="73.125" y="797.2269085819194" type="curve" smooth="yes"/>
      <point x="73.12499999999999" y="738.7284661924183"/>
      <point x="120.61831407601613" y="691.2351521164021"/>
      <point x="179.1167564655172" y="691.2351521164021" type="curve" smooth="yes"/>
      <point x="237.61519885501826" y="691.2351521164021"/>
      <point x="285.10851293103445" y="738.7284661924183"/>
    </contour>
    <contour>
      <point x="89.64816810344827" y="0" type="line"/>
      <point x="268.5853448275862" y="0" type="line"/>
      <point x="268.5853448275862" y="619.84375" type="line"/>
      <point x="89.64816810344827" y="619.84375" type="line"/>
    </contour>
  </outline>
</glyph>
<glyph name="j" format="2">
  <advance width="388.28773503796805"/>
  <unicode hex="006A"/>
  <outline>
    <contour>
      <point x="317.16273503796805" y="797.2269085819194" type="curve" smooth="yes"/>
      <point x="317.16273503796805" y="855.7253509714204"/>
      <point x="269.6694209619519" y="903.2186650474366"/>
      <point x="211.17097857245085" y="903.2186650474366" type="curve" smooth="yes"/>
      <point x="152.67253618294978" y="903.2186650474366"/>
      <point x="105.1792221069336" y="855.7253509714204"/>
      <point x="105.1792221069336" y="797.2269085819194" type="curve" smooth="yes"/>
      <point x="105.1792221069336" y="738.7284661924183"/>
      <point x="152.67253618294973" y="691.2351521164021"/>
      <point x="211.1709785724508" y="691.2351521164021" type="curve" smooth="yes"/>
      <point x="269.66942096195186" y="691.2351521164021"/>
      <point x="317.16273503796805" y="738.7284661924183"/>
    </contour>
    <contour>
      <point x="33.19175289511094" y="-139.0652460488506" type="curve"/>
      <point x="1.9766600577773374" y="-139.06524604885058"/>
      <point x="-48.71350291531644" y="-132.28566055461695"/>
      <point x="-97.875" y="-96.00015258789062" type="curve"/>
      <point x="-97.875" y="-262.73236083984375" type="line"/>
      <point x="-56.62945640470234" y="-287.7694853658184"/>
      <point x="-7.259673822353392" y="-302.34375"/>
      <point x="45.77508622844425" y="-302.34375000000006" type="curve"/>
      <point x="129.9405312664319" y="-302.34375"/>
      <point x="297.1627350539846" y="-268.7828018786348"/>
      <point x="297.1627350341063" y="-11.40868739737273" type="curve"/>
      <point x="297.16273498535156" y="619.84375" type="line"/>
      <point x="125.1792221069336" y="619.84375" type="line"/>
      <point x="125.1792221069336" y="-4.304317349016113" type="line"/>
      <point x="125.1792221069336" y="-67.04789378717162"/>
      <point x="125.06894905111199" y="-139.0652460488506"/>
    </contour>
  </outline>
</glyph>
<glyph name="k" format="2">
  <advance width="687.4967956542969"/>
  <unicode hex="006B"/>
  <anchor x="338.8772941468254" y="1002.0427073559308" name="top" identifier="top"/>
  <anchor x="346.37000868055554" y="0" name="bottom" identifier="bottom"/>
  <anchor x="346.37000868055554" y="-177.38315858191936" name="below" identifier="below"/>
  <anchor x="170.11675646551723" y="1002.0427073559308" name="stem" identifier="stem"/>
  <outline>
    <contour>
      <point x="84.125" y="0" type="line"/>
      <point x="256.10851287841797" y="0" type="line"/>
      <point x="256.10851287841797" y="167.16252899169922" type="line"/>
      <point x="294.24755859375" y="207.7601089477539" type="line"/>
      <point x="489.14012145996094" y="0" type="line"/>
      <point x="716.3717956542969" y="0" type="line"/>
      <point x="407.1344757080078" y="327.9239807128906" type="line"/>
      <point x="681.3759994506836" y="619.84375" type="line"/>
      <point x="467.4208679199219" y="619.84375" type="line"/>
      <point x="256.10851287841797" y="393.62999725341797" type="line"/>
      <point x="256.10851287841797" y="894.84375" type="line"/>
      <point x="84.125" y="894.84375" type="line"/>
    </contour>
  </outline>
</glyph>
<glyph name="l" format="2">
  <advance width="347.1871767241379"/>
  <unicode hex="006C"/>
  <anchor x="173.59358836206894" y="1002.0427073559308" name="top" identifier="top"/>
  <anchor x="173.59358836206894" y="0" name="bottom" identifier="bottom"/>
  <anchor x="173.59358836206894" y="-177.38315858191936" name="below" identifier="below"/>
  <anchor x="372.8707987034213" y="850" name="right" identifier="right"/>
  <anchor x="173.59358836206894" y="447.421875" name="stroke" identifier="stroke"/>
  <anchor x="488.28776939655165" y="447.421875" name="dotmiddle" identifier="dotmiddle"/>
  <outline>
    <contour>
      <point x="84.125" y="0" type="line"/>
      <point x="263.0621767241379" y="0" type="line"/>
      <point x="263.0621767241379" y="894.84375" type="line"/>
      <point x="84.125" y="894.84375" type="line"/>
    </contour>
  </outline>
</glyph>
<glyph name="o" format="2">
  <advance width="733.96875"/>
  <unicode hex="006F"/>
  <anchor x="366.984375" y="797.2269085819194" name="top" identifier="top"/>
  <anchor x="366.984375" y="-177.38315858191936" name="below" identifier="below"/>
  <anchor x="366.984375" y="309.921875" name="stroke" identifier="stroke"/>
  <anchor x="553.4227370689655" y="416.92708333333337" name="horn" identifier="horn"/>
  <outline>
    <contour>
      <point x="699.84375" y="309.921875" type="curve" smooth="yes"/>
      <point x="699.84375" y="493.6319636103125"/>
      <point x="550.6944636103125" y="634.84375"/>
      <point x="366.984375" y="634.84375" type="curve" smooth="yes"/>
      <point x="183.2742863896875" y="634.84375"/>
      <point x="34.125" y="493.6319636103125"/>
      <point x="34.125" y="309.921875" type="curve" smooth="yes"/>
      <point x="34.125" y="126.21178638968749"/>
      <point x="183.2742863896875" y="-15.0"/>
      <point x="366.984375" y="-15.0" type="curve" smooth="yes"/>
      <point x="550.6944636103125" y="-15.0"/>
      <point x="699.84375" y="126.21178638968749"/>
    </contour>
    <contour>
      <point x="519.9227370689655" y="309.921875" type="curve" smooth="yes"/>
      <point x="519.9227370689655" y="220.75172989803605"/>
      <point x="452.56163748390264" y="148.38433728448274"/>
      <point x="366.984375" y="148.38433728448274" type="curve" smooth="yes"/>
      <point x="281.40711251609736" y="148.38433728448274"/>
      <point x="214.04601293103445" y="220.75172989803605"/>
      <point x="214.04601293103445" y="309.921875" type="curve" smooth="yes"/>
      <point x="214.04601293103445" y="399.09202010196395"/>
      <point x="281.40711251609736" y="471.45941271551726"/>
      <point x="366.984375" y="471.45941271551726" type="curve" smooth="yes"/>
      <point x="452.56163748390264" y="471.45941271551726"/>
      <point x="519.9227370689655" y="399.09202010196395"/>
    </contour>
  </outline>
</glyph>
<glyph name="p" format="2">
  <advance width="758.7636031648483"/>
  <unicode hex="0070"/>
  <anchor x="409.82999992182687" y="797.2269085819194" name="top" identifier="top"/>
  <outline>
    <contour>
      <point x="79.125" y="-294.84375" type="line"/>
      <point x="251.10851287841797" y="-294.84375" type="line"/>
      <point x="251.10851287841797" y="28.94286346435547" type="line"/>
      <point x="294.19707062016687" y="1.136137726480527"/>
      <point x="345.50114902052934" y="-15.000000000000021"/>
      <point x="400.5442856361126" y="-15.000000000000028" type="curve"/>
      <point x="579.8735487751752" y="-15.0"/>
      <point x="724.6386031648483" y="130.59261186093744"/>
      <point x="724.6386031648483" y="309.921875" type="curve" smooth="yes"/>
      <point x="724.6386031648483" y="489.2511381390626"/>
      <point x="579.8735487751752" y="634.84375"/>
      <point x="400.5442856361126" y="634.84375" type="curve"/>
      <point x="342.77127871192556" y="634.84375"/>
      <point x="289.11740486249624" y="617.067375634546"/>
      <point x="244.75850677490234" y="586.6901168823242" type="curve"/>
      <point x="244.75850677490234" y="619.84375" type="line"/>
      <point x="79.125" y="619.84375" type="line"/>
    </contour>
    <contour>
      <point x="547.2835097740438" y="309.921875" type="curve" smooth="yes"/>
      <point x="547.2835097740438" y="220.77184332952993"/>
      <point x="479.747348091523" y="148.38433728448274"/>
      <point x="394.04514770507814" y="148.38433728448274" type="curve" smooth="yes"/>
      <point x="308.34294731863326" y="148.38433728448274"/>
      <point x="240.80678563611258" y="220.77184332952993"/>
      <point x="240.80678563611258" y="309.921875" type="curve" smooth="yes"/>
      <point x="240.80678563611258" y="399.07190667047007"/>
      <point x="308.34294731863326" y="471.45941271551726"/>
      <point x="394.04514770507814" y="471.45941271551726" type="curve" smooth="yes"/>
      <point x="479.747348091523" y="471.45941271551726"/>
      <point x="547.2835097740438" y="399.07190667047007"/>
    </contour>
  </outline>
</glyph>
<glyph name="q" format="2">
  <advance width="758.7636031648483"/>
  <unicode hex="0071"/>
  <outline>
    <contour>
      <point x="507.6550902864303" y="-294.84375" type="line"/>
      <point x="679.6386031648483" y="-294.84375" type="line"/>
      <point x="679.6386031648483" y="619.84375" type="line"/>
      <point x="514.005096389946" y="619.84375" type="line"/>
      <point x="514.005096389946" y="584.5101547241211" type="line"/>
      <point x="470.1804056465555" y="616.180601058774"/>
      <point x="416.36216961802586" y="634.84375"/>
      <point x="358.21931752873564" y="634.84375" type="curve"/>
      <point x="178.890054389673" y="634.84375"/>
      <point x="34.125000000000014" y="489.25113813906256"/>
      <point x="34.125" y="309.921875" type="curve" smooth="yes"/>
      <point x="34.125000000000014" y="130.5926118609374"/>
      <point x="178.89005438967305" y="-14.999999999999979"/>
      <point x="358.21931752873564" y="-15.0" type="curve"/>
      <point x="413.5839034459101" y="-15.0"/>
      <point x="465.02728925339613" y="1.9221823734798669"/>
      <point x="507.6550902864303" y="30.884918212890625" type="curve"/>
    </contour>
    <contour>
      <point x="517.9568175287357" y="309.921875" type="curve" smooth="yes"/>
      <point x="517.9568175287357" y="220.77184332952993"/>
      <point x="450.42065584621497" y="148.38433728448274"/>
      <point x="364.7184554597701" y="148.38433728448274" type="curve" smooth="yes"/>
      <point x="279.0162550733252" y="148.38433728448274"/>
      <point x="211.48009339080454" y="220.77184332952993"/>
      <point x="211.48009339080454" y="309.921875" type="curve" smooth="yes"/>
      <point x="211.48009339080454" y="399.07190667047007"/>
      <point x="279.0162550733252" y="471.45941271551726"/>
      <point x="364.7184554597701" y="471.45941271551726" type="curve" smooth="yes"/>
      <point x="450.42065584621497" y="471.45941271551726"/>
      <point x="517.9568175287357" y="399.07190667047007"/>
    </contour>
  </outline>
</glyph>
<glyph name="r" format="2">
  <advance width="502.66402435302734"/>
  <unicode hex="0072"/>
  <anchor x="286.8320128910125" y="797.2269085819194" name="top" identifier="top"/>
  <anchor x="171.11675646551723" y="0" name="bottom" identifier="bottom"/>
  <anchor x="257.10851293103445" y="-177.38315858191936" name="below" identifier="below"/>
  <outline>
    <contour>
      <point x="85.125" y="0" type="line"/>
      <point x="257.10851287841797" y="0" type="line"/>
      <point x="257.10851287841797" y="297.7869927728443" type="line"/>
      <point x="257.10851287841797" y="339.5443970746059"/>
      <point x="259.72403409802786" y="463.95941271551726"/>
      <point x="378.96473527298843" y="463.95941271551726" type="curve"/>
      <point x="409.8406419371682" y="463.95941271551726"/>
      <point x="448.9426996871937" y="457.9407635090961"/>
      <point x="488.53902435302734" y="436.87699127197266" type="curve"/>
      <point x="488.53902435302734" y="606.1059951782227" type="line"/>
      <point x="449.51712321051025" y="622.3673108317635"/>
      <point x="412.170612372008" y="627.3437499999999"/>
      <point x="381.50438667385043" y="627.3437499999999" type="curve"/>
      <point x="331.03871899123783" y="627.34375"/>
      <point x="285.0859518431039" y="607.8680477298872"/>
      <point x="250.75851440429688" y="576.022590637207" type="curve"/>
      <point x="250.75851440429688" y="619.84375" type="line"/>
      <point x="85.125" y="619.84375" type="line"/>
    </contour>
  </outline>
</glyph>
<glyph name="u" format="2">
  <advance width="730.3975067138672"/>
  <unicode hex="0075"/>
  <anchor x="357.1987537202381" y="797.2269085819194" name="top" identifier="top"/>
  <anchor x="357.1987537202381" y="-177.38315858191936" name="below" identifier="below"/>
  <anchor x="645.2725074404761" y="0" name="ogonek" identifier="ogonek"/>
  <anchor x="643.1227135288382" y="416.92708333333337" name="horn" identifier="horn"/>
  <outline>
    <contour>
      <point x="69.125" y="293.10316467285156" type="line"/>
      <point x="69.12500000000001" y="26.817082521628663"/>
      <point x="225.03527298708843" y="-14.99999999999999"/>
      <point x="315.8962682939705" y="-15.0" type="curve"/>
      <point x="379.15642961256935" y="-15.0"/>
      <point x="436.7350244083573" y="9.51915081732566"/>
      <point x="479.6389923095703" y="49.56884765625" type="curve"/>
      <point x="479.6389923095703" y="0" type="line"/>
      <point x="645.2725067138672" y="0" type="line"/>
      <point x="645.2725067138672" y="619.84375" type="line"/>
      <point x="469.74554443359375" y="619.84375" type="line"/>
      <point x="469.74554443359375" y="307.15690962798124" type="line"/>
      <point x="469.74554443359375" y="263.5359902396802"/>
      <point x="469.7455410550336" y="141.62606655952723"/>
      <point x="357.1987537202381" y="141.6260665595273" type="curve" smooth="yes"/>
      <point x="244.65196638544256" y="141.62606655952735"/>
      <point x="244.65196630231276" y="263.53599362317254"/>
      <point x="244.65196674394264" y="307.1569145262382" type="curve"/>
      <point x="244.65196990966797" y="619.84375" type="line"/>
      <point x="69.125" y="619.84375" type="line"/>
    </contour>
  </outline>
</glyph>
<glyph name="v" format="2">
  <advance width="738.3695297241211"/>
  <unicode hex="0076"/>
  <anchor x="369.184765625" y="797.2269085819194" name="top" identifier="top"/>
  <anchor x="369.184765625" y="-177.38315858191936" name="below" identifier="below"/>
  <outline>
    <contour>
      <point x="717.2445297241211" y="619.84375" type="line"/>
      <point x="535.1120910644531" y="619.84375" type="line"/>
      <point x="374.01668548583984" y="316.4171447753906" type="line"/>
      <point x="212.9212875366211" y="619.84375" type="line"/>
      <point x="21.125" y="619.84375" type="line"/>
      <point x="369.1847686767578" y="-30.583335876464844" type="line"/>
    </contour>
  </outline>
</glyph>
<glyph name="x" format="2">
  <advance width="681.273811340332"/>
  <unicode hex="0078"/>
  <anchor x="340.6369065784273" y="797.2269085819194" name="top" identifier="top"/>
  <outline>
    <contour>
      <point x="664.148811340332" y="0" type="line"/>
      <point x="442.5657272338867" y="324.0769271850586" type="line"/>
      <point x="645.9695205688477" y="619.84375" type="line"/>
      <point x="454.13323974609375" y="619.84375" type="line"/>
      <point x="341.6326141357422" y="452.51708984375" type="line"/>
      <point x="229.7257308959961" y="619.84375" type="line"/>
      <point x="28.003890991210938" y="619.84375" type="line"/>
      <point x="235.0975570678711" y="317.1138229370117" type="line"/>
      <point x="17.125" y="0" type="line"/>
      <point x="209.0603790283203" y="0" type="line"/>
      <point x="336.02943420410156" y="188.75132751464844" type="line"/>
      <point x="462.32838439941406" y="0" type="line"/>
    </contour>
  </outline>
</glyph>
<glyph name="y" format="2">
  <advance width="759.3087539672852"/>
  <unicode hex="0079"/>
  <anchor x="382.7448957897368" y="797.2269085819194" name="top" identifier="top"/>
  <anchor x="560.4643247331892" y="-177.38315858191936" name="below" identifier="below"/>
  <outline>
    <contour>
      <point x="387.4806137084961" y="248.8812713623047" type="line"/>
      <point x="212.5029754638672" y="619.84375" type="line"/>
      <point x="21.125" y="619.84375" type="line"/>
      <point x="292.69110107421875" y="47.97642517089844" type="line"/>
      <point x="131.28775787353516" y="-294.84375" type="line"/>
      <point x="311.24497985839844" y="-294.84375" type="line"/>
      <point x="738.1837539672852" y="619.84375" type="line"/>
      <point x="559.4674224853516" y="619.84375" type="line"/>
    </contour>
  </outline>
</glyph>
<glyph name="z" format="2">
  <advance width="647.4525451660156"/>
  <unicode hex="007A"/>
  <anchor x="324.77976190476187" y="797.2269085819194" name="top" identifier="top"/>
  <anchor x="324.77976190476187" y="-177.38315858191936" name="below" identifier="below"/>
  <anchor x="324.77976190476187" y="309.921875" name="stroke" identifier="stroke"/>
  <outline>
    <contour>
      <point x="334.3195343017578" y="163.38433837890625" type="line"/>
      <point x="602.3275451660156" y="619.84375" type="line"/>
      <point x="74.57758331298828" y="619.84375" type="line"/>
      <point x="74.57758331298828" y="461.7510757446289" type="line"/>
      <point x="315.239990234375" y="461.7510757446289" type="line"/>
      <point x="44.125" y="0" type="line"/>
      <point x="589.9819412231445" y="0" type="line"/>
      <point x="589.9819412231445" y="163.38433837890625" type="line"/>
    </contour>
  </outline>
</glyph>
<glyph name="braceleft" format="2">
  <advance width="362.47098541259766"/>
  <unicode hex="007B"/>
  <outline>
    <contour>
      <point x="315.34598541259766" y="33.479164123535156" type="line" smooth="yes"/>
      <point x="300.1750853510411" y="33.479165754479325"/>
      <point x="273.8031993295761" y="42.1169960185886"/>
      <point x="273.8031994330112" y="96.63909740863339" type="curve"/>
      <point x="273.8031996801679" y="226.91893996317714" type="line"/>
      <point x="273.80319981140855" y="296.0977371808028"/>
      <point x="273.8031990342537" y="370.9988805375232"/>
      <point x="192.04965209960938" y="425.0067367553711" type="curve"/>
      <point x="273.8031991124979" y="478.9922235877432"/>
      <point x="273.8031993614344" y="553.9099389485924"/>
      <point x="273.80319949266044" y="623.0810587869231" type="curve"/>
      <point x="273.80319973981716" y="753.3609020674243" type="line"/>
      <point x="273.80319984325223" y="807.8830036181068"/>
      <point x="300.1750820813005" y="816.5208333333333"/>
      <point x="315.3459821428571" y="816.5208333333333" type="curve"/>
      <point x="315.34598541259766" y="969.84375" type="line"/>
      <point x="310.34598541259766" y="969.84375" type="line"/>
      <point x="101.69230910190655" y="969.84375"/>
      <point x="94.42819935570208" y="794.1116257691832"/>
      <point x="94.42819949961802" y="718.2514880952381" type="curve"/>
      <point x="94.42819973208742" y="595.7135523502388" type="line"/>
      <point x="94.42819988482628" y="515.2027087788485"/>
      <point x="47.055027111156974" y="505.203125"/>
      <point x="25.125000000000014" y="505.203125" type="curve"/>
      <point x="25.125" y="344.796875" type="line" smooth="yes"/>
      <point x="47.05502711115696" y="344.796875"/>
      <point x="94.42819928800202" y="334.797291584456"/>
      <point x="94.42819944074091" y="254.28644854383953" type="curve"/>
      <point x="94.42819967321032" y="131.7485122680664" type="line"/>
      <point x="94.42820013205616" y="-110.11568530101272"/>
      <point x="244.29407066508708" y="-119.84374999999999"/>
      <point x="310.34598541259766" y="-119.84375" type="curve" smooth="yes"/>
      <point x="315.34598541259766" y="-119.84375" type="line"/>
    </contour>
  </outline>
</glyph>
<glyph name="bar" format="2">
  <advance width="343.25"/>
  <unicode hex="007C"/>
  <outline>
    <contour>
      <point x="84.125" y="-119.84375" type="line"/>
      <point x="259.125" y="-119.84375" type="line"/>
      <point x="259.125" y="969.84375" type="line"/>
      <point x="84.125" y="969.84375" type="line"/>
    </contour>
  </outline>
</glyph>
<glyph name="braceright" format="2">
  <advance width="362.47098541259766"/>
  <unicode hex="007D"/>
  <outline>
    <contour>
      <point x="47.12500326974052" y="33.47916666666674" type="curve"/>
      <point x="47.125" y="-119.84375" type="line"/>
      <point x="52.125" y="-119.84375" type="line"/>
      <point x="260.77867631069114" y="-119.84375"/>
      <point x="268.0427860568956" y="55.88837423081684"/>
      <point x="268.04278591297964" y="131.74851190476193" type="curve"/>
      <point x="268.04278568051024" y="254.2864476497612" type="line"/>
      <point x="268.04278552777134" y="334.7972912211515"/>
      <point x="315.4159583014407" y="344.796875"/>
      <point x="337.34598541259766" y="344.796875" type="curve"/>
      <point x="337.34598541259766" y="505.203125" type="line" smooth="yes"/>
      <point x="315.4159583014407" y="505.203125"/>
      <point x="268.04278612459564" y="515.202708415544"/>
      <point x="268.04278597185674" y="595.7135514561604" type="curve"/>
      <point x="268.04278573938734" y="718.2514877319336" type="line"/>
      <point x="268.04278528054147" y="960.1156853010127"/>
      <point x="118.17691474751058" y="969.84375"/>
      <point x="52.125" y="969.84375" type="curve" smooth="yes"/>
      <point x="47.125" y="969.84375" type="line"/>
      <point x="47.125" y="816.5208358764648" type="line" smooth="yes"/>
      <point x="62.29590006155655" y="816.5208342455206"/>
      <point x="88.66778608302158" y="807.8830039814114"/>
      <point x="88.6677859795865" y="753.3609025913667" type="curve"/>
      <point x="88.66778573242975" y="623.0810600368229" type="line"/>
      <point x="88.66778560118912" y="553.9022628191972"/>
      <point x="88.66778637834402" y="479.0011194624769"/>
      <point x="170.42133331298828" y="424.9932632446289" type="curve"/>
      <point x="88.66778630009975" y="371.0077764122568"/>
      <point x="88.66778605116329" y="296.09006105140764"/>
      <point x="88.66778591993724" y="226.91894121307672" type="curve"/>
      <point x="88.66778567278051" y="96.63909793257564" type="line"/>
      <point x="88.66778556934543" y="42.11699638189304"/>
      <point x="62.295903331297126" y="33.47916666666674"/>
    </contour>
  </outline>
</glyph>
<glyph name="tilde" format="2">
  <advance width="768.9375"/>
  <unicode hex="007E"/>
  <outline>
    <contour>
      <point x="251.89286041259766" y="391.5145408163266" type="curve"/>
      <point x="280.8599307583157" y="391.5145408163265"/>
      <point x="293.45118906427757" y="383.6302128551925"/>
      <point x="327.0144216454764" y="361.16781145662867" type="curve"/>
      <point x="332.53842775852877" y="357.47083613283314" type="line"/>
      <point x="398.48036708729165" y="313.3387845904514"/>
      <point x="450.39694311613505" y="283.48545918367336"/>
      <point x="526.0446461268834" y="283.4854591836734" type="curve"/>
      <point x="596.1845546244936" y="283.4854591836734"/>
      <point x="660.2241106761984" y="309.81190867474936"/>
      <point x="708.8125" y="353.1291809082031" type="curve"/>
      <point x="708.8125" y="550.6983642578125" type="line"/>
      <point x="667.3849068232462" y="494.7628548934161"/>
      <point x="600.9178728847511" y="458.4854591836734"/>
      <point x="526.0446461268834" y="458.48545918367336" type="curve"/>
      <point x="497.07757578116536" y="458.4854591836735"/>
      <point x="484.4863159951337" y="466.3697812545028"/>
      <point x="450.9230848780208" y="488.83218484069795" type="curve"/>
      <point x="445.39907805826175" y="492.5291611587812" type="line"/>
      <point x="379.4571416059997" y="536.661216999219"/>
      <point x="327.54056342334616" y="566.5145408163268"/>
      <point x="251.8928604125977" y="566.5145408163265" type="curve"/>
      <point x="181.75295191498756" y="566.5145408163265"/>
      <point x="117.7133884300263" y="540.1880846983917"/>
      <point x="69.125" y="496.87081146240234" type="curve"/>
      <point x="69.125" y="299.30162048339844" type="line"/>
      <point x="110.55259010181037" y="355.2371321251943"/>
      <point x="177.01963365472994" y="391.5145408163266"/>
    </contour>
  </outline>
</glyph>
<glyph name="inv_exclamation" format="2">
  <advance width="346.2564697265625"/>
  <unicode hex="00A1"/>
  <outline>
    <contour>
      <point x="65.66469319661458" y="527.3802083333334" type="curve" smooth="yes"/>
      <point x="65.66469319661458" y="468.0694655851042"/>
      <point x="113.81749211505206" y="419.9166666666667"/>
      <point x="173.12823486328122" y="419.9166666666667" type="curve" smooth="yes"/>
      <point x="232.43897761151038" y="419.9166666666667"/>
      <point x="280.5917765299479" y="468.0694655851042"/>
      <point x="280.5917765299479" y="527.3802083333334" type="curve" smooth="yes"/>
      <point x="280.59177652994794" y="586.6909510815625"/>
      <point x="232.43897761151044" y="634.84375"/>
      <point x="173.12823486328128" y="634.84375" type="curve" smooth="yes"/>
      <point x="113.81749211505212" y="634.84375"/>
      <point x="65.6646931966146" y="586.6909510815625"/>
    </contour>
    <contour>
      <point x="98.43732452392578" y="367.7501983642578" type="line"/>
      <point x="64.125" y="-245.15625" type="line"/>
      <point x="282.1314697265625" y="-245.15625" type="line"/>
      <point x="247.81914520263672" y="367.7501983642578" type="line"/>
    </contour>
  </outline>
</glyph>
<glyph name="cent" format="2">
  <advance width="549.3636932373047"/>
  <unicode hex="00A2"/>
  <outline>
    <contour>
      <point x="245.91871643066406" y="0" type="line"/>
      <point x="425.29371643066406" y="0" type="line"/>
      <point x="425.29371643066406" y="106.15036010742188" type="line"/>
      <point x="460.5901549846284" y="112.63080428569816"/>
      <point x="493.8869068641808" y="124.15903130487351"/>
      <point x="524.2386932373047" y="140.04985809326172" type="curve"/>
      <point x="524.2386932373047" y="320.5279846191406" type="line"/>
      <point x="478.59000445641664" y="288.9821142041198"/>
      <point x="423.1142770712147" y="270.48437499999994"/>
      <point x="363.3197544642859" y="270.4843749999999" type="curve"/>
      <point x="277.8894444095491" y="270.484375"/>
      <point x="208.54166666666669" y="339.61388973850353"/>
      <point x="208.54166666666669" y="425.0" type="curve" smooth="yes"/>
      <point x="208.54166666666669" y="510.3861102614965"/>
      <point x="277.8894444095492" y="579.515625"/>
      <point x="363.3197544642857" y="579.515625" type="curve"/>
      <point x="423.1143128862707" y="579.515625"/>
      <point x="478.5900702259478" y="561.0178639386162"/>
      <point x="524.2386932373047" y="529.4719390869141" type="curve"/>
      <point x="524.2386932373047" y="709.9484558105469" type="line"/>
      <point x="493.88690689032444" y="725.8369456815639"/>
      <point x="460.59015499233135" y="737.3639720932233"/>
      <point x="425.2937164306641" y="743.8428573608397" type="curve"/>
      <point x="425.29371643066406" y="850" type="line"/>
      <point x="245.91871643066406" y="850" type="line"/>
      <point x="245.91871643066406" y="731.6665115356445" type="line"/>
      <point x="116.70843416912027" y="687.9690993334752"/>
      <point x="24.125" y="570.07968318089"/>
      <point x="24.125" y="424.99999999999994" type="curve" smooth="yes"/>
      <point x="24.124999999999986" y="279.9203168191101"/>
      <point x="116.70843416912021" y="162.03090066652481"/>
      <point x="245.91871643066406" y="118.33228302001953" type="curve"/>
    </contour>
  </outline>
</glyph>
<glyph name="pound" format="2">
  <advance width="664.7604141235352"/>
  <unicode hex="00A3"/>
  <outline>
    <contour>
      <point x="25.125" y="0" type="line"/>
      <point x="611.6354141235352" y="0" type="line"/>
      <point x="611.6354141235352" y="170.40625" type="line"/>
      <point x="262.90035247802734" y="170.40625" type="line"/>
      <point x="304.49999960276847" y="216.9547637282429"/>
      <point x="304.5" y="268.5927194014319"/>
      <point x="304.5" y="321.09139679892553" type="curve"/>
      <point x="304.5" y="339.796875" type="line"/>
      <point x="511.6775817871094" y="339.796875" type="line"/>
      <point x="511.6775817871094" y="510.203125" type="line"/>
      <point x="304.5" y="510.203125" type="line"/>
      <point x="304.5" y="537.2793233326859" type="line"/>
      <point x="304.5" y="685.0121965145458"/>
      <point x="384.5154807362059" y="694.59375"/>
      <point x="420.4405531609196" y="694.59375" type="curve"/>
      <point x="489.61871442122356" y="694.59375"/>
      <point x="552.1361047002052" y="664.7674826902833"/>
      <point x="596.6354141235352" y="616.820182800293" type="curve"/>
      <point x="596.6354141235352" y="804.5487518310547" type="line"/>
      <point x="547.2208081060411" y="842.4612492417278"/>
      <point x="485.41184256164775" y="865.0"/>
      <point x="418.3802083333334" y="865.0" type="curve"/>
      <point x="319.15797465590936" y="865.0"/>
      <point x="125.12500000000003" y="814.253661153453"/>
      <point x="125.125" y="521.7447916666666" type="curve"/>
      <point x="125.125" y="510.203125" type="line"/>
      <point x="25.125" y="510.203125" type="line"/>
      <point x="25.125" y="339.796875" type="line"/>
      <point x="125.125" y="339.796875" type="line"/>
      <point x="125.125" y="311.4167272562592" type="line"/>
      <point x="125.125" y="277.09508206980746"/>
      <point x="124.36008152537988" y="170.40624999999997"/>
      <point x="25.125" y="170.40624999999997" type="curve"/>
    </contour>
  </outline>
</glyph>
<glyph name="currency" format="2">
  <advance width="783.5511932373047"/>
  <unicode hex="00A4"/>
  <outline>
    <contour>
      <point x="182.86868286132812" y="92.34940338134766" type="line"/>
      <point x="263.37110137939453" y="172.85182189941406" type="line"/>
      <point x="301.9159333108621" y="153.1659536558366"/>
      <point x="345.559149035105" y="142.0610119047619"/>
      <point x="391.7755966186523" y="142.06101190476187" type="curve" smooth="yes"/>
      <point x="437.98985798631776" y="142.06101190476184"/>
      <point x="481.63113093646615" y="153.16490306769853"/>
      <point x="520.1748733520508" y="172.85704040527344" type="curve"/>
      <point x="600.6825103759766" y="92.34940338134766" type="line"/>
      <point x="724.4261932373047" y="216.09308624267578" type="line"/>
      <point x="643.9237747192383" y="296.5955047607422" type="line"/>
      <point x="663.6092677407223" y="335.13886205572334"/>
      <point x="674.7145847138904" y="378.7827716250663"/>
      <point x="674.7145847138904" y="424.99999999999994" type="curve" smooth="yes"/>
      <point x="674.7145847138904" y="471.2212884901428"/>
      <point x="663.6073164836511" y="514.8688060303276"/>
      <point x="643.9185562133789" y="553.3992767333984" type="curve"/>
      <point x="724.4261932373047" y="633.9069137573242" type="line"/>
      <point x="600.6825103759766" y="757.6505966186523" type="line"/>
      <point x="520.1800918579102" y="677.1481781005859" type="line"/>
      <point x="481.63525992644253" y="696.8340463441633"/>
      <point x="437.9920442021996" y="707.938988095238"/>
      <point x="391.77559661865234" y="707.9389880952381" type="curve" smooth="yes"/>
      <point x="345.5613352509869" y="707.9389880952381"/>
      <point x="301.9200623008385" y="696.8350969323014"/>
      <point x="263.3763198852539" y="677.1429595947266" type="curve"/>
      <point x="182.86868286132812" y="757.6505966186523" type="line"/>
      <point x="59.125" y="633.9069137573242" type="line"/>
      <point x="139.6274185180664" y="553.4044952392578" type="line"/>
      <point x="119.94192549658237" y="514.8611379442766"/>
      <point x="108.83660852341421" y="471.21722837493365"/>
      <point x="108.83660852341421" y="425.0" type="curve" smooth="yes"/>
      <point x="108.83660852341421" y="378.77871150985726"/>
      <point x="119.94387675365363" y="335.1311939696725"/>
      <point x="139.63263702392578" y="296.60072326660156" type="curve"/>
      <point x="59.125" y="216.09308624267578" type="line"/>
    </contour>
    <contour>
      <point x="499.7145847138904" y="425.0" type="curve" smooth="yes"/>
      <point x="499.7145847138904" y="365.42685122663687"/>
      <point x="451.3487453920154" y="317.06101190476187"/>
      <point x="391.77559661865234" y="317.06101190476187" type="curve" smooth="yes"/>
      <point x="332.2024478452892" y="317.06101190476187"/>
      <point x="283.8366085234142" y="365.4268512266369"/>
      <point x="283.8366085234142" y="425.0" type="curve" smooth="yes"/>
      <point x="283.8366085234142" y="484.57314877336313"/>
      <point x="332.2024478452892" y="532.9389880952381"/>
      <point x="391.77559661865234" y="532.9389880952381" type="curve" smooth="yes"/>
      <point x="451.3487453920155" y="532.9389880952381"/>
      <point x="499.7145847138904" y="484.57314877336313"/>
    </contour>
  </outline>
</glyph>
<glyph name="yen" format="2">
  <advance width="787.7202377319336"/>
  <unicode hex="00A5"/>
  <outline>
    <contour>
      <point x="119.76360321044922" y="207.93074798583984" type="line"/>
      <point x="304.17262268066406" y="207.93074798583984" type="line"/>
      <point x="304.17262268066406" y="0" type="line"/>
      <point x="483.54762268066406" y="0" type="line"/>
      <point x="483.54762268066406" y="207.93074798583984" type="line"/>
      <point x="667.9566345214844" y="207.93074798583984" type="line"/>
      <point x="667.9566345214844" y="338.8921661376953" type="line"/>
      <point x="483.54762268066406" y="338.8921661376953" type="line"/>
      <point x="483.54762268066406" y="340.4710235595703" type="line"/>
      <point x="500.2662048339844" y="369.441162109375" type="line"/>
      <point x="667.9566345214844" y="369.441162109375" type="line"/>
      <point x="667.9566345214844" y="500.402587890625" type="line"/>
      <point x="575.8436431884766" y="500.402587890625" type="line"/>
      <point x="777.5952377319336" y="850" type="line"/>
      <point x="583.7468338012695" y="850" type="line"/>
      <point x="399.00196075439453" y="527.392204284668" type="line"/>
      <point x="214.257080078125" y="850" type="line"/>
      <point x="10.125" y="850" type="line"/>
      <point x="211.87660217285156" y="500.402587890625" type="line"/>
      <point x="119.76360321044922" y="500.402587890625" type="line"/>
      <point x="119.76360321044922" y="369.441162109375" type="line"/>
      <point x="287.45404052734375" y="369.441162109375" type="line"/>
      <point x="304.17262268066406" y="340.4710159301758" type="line"/>
      <point x="304.17262268066406" y="338.8921661376953" type="line"/>
      <point x="119.76360321044922" y="338.8921661376953" type="line"/>
    </contour>
  </outline>
</glyph>
<glyph name="brokenbar" format="2">
  <advance width="343.25"/>
  <unicode hex="00A6"/>
  <outline>
    <contour>
      <point x="259.125" y="969.84375" type="line"/>
      <point x="84.125" y="969.84375" type="line"/>
      <point x="84.125" y="455.15625" type="line"/>
      <point x="259.125" y="455.15625" type="line"/>
    </contour>
    <contour>
      <point x="84.125" y="-119.84375" type="line"/>
      <point x="259.125" y="-119.84375" type="line"/>
      <point x="259.125" y="394.84375" type="line"/>
      <point x="84.125" y="394.84375" type="line"/>
    </contour>
  </outline>
</glyph>
<glyph name="section" format="2">
  <advance width="572.2589285714283"/>
  <unicode hex="00A7"/>
  <outline>
    <contour>
      <point x="517.8422619047618" y="31.98320777529753" type="curve"/>
      <point x="517.8422619047618" y="85.76418005057624"/>
      <point x="497.19920362008884" y="134.1756134607313"/>
      <point x="462.7654902140298" y="171.76447296142578" type="curve"/>
      <point x="515.3071195726619" y="212.49075202332358"/>
      <point x="548.1339285714284" y="271.73236231478063"/>
      <point x="548.1339285714283" y="341.43541666666664" type="curve"/>
      <point x="548.1339285714286" y="477.9656450858898"/>
      <point x="441.81544977153465" y="529.9330854687653"/>
      <point x="364.5226673467844" y="564.4294280686512" type="curve"/>
      <point x="278.8657044044775" y="602.6587665272621" type="line"/>
      <point x="250.9227058930727" y="615.1299342052529"/>
      <point x="231.30729166666663" y="623.554569788665"/>
      <point x="231.30729166666652" y="646.4527083333334" type="curve"/>
      <point x="231.30729166666652" y="670.0645478938591"/>
      <point x="252.16452675579552" y="694.07"/>
      <point x="324.0919642857142" y="694.07" type="curve"/>
      <point x="386.96356249445205" y="694.0699998356888"/>
      <point x="444.3127757014659" y="675.2590137780566"/>
      <point x="487.84226481119777" y="644.3195114135742" type="curve"/>
      <point x="487.84226481119777" y="824.1381530761719" type="line"/>
      <point x="440.3516644065919" y="851.9333433515068"/>
      <point x="377.80064897623856" y="865.0"/>
      <point x="309.2752976190476" y="865.0" type="curve"/>
      <point x="169.64167820683036" y="865.0"/>
      <point x="56.41666666666657" y="768.2277572326312"/>
      <point x="56.41666666666656" y="641.5979166666667" type="curve"/>
      <point x="56.41666666666657" y="587.816944391388"/>
      <point x="77.05972682034619" y="539.4055089409702"/>
      <point x="111.49344126383454" y="501.816650390625" type="curve"/>
      <point x="58.951810286619846" y="461.09037341688673"/>
      <point x="26.12499999999997" y="401.8487621271836"/>
      <point x="26.125" y="332.1457077752976" type="curve"/>
      <point x="26.12499999999997" y="195.61547935607445"/>
      <point x="132.44348024494803" y="143.64803840995052"/>
      <point x="209.73626268964523" y="109.15169585475785" type="curve"/>
      <point x="295.3932323241265" y="70.92235446877541" type="line"/>
      <point x="323.3362308427425" y="58.45118680694216"/>
      <point x="342.9516369047619" y="50.02655465329924"/>
      <point x="342.9516369047619" y="27.128416108630915" type="curve"/>
      <point x="342.9516369047619" y="3.516576548105249"/>
      <point x="322.0944018156329" y="-20.488875558035772"/>
      <point x="250.16696428571424" y="-20.488875558035772" type="curve"/>
      <point x="178.07788265803143" y="-20.48887540801984"/>
      <point x="112.98883607097477" y="2.339836059804675"/>
      <point x="66.41666376023063" y="39.049378531319775" type="curve"/>
      <point x="66.41666666666656" y="-143.99198150634766" type="line"/>
      <point x="116.995306851908" y="-176.87064601571805"/>
      <point x="187.29191893789172" y="-191.41887555803572"/>
      <point x="264.9836309523809" y="-191.41887555803572" type="curve"/>
      <point x="404.61725036459814" y="-191.41887555803572"/>
      <point x="517.8422619047618" y="-94.64663279066696"/>
    </contour>
    <contour>
      <point x="201.015625" y="344.40883277529764" type="curve"/>
      <point x="201.015625" y="364.3320225400332"/>
      <point x="209.38180652820665" y="396.47985433145556"/>
      <point x="257.83216349283845" y="414.8753433227539" type="curve"/>
      <point x="319.05094636049483" y="387.218017973391" type="line"/>
      <point x="347.271491862768" y="374.46858435299094"/>
      <point x="373.2433035714286" y="362.99281440918406"/>
      <point x="373.2433035714285" y="329.17229166666664" type="curve"/>
      <point x="373.2433035714285" y="309.2493825621711"/>
      <point x="364.87735657911435" y="277.10135461243317"/>
      <point x="316.4267527262369" y="258.7057876586914" type="curve"/>
      <point x="255.20798932701592" y="286.36310364105873" type="line"/>
      <point x="226.98744372588362" y="299.11253704263663"/>
      <point x="201.0156249999999" y="310.5883100327802"/>
    </contour>
  </outline>
</glyph>
<glyph name="diaeresis" format="2">
  <advance width="610.57930286159"/>
  <unicode hex="00A8"/>
  <anchor x="305.289651430795" y="1002.0427073559308" name="center" identifier="center"/>
  <anchor x="305.289651430795" y="1211.703480766009" name="top" identifier="top"/>
  <outline>
    <contour>
      <point x="283.82930286159" y="1002.0427073559308" type="curve" smooth="yes"/>
      <point x="283.82930286159" y="1057.1526095099011"/>
      <point x="239.08705358476527" y="1101.8948587867258"/>
      <point x="183.977151430795" y="1101.8948587867258" type="curve" smooth="yes"/>
      <point x="128.86724927682477" y="1101.8948587867258"/>
      <point x="84.125" y="1057.1526095099011"/>
      <point x="84.125" y="1002.0427073559308" type="curve" smooth="yes"/>
      <point x="84.125" y="946.9328052019606"/>
      <point x="128.86724927682474" y="902.1905559251358"/>
      <point x="183.977151430795" y="902.1905559251358" type="curve" smooth="yes"/>
      <point x="239.08705358476527" y="902.1905559251358"/>
      <point x="283.82930286159" y="946.9328052019605"/>
    </contour>
    <contour>
      <point x="526.45430286159" y="1002.0427073559308" type="curve" smooth="yes"/>
      <point x="526.45430286159" y="1057.1526095099011"/>
      <point x="481.7120535847653" y="1101.8948587867258"/>
      <point x="426.602151430795" y="1101.8948587867258" type="curve" smooth="yes"/>
      <point x="371.49224927682474" y="1101.8948587867258"/>
      <point x="326.75" y="1057.1526095099011"/>
      <point x="326.75" y="1002.0427073559308" type="curve" smooth="yes"/>
      <point x="326.75" y="946.9328052019606"/>
      <point x="371.49224927682474" y="902.1905559251358"/>
      <point x="426.60215143079495" y="902.1905559251358" type="curve" smooth="yes"/>
      <point x="481.7120535847653" y="902.1905559251358"/>
      <point x="526.45430286159" y="946.9328052019605"/>
    </contour>
  </outline>
</glyph>
<glyph name="copyright" format="2">
  <advance width="918.25"/>
  <unicode hex="00A9"/>
  <outline>
    <contour>
      <point x="899.125" y="425.0" type="curve" smooth="yes"/>
      <point x="899.125" y="667.8426088"/>
      <point x="701.9676088000001" y="865.0"/>
      <point x="459.125" y="865.0" type="curve" smooth="yes"/>
      <point x="216.2823912" y="865.0"/>
      <point x="19.125" y="667.8426088000001"/>
      <point x="19.125" y="425.0" type="curve" smooth="yes"/>
      <point x="19.124999999999943" y="182.15739120000003"/>
      <point x="216.2823911999999" y="-14.999999999999943"/>
      <point x="459.125" y="-15.0" type="curve" smooth="yes"/>
      <point x="701.9676087999999" y="-15.000000000000057"/>
      <point x="899.125" y="182.1573911999999"/>
    </contour>
    <contour>
      <point x="778.477087823276" y="425.0" type="curve" smooth="yes"/>
      <point x="778.477087823276" y="248.74478606197485"/>
      <point x="635.380213938025" y="105.64791217672405"/>
      <point x="459.125" y="105.6479121767241" type="curve" smooth="yes"/>
      <point x="282.8697860619749" y="105.6479121767241"/>
      <point x="139.7729121767241" y="248.74478606197493"/>
      <point x="139.7729121767241" y="425.0" type="curve" smooth="yes"/>
      <point x="139.7729121767241" y="601.2552139380251"/>
      <point x="282.86978606197493" y="744.352087823276"/>
      <point x="459.125" y="744.352087823276" type="curve" smooth="yes"/>
      <point x="635.380213938025" y="744.352087823276"/>
      <point x="778.477087823276" y="601.2552139380251"/>
    </contour>
    <contour>
      <point x="479.23293510844246" y="515.3896504959469" type="curve"/>
      <point x="504.01194240439315" y="515.3896509910396"/>
      <point x="542.9947632630035" y="510.61601791642954"/>
      <point x="582.6085298207947" y="486.756771756233" type="curve"/>
      <point x="582.6085298207947" y="626.0313681408003" type="line"/>
      <point x="544.4913311406872" y="644.0250316496243"/>
      <point x="506.10484652566413" y="649.7265775792802"/>
      <point x="474.41666666666663" y="649.7265775792802" type="curve"/>
      <point x="346.3223924235981" y="649.7265775792802"/>
      <point x="242.3220100762859" y="553.899120334343"/>
      <point x="242.3220100762859" y="425.0" type="curve" smooth="yes"/>
      <point x="242.3220100762859" y="296.100879665657"/>
      <point x="346.32239242359805" y="200.27342242071987"/>
      <point x="474.41666666666663" y="200.27342242071984" type="curve"/>
      <point x="505.78372584015574" y="200.27342242071984"/>
      <point x="544.249429068052" y="205.86076691069346"/>
      <point x="582.6085298207947" y="223.96867934984493" type="curve"/>
      <point x="582.6085298207947" y="363.2429432998955" type="line"/>
      <point x="543.0114935253756" y="339.3941518471401"/>
      <point x="504.03837428256566" y="334.6103495040532"/>
      <point x="479.23293510844246" y="334.6103495040532" type="curve"/>
      <point x="429.0881538755734" y="334.61034950405315"/>
      <point x="388.3726620221284" y="374.92136610179205"/>
      <point x="388.3726620221284" y="425.0" type="curve" smooth="yes"/>
      <point x="388.3726620221284" y="475.07863389820795"/>
      <point x="429.0881538755735" y="515.3896504959469"/>
    </contour>
  </outline>
</glyph>
<glyph name="ordinal_a" format="2">
  <advance width="502.19590961654524"/>
  <unicode hex="00AA"/>
  <outline>
    <contour>
      <point x="315.40438181736914" y="451.69642857142856" type="line"/>
      <point x="427.07090961654524" y="451.69642857142856" type="line"/>
      <point x="427.07090961654524" y="652.0323089552353" type="line"/>
      <point x="427.07090961654524" y="739.9080641247286"/>
      <point x="417.8501281977601" y="859.6388058626526"/>
      <point x="238.90235898690372" y="859.6388058626526" type="curve"/>
      <point x="181.38895011629353" y="859.6388058626526"/>
      <point x="129.22873313425805" y="847.1787356720381"/>
      <point x="90.81926883047873" y="824.3223737492551" type="curve"/>
      <point x="90.81926883047873" y="704.7372174801329" type="line"/>
      <point x="122.62399716496685" y="732.5263535908686"/>
      <point x="173.46908125344314" y="749.559160900448"/>
      <point x="230.8254701387885" y="749.559160900448" type="curve"/>
      <point x="310.39120796322663" y="749.559160900448"/>
      <point x="310.6299701613991" y="714.6487579342427"/>
      <point x="310.6299701613991" y="702.0323084070678" type="curve"/>
      <point x="310.6299695890669" y="696.7197045730074" type="line"/>
      <point x="279.57345147386457" y="702.2692583121345"/>
      <point x="251.77262835728925" y="703.2593992473144"/>
      <point x="235.73964995051222" y="703.2593992473144" type="curve"/>
      <point x="136.82544504063168" y="703.2593992473144"/>
      <point x="58.125" y="659.7148713089061"/>
      <point x="58.125" y="572.6585109780451" type="curve"/>
      <point x="58.125" y="492.49877537331923"/>
      <point x="129.78179852071816" y="442.05762270877597"/>
      <point x="218.14355643347466" y="442.05762270877597" type="curve"/>
      <point x="259.5162909734403" y="442.05762270877597"/>
      <point x="295.65331040776084" y="453.9971484300525"/>
      <point x="315.40438181736914" y="475.87101137704633" type="curve"/>
    </contour>
    <contour>
      <point x="181.10823993346753" y="578.5752702559034" type="curve"/>
      <point x="181.10823993346753" y="607.7011363489072"/>
      <point x="209.43133812263773" y="623.2165068612569"/>
      <point x="244.39956856136325" y="623.2165068612569" type="curve"/>
      <point x="254.14820981853592" y="623.2165068612569"/>
      <point x="281.2796655193409" y="622.5576755913793"/>
      <point x="310.6299695890669" y="615.9957006909789" type="curve"/>
      <point x="310.6299695890669" y="612.7591547217495" type="line"/>
      <point x="310.6299702275284" y="564.4836767587962"/>
      <point x="269.80133106637106" y="534.9333645362319"/>
      <point x="231.49911413042207" y="534.9333645362319" type="curve"/>
      <point x="203.53281222531098" y="534.9333645362319"/>
      <point x="181.10823993346753" y="552.622008021821"/>
    </contour>
    <contour>
      <point x="67.76380586265259" y="291.9660032242063" type="line"/>
      <point x="427.0709094566647" y="291.9660032242063" type="line"/>
      <point x="427.0709094566647" y="411.42685391865075" type="line"/>
      <point x="67.76380586265259" y="411.42685391865075" type="line"/>
    </contour>
  </outline>
</glyph>
<glyph name="angleleft_dbl" format="2">
  <advance width="724.3745574951172"/>
  <unicode hex="00AB"/>
  <outline>
    <contour>
      <point x="218.06007385253906" y="309.921875" type="line"/>
      <point x="363.19952392578125" y="565.8965759277344" type="line"/>
      <point x="203.40555572509766" y="565.8965759277344" type="line"/>
      <point x="23.125" y="309.921875" type="line"/>
      <point x="203.40555572509766" y="53.947174072265625" type="line"/>
      <point x="363.19952392578125" y="53.947174072265625" type="line"/>
    </contour>
    <contour>
      <point x="535.110107421875" y="309.921875" type="line"/>
      <point x="680.2495574951172" y="565.8965759277344" type="line"/>
      <point x="520.4555969238281" y="565.8965759277344" type="line"/>
      <point x="340.17504119873047" y="309.921875" type="line"/>
      <point x="520.4555969238281" y="53.947174072265625" type="line"/>
      <point x="680.2495574951172" y="53.947174072265625" type="line"/>
    </contour>
  </outline>
</glyph>
<glyph name="logicalnot" format="2">
  <advance width="680.2321395874023"/>
  <unicode hex="00AC"/>
  <outline>
    <contour>
      <point x="416.73213958740234" y="71.44345092773438" type="line"/>
      <point x="596.1071395874023" y="71.44345092773438" type="line"/>
      <point x="596.1071395874023" y="514.6875" type="line"/>
      <point x="25.125" y="514.6875" type="line"/>
      <point x="25.125" y="344.28125" type="line"/>
      <point x="416.73213958740234" y="344.28125" type="line"/>
    </contour>
  </outline>
</glyph>
<glyph name="registered" format="2">
  <advance width="918.25"/>
  <unicode hex="00AE"/>
  <outline>
    <contour>
      <point x="899.125" y="425.0" type="curve" smooth="yes"/>
      <point x="899.125" y="667.8426088"/>
      <point x="701.9676088" y="865.0"/>
      <point x="459.125" y="865.0" type="curve" smooth="yes"/>
      <point x="216.2823912" y="865.0"/>
      <point x="19.125" y="667.8426088000001"/>
      <point x="19.125" y="425.0" type="curve" smooth="yes"/>
      <point x="19.124999999999943" y="182.15739120000003"/>
      <point x="216.2823911999999" y="-14.999999999999943"/>
      <point x="459.125" y="-15.0" type="curve" smooth="yes"/>
      <point x="701.9676088" y="-15.000000000000057"/>
      <point x="899.1249999999999" y="182.1573911999999"/>
    </contour>
    <contour>
      <point x="781.4468817349139" y="425.0" type="curve" smooth="yes"/>
      <point x="781.4468817349137" y="247.10571219583733"/>
      <point x="637.0192878041626" y="102.67811826508608"/>
      <point x="459.125" y="102.67811826508614" type="curve" smooth="yes"/>
      <point x="281.2307121958373" y="102.67811826508614"/>
      <point x="136.80311826508614" y="247.1057121958374"/>
      <point x="136.80311826508614" y="425.0" type="curve" smooth="yes"/>
      <point x="136.80311826508614" y="602.8942878041627"/>
      <point x="281.23071219583744" y="747.3218817349139"/>
      <point x="459.125" y="747.3218817349139" type="curve" smooth="yes"/>
      <point x="637.0192878041626" y="747.3218817349139"/>
      <point x="781.4468817349139" y="602.8942878041626"/>
    </contour>
    <contour>
      <point x="305.7428704664785" y="200.17811826508614" type="line"/>
      <point x="446.2262248812104" y="200.17811826508614" type="line"/>
      <point x="446.2262248812104" y="327.77915012084406" type="line"/>
      <point x="523.2602769301338" y="200.17811826508614" type="line"/>
      <point x="673.0197294926196" y="200.17811826508614" type="line"/>
      <point x="572.9245039916725" y="363.60761105287133" type="line"/>
      <point x="612.2552722854653" y="392.4325308750491"/>
      <point x="637.8116886645553" y="438.9687349376518"/>
      <point x="637.8116886645553" y="491.42685973702527" type="curve" smooth="yes"/>
      <point x="637.8116886645553" y="552.5505235116202"/>
      <point x="610.95941715572" y="649.8218817349139"/>
      <point x="439.03754792628183" y="649.8218817349139" type="curve"/>
      <point x="305.7428704664785" y="649.8218817349139" type="line"/>
    </contour>
    <contour>
      <point x="446.2262248812104" y="462.1940055753846" type="line"/>
      <point x="446.2262248812104" y="516.3626936283558" type="line"/>
      <point x="465.12087615549115" y="516.3626936283558" type="line"/>
      <point x="485.97251559615484" y="516.3626936283558"/>
      <point x="495.88111210426155" y="502.7542431004507"/>
      <point x="495.88111210426155" y="489.278349807786" type="curve" smooth="yes"/>
      <point x="495.88111210426155" y="475.8024565151213"/>
      <point x="485.97251728640833" y="462.1940059760398"/>
      <point x="465.1208775377695" y="462.1940057658487" type="curve"/>
    </contour>
  </outline>
</glyph>
<glyph name="macron" format="2">
  <advance width="551.5907738095239"/>
  <unicode hex="00AF"/>
  <anchor x="275.7953869047619" y="1002.0427073559308" name="center" identifier="center"/>
  <anchor x="275.7953869047619" y="1198.3168384858734" name="top" identifier="top"/>
  <outline>
    <contour>
      <point x="84.125" y="932.4708323559308" type="line"/>
      <point x="467.4657738095238" y="932.4708323559308" type="line"/>
      <point x="467.4657738095238" y="1071.614582355931" type="line"/>
      <point x="84.125" y="1071.614582355931" type="line"/>
    </contour>
  </outline>
</glyph>
<glyph name="degree" format="2">
  <advance width="516.1875"/>
  <unicode hex="00B0"/>
  <outline>
    <contour>
      <point x="461.06249999999994" y="662.03125" type="curve" smooth="yes"/>
      <point x="461.06249999999994" y="774.0527517156249"/>
      <point x="370.11525171562494" y="865.0"/>
      <point x="258.09375" y="865.0" type="curve" smooth="yes"/>
      <point x="146.072248284375" y="865.0"/>
      <point x="55.125" y="774.052751715625"/>
      <point x="55.125" y="662.03125" type="curve" smooth="yes"/>
      <point x="55.125" y="550.0097482843751"/>
      <point x="146.07224828437495" y="459.0625"/>
      <point x="258.09374999999994" y="459.0625" type="curve" smooth="yes"/>
      <point x="370.11525171562494" y="459.0625"/>
      <point x="461.0624999999999" y="550.009748284375"/>
    </contour>
    <contour>
      <point x="319.28720486111104" y="662.03125" type="curve" smooth="yes"/>
      <point x="319.28720486111104" y="624.321100246094"/>
      <point x="292.4374513600834" y="593.7490303819445"/>
      <point x="258.09375" y="593.7490303819445" type="curve" smooth="yes"/>
      <point x="223.75004863991654" y="593.7490303819445"/>
      <point x="196.9002951388889" y="624.321100246094"/>
      <point x="196.9002951388889" y="662.03125" type="curve" smooth="yes"/>
      <point x="196.9002951388889" y="699.741399753906"/>
      <point x="223.75004863991654" y="730.3134696180555"/>
      <point x="258.09375" y="730.3134696180555" type="curve" smooth="yes"/>
      <point x="292.4374513600834" y="730.3134696180555"/>
      <point x="319.28720486111104" y="699.741399753906"/>
    </contour>
  </outline>
</glyph>
<glyph name="plusminus" format="2">
  <advance width="601.9712448120117"/>
  <unicode hex="00B1"/>
  <outline>
    <contour>
      <point x="214.5793685913086" y="322.672119140625" type="line"/>
      <point x="387.3918685913086" y="322.672119140625" type="line"/>
      <point x="387.3918685913086" y="448.1264877319336" type="line"/>
      <point x="512.8462448120117" y="448.1264877319336" type="line"/>
      <point x="512.8462448120117" y="620.9389877319336" type="line"/>
      <point x="387.3918685913086" y="620.9389877319336" type="line"/>
      <point x="387.3918685913086" y="746.3933563232422" type="line"/>
      <point x="214.5793685913086" y="746.3933563232422" type="line"/>
      <point x="214.5793685913086" y="620.9389877319336" type="line"/>
      <point x="89.125" y="620.9389877319336" type="line"/>
      <point x="89.125" y="448.1264877319336" type="line"/>
      <point x="214.5793685913086" y="448.1264877319336" type="line"/>
    </contour>
    <contour>
      <point x="89.125" y="103.60664062500001" type="line"/>
      <point x="512.8462425595238" y="103.60664062500001" type="line"/>
      <point x="512.8462425595238" y="276.419140625" type="line"/>
      <point x="89.125" y="276.419140625" type="line"/>
    </contour>
  </outline>
</glyph>
<glyph name="sup_two" format="2">
  <advance width="506.79254150390625"/>
  <unicode hex="00B2"/>
  <outline>
    <contour>
      <point x="59.125" y="303.57142639160156" type="line"/>
      <point x="438.66754150390625" y="303.57142639160156" type="line"/>
      <point x="438.66754150390625" y="430.0907211303711" type="line"/>
      <point x="303.9845275878906" y="430.0907211303711" type="line"/>
      <point x="353.59635624787575" y="500.3360838565213" type="line"/>
      <point x="397.3312770361286" y="562.2603357446233"/>
      <point x="425.8103970098053" y="613.631668934963"/>
      <point x="425.8103970098052" y="677.7617326474411" type="curve"/>
      <point x="425.8103970098052" y="778.1388459322859"/>
      <point x="343.530676032877" y="859.6428571428571"/>
      <point x="242.0007010858178" y="859.6428571428571" type="curve"/>
      <point x="182.29054129496134" y="859.6428571428571"/>
      <point x="128.3548290980579" y="840.5925772797369"/>
      <point x="89.87667083740234" y="807.497200012207" type="curve"/>
      <point x="89.87667083740234" y="672.1097564697266" type="line"/>
      <point x="142.03679465281962" y="728.8612808950492"/>
      <point x="210.00455360860434" y="733.5828448917283"/>
      <point x="233.55072545979152" y="733.5828448917283" type="curve"/>
      <point x="267.57618531096904" y="733.5828448917283"/>
      <point x="295.2056085928545" y="714.5362077453466"/>
      <point x="295.2056085928545" y="679.9813694110906" type="curve"/>
      <point x="295.2056085928546" y="649.7386758834932"/>
      <point x="277.74887941156305" y="622.654653870126"/>
      <point x="262.520057106415" y="600.4280710059736" type="curve"/>
    </contour>
  </outline>
</glyph>
<glyph name="sup_three" format="2">
  <advance width="480.1340811593192"/>
  <unicode hex="00B3"/>
  <outline>
    <contour>
      <point x="196.17607963932477" y="418.9290077995619" type="curve"/>
      <point x="143.31724791645675" y="418.9290077995619"/>
      <point x="95.9927090244793" y="438.7002707023707"/>
      <point x="64.125" y="469.8584997994559" type="curve"/>
      <point x="64.125002179827" y="333.06324768066406" type="line"/>
      <point x="116.02797709815138" y="298.8074488996398"/>
      <point x="178.5021717160426" y="293.92857142857133"/>
      <point x="209.95457794597496" y="293.92857142857133" type="curve"/>
      <point x="326.48214913514624" y="293.92857142857133"/>
      <point x="420.99122733094447" y="380.05906676977656"/>
      <point x="420.99122733094447" y="486.71167375894316" type="curve"/>
      <point x="420.99122733094447" y="567.9041721781455"/>
      <point x="376.9914144936251" y="626.363495077785"/>
      <point x="311.46978977748324" y="656.4043502807617" type="curve"/>
      <point x="431.0090811593192" y="850" type="line"/>
      <point x="71.01075962611607" y="850" type="line"/>
      <point x="71.01075962611607" y="723.4807052612305" type="line"/>
      <point x="224.55966404506137" y="723.4807052612305" type="line"/>
      <point x="121.70382145472934" y="560.4610137939453" type="line"/>
      <point x="134.64321662721804" y="564.2354996107402"/>
      <point x="152.93084571025526" y="566.8949881943097"/>
      <point x="181.9403897275842" y="566.8949881943098" type="curve"/>
      <point x="240.4240947780388" y="566.8949881943097"/>
      <point x="287.81302151197895" y="543.188268189075"/>
      <point x="287.81302151197895" y="492.9119979969357" type="curve"/>
      <point x="287.81302151197895" y="447.1931676562734"/>
      <point x="249.45139490285158" y="418.9290077995619"/>
    </contour>
  </outline>
</glyph>
<glyph name="acute" format="2">
  <advance width="456.5885314941406"/>
  <unicode hex="00B4"/>
  <anchor x="148.5325009083438" y="1002.0427073559308" name="center" identifier="center"/>
  <anchor x="148.5325009083438" y="896.1677073559308" name="bottom" identifier="bottom"/>
  <anchor x="148.5325009083438" y="1254.6120146344888" name="top" identifier="top"/>
  <outline>
    <contour>
      <point x="196.83812713623047" y="896.1677093505859" type="line"/>
      <point x="372.4635314941406" y="1102.334373474121" type="line"/>
      <point x="188.38021850585938" y="1102.334373474121" type="line"/>
      <point x="84.125" y="896.1677093505859" type="line"/>
    </contour>
  </outline>
</glyph>
<glyph name="micron" format="2">
  <advance width="764.2412567138672"/>
  <unicode hex="00B5"/>
  <outline>
    <contour>
      <point x="84.125" y="-294.84375" type="line"/>
      <point x="256.10851287841797" y="-294.84375" type="line"/>
      <point x="256.10851287841797" y="21.191871643066406" type="line"/>
      <point x="290.805241735047" y="-1.6873371332040996"/>
      <point x="332.3451022162335" y="-14.99999999999998"/>
      <point x="376.96976665127255" y="-14.99999999999999" type="curve" smooth="yes"/>
      <point x="426.10228084985744" y="-15.00000000000001"/>
      <point x="471.4952771278082" y="1.1381216137157644"/>
      <point x="508.1327438354492" y="28.415863037109375" type="curve"/>
      <point x="508.1327438354492" y="0" type="line"/>
      <point x="680.1162567138672" y="0" type="line"/>
      <point x="680.1162567138672" y="619.84375" type="line"/>
      <point x="508.1327438354492" y="619.84375" type="line"/>
      <point x="508.1327438354492" y="321.61674960576636" type="line"/>
      <point x="508.1327438354492" y="279.632419665489"/>
      <point x="506.6832972496933" y="148.38433728448274"/>
      <point x="382.1206287202381" y="148.38433728448274" type="curve" smooth="yes"/>
      <point x="257.55796019078286" y="148.38433728448277"/>
      <point x="256.1085129315598" y="279.6324200287935"/>
      <point x="256.1085129250017" y="321.61675074077135" type="curve"/>
      <point x="256.10851287841797" y="619.84375" type="line"/>
      <point x="84.125" y="619.84375" type="line"/>
    </contour>
  </outline>
</glyph>
<glyph name="pilcrow" format="2">
  <advance width="852.0014880952381"/>
  <unicode hex="00B6"/>
  <outline>
    <contour>
      <point x="307.06398809523813" y="-185.71428680419922" type="line"/>
      <point x="477.4702380952381" y="-185.71428680419922" type="line"/>
      <point x="477.4702380952381" y="679.59375" type="line"/>
      <point x="597.4702380952381" y="679.59375" type="line"/>
      <point x="597.4702380952381" y="-185.71428680419922" type="line"/>
      <point x="767.8764880952381" y="-185.71428680419922" type="line"/>
      <point x="767.8764880952381" y="850" type="line"/>
      <point x="357.06398809523813" y="850.0" type="line"/>
      <point x="71.95716290908553" y="850.0"/>
      <point x="24.125" y="662.5727833807812"/>
      <point x="24.125" y="567.0610119047619" type="curve" smooth="yes"/>
      <point x="24.125000000000014" y="410.9027346313988"/>
      <point x="150.9057108218749" y="284.1220238095238"/>
      <point x="307.0639880952381" y="284.1220238095238" type="curve"/>
    </contour>
  </outline>
</glyph>
<glyph name="interpunct" format="2">
  <advance width="351.1770833333333"/>
  <unicode hex="00B7"/>
  <outline>
    <contour>
      <point x="283.0520833333333" y="425.0" type="curve" smooth="yes"/>
      <point x="283.0520833333333" y="484.3107427482292"/>
      <point x="234.89928441489582" y="532.4635416666666"/>
      <point x="175.58854166666666" y="532.4635416666666" type="curve" smooth="yes"/>
      <point x="116.2777989184375" y="532.4635416666666"/>
      <point x="68.125" y="484.3107427482292"/>
      <point x="68.125" y="425.0" type="curve" smooth="yes"/>
      <point x="68.12499999999999" y="365.68925725177087"/>
      <point x="116.27779891843747" y="317.53645833333337"/>
      <point x="175.58854166666666" y="317.53645833333337" type="curve" smooth="yes"/>
      <point x="234.89928441489582" y="317.5364583333333"/>
      <point x="283.0520833333333" y="365.6892572517708"/>
    </contour>
  </outline>
</glyph>
<glyph name="cedilla" format="2">
  <advance width="280.5472040812175"/>
  <unicode hex="00B8"/>
  <anchor x="135.81139678955077" y="0" name="top" identifier="top"/>
  <outline>
    <contour>
      <point x="146.64245003029154" y="-160.5854881446809" type="curve"/>
      <point x="146.64245003029154" y="-190.7219605022077"/>
      <point x="119.27508097754895" y="-208.73499842103686"/>
      <point x="85.52389678955078" y="-208.73499842103686" type="curve"/>
      <point x="71.8294501716365" y="-208.73499842103686"/>
      <point x="36.23190318559048" y="-206.83572131526827"/>
      <point x="3.125" y="-189.1806869506836" type="curve"/>
      <point x="3.125" y="-293.2840576171875" type="line"/>
      <point x="33.49335382232391" y="-306.3106641354743"/>
      <point x="63.06199377485632" y="-309.84375000000006"/>
      <point x="85.52389678955078" y="-309.84375" type="curve"/>
      <point x="179.90204798159778" y="-309.84375"/>
      <point x="256.4222040812175" y="-243.01755480795248"/>
      <point x="256.4222040812175" y="-160.84001400674987" type="curve"/>
      <point x="256.4222037346293" y="-105.28777466642161"/>
      <point x="225.96750100722124" y="-58.21915047720699"/>
      <point x="180.48167419433594" y="-32.60601806640625" type="curve"/>
      <point x="195.31087493896484" y="1.671539306640625" type="line"/>
      <point x="92.1044921875" y="1.671539306640625" type="line"/>
      <point x="41.73693084716797" y="-114.75259399414062" type="line"/>
      <point x="59.77278374410275" y="-109.82898324910042"/>
      <point x="76.06527154493537" y="-109.26097786832496"/>
      <point x="83.0238967895508" y="-109.26097786832496" type="curve"/>
      <point x="120.21776639177995" y="-109.26097786832494"/>
      <point x="146.64245003029154" y="-130.50831460216486"/>
    </contour>
  </outline>
</glyph>
<glyph name="sup_one" format="2">
  <advance width="527.6556396484375"/>
  <unicode hex="00B9"/>
  <outline>
    <contour>
      <point x="224.75598907470703" y="303.57142639160156" type="line"/>
      <point x="363.5306396484375" y="303.57142639160156" type="line"/>
      <point x="363.5306396484375" y="850" type="line"/>
      <point x="157.94700622558594" y="850" type="line"/>
      <point x="95.125" y="723.4807052612305" type="line"/>
      <point x="224.75598907470703" y="723.4807052612305" type="line"/>
    </contour>
  </outline>
</glyph>
<glyph name="ordinal_o" format="2">
  <advance width="548.0322526918505"/>
  <unicode hex="00BA"/>
  <outline>
    <contour>
      <point x="487.90725269185054" y="650.8482142857142" type="curve" smooth="yes"/>
      <point x="487.90725269185054" y="768.8979395607482"/>
      <point x="392.06585162095917" y="859.6388058626526"/>
      <point x="274.0161263459253" y="859.6388058626526" type="curve" smooth="yes"/>
      <point x="155.9664010708914" y="859.6388058626526"/>
      <point x="60.125" y="768.8979395607482"/>
      <point x="60.125" y="650.8482142857142" type="curve" smooth="yes"/>
      <point x="60.125" y="532.7984890106804"/>
      <point x="155.9664010708914" y="442.05762270877597"/>
      <point x="274.0161263459253" y="442.05762270877597" type="curve" smooth="yes"/>
      <point x="392.06585162095917" y="442.05762270877597"/>
      <point x="487.90725269185054" y="532.7984890106804"/>
    </contour>
    <contour>
      <point x="358.8678709401049" y="650.8482142857142" type="curve" smooth="yes"/>
      <point x="358.8678709401049" y="600.5859043196054"/>
      <point x="321.68905187762607" y="559.7995273423967"/>
      <point x="274.0161263459253" y="559.7995273423967" type="curve" smooth="yes"/>
      <point x="226.3432008142245" y="559.7995273423967"/>
      <point x="189.16438175174562" y="600.5859043196054"/>
      <point x="189.16438175174562" y="650.8482142857142" type="curve" smooth="yes"/>
      <point x="189.16438175174562" y="701.1105242518231"/>
      <point x="226.3432008142245" y="741.896901229032"/>
      <point x="274.0161263459253" y="741.896901229032" type="curve" smooth="yes"/>
      <point x="321.68905187762607" y="741.896901229032"/>
      <point x="358.8678709401049" y="701.1105242518231"/>
    </contour>
    <contour>
      <point x="74.86434063163958" y="291.9660032242063" type="line"/>
      <point x="473.16791206021105" y="291.9660032242063" type="line"/>
      <point x="473.16791206021105" y="411.42685391865075" type="line"/>
      <point x="74.86434063163958" y="411.42685391865075" type="line"/>
    </contour>
  </outline>
</glyph>
<glyph name="angleright_dbl" format="2">
  <advance width="725.3745651245117"/>
  <unicode hex="00BB"/>
  <outline>
    <contour>
      <point x="702.2495651245117" y="309.921875" type="line"/>
      <point x="521.9690093994141" y="565.8965759277344" type="line"/>
      <point x="362.17504119873047" y="565.8965759277344" type="line"/>
      <point x="507.31449127197266" y="309.921875" type="line"/>
      <point x="362.17504119873047" y="53.947174072265625" type="line"/>
      <point x="521.9690093994141" y="53.947174072265625" type="line"/>
    </contour>
    <contour>
      <point x="385.19952392578125" y="309.921875" type="line"/>
      <point x="204.9189682006836" y="565.8965759277344" type="line"/>
      <point x="45.125" y="565.8965759277344" type="line"/>
      <point x="190.2644500732422" y="309.921875" type="line"/>
      <point x="45.125" y="53.947174072265625" type="line"/>
      <point x="204.9189682006836" y="53.947174072265625" type="line"/>
    </contour>
  </outline>
</glyph>
<glyph name="one_over_four" format="2">
  <advance width="1086.845296391881"/>
  <unicode hex="00BC"/>
  <outline>
    <contour>
      <point x="158.91307642538106" y="0" type="line"/>
      <point x="320.34312250692403" y="0" type="line"/>
      <point x="902.6226864107326" y="850" type="line"/>
      <point x="741.1926403291897" y="850" type="line"/>
    </contour>
    <contour>
      <point x="189.75598907470703" y="303.57142639160156" type="line"/>
      <point x="328.5306396484375" y="303.57142639160156" type="line"/>
      <point x="328.5306396484375" y="850" type="line"/>
      <point x="122.94700622558594" y="850" type="line"/>
      <point x="60.125" y="723.4807052612305" type="line"/>
      <point x="189.75598907470703" y="723.4807052612305" type="line"/>
    </contour>
    <contour>
      <point x="561.6955924123888" y="111.4487533569336" type="line"/>
      <point x="848.8605856985216" y="111.4487533569336" type="line"/>
      <point x="848.8605856985216" y="0" type="line"/>
      <point x="979.8230261892443" y="0" type="line"/>
      <point x="979.8230261892443" y="111.4487533569336" type="line"/>
      <point x="1052.720296391881" y="111.4487533569336" type="line"/>
      <point x="1052.720296391881" y="230.23876190185547" type="line"/>
      <point x="979.8230261892443" y="230.23876190185547" type="line"/>
      <point x="979.8230261892443" y="355.85987854003906" type="line"/>
      <point x="848.8605856985216" y="355.85987854003906" type="line"/>
      <point x="848.8605856985216" y="230.23876190185547" type="line"/>
      <point x="765.7776465505724" y="230.23876190185547" type="line"/>
      <point x="944.3709235281115" y="546.4285736083984" type="line"/>
      <point x="803.45761633817" y="546.4285736083984" type="line"/>
    </contour>
  </outline>
</glyph>
<glyph name="one_over_two" format="2">
  <advance width="1133.104215154088"/>
  <unicode hex="00BD"/>
  <outline>
    <contour>
      <point x="158.91307642538106" y="0" type="line"/>
      <point x="320.34312250692403" y="0" type="line"/>
      <point x="902.6226864107326" y="850" type="line"/>
      <point x="741.1926403291897" y="850" type="line"/>
    </contour>
    <contour>
      <point x="189.75598907470703" y="303.57142639160156" type="line"/>
      <point x="328.5306396484375" y="303.57142639160156" type="line"/>
      <point x="328.5306396484375" y="850" type="line"/>
      <point x="122.94700622558594" y="850" type="line"/>
      <point x="60.125" y="723.4807052612305" type="line"/>
      <point x="189.75598907470703" y="723.4807052612305" type="line"/>
    </contour>
    <contour>
      <point x="687.4366736501818" y="0" type="line"/>
      <point x="1066.979215154088" y="0" type="line"/>
      <point x="1066.979215154088" y="126.51929473876953" type="line"/>
      <point x="932.2962012380724" y="126.51929473876953" type="line"/>
      <point x="981.9080298980575" y="196.76465746491976" type="line"/>
      <point x="1025.6429506863103" y="258.68890935302164"/>
      <point x="1054.122070659987" y="310.0602403635345"/>
      <point x="1054.122070659987" y="374.1903040760126" type="curve"/>
      <point x="1054.122070659987" y="474.56741736085735"/>
      <point x="971.8423496830587" y="556.0714285714287"/>
      <point x="870.3123747359996" y="556.0714285714287" type="curve"/>
      <point x="810.6022149451431" y="556.0714285714287"/>
      <point x="756.6665038258933" y="537.0211496352072"/>
      <point x="718.1883444875841" y="503.92577362060547" type="curve"/>
      <point x="718.1883444875841" y="368.53832244873047" type="line"/>
      <point x="770.3484642048808" y="425.2898506406209"/>
      <point x="838.3162272587862" y="430.0114163202997"/>
      <point x="861.8623991099734" y="430.0114163202997" type="curve"/>
      <point x="895.8878589611509" y="430.01141632029976"/>
      <point x="923.5172822430362" y="410.96477917391803"/>
      <point x="923.5172822430362" y="376.40994083966206" type="curve"/>
      <point x="923.5172822430364" y="346.1672473120647"/>
      <point x="906.0605542251459" y="319.0832215270361"/>
      <point x="890.8317316715472" y="296.85663883311264" type="curve"/>
    </contour>
  </outline>
</glyph>
<glyph name="three_over_four" format="2">
  <advance width="1140.0845171473218"/>
  <unicode hex="00BE"/>
  <outline>
    <contour>
      <point x="212.1522971808219" y="0" type="line"/>
      <point x="373.5823432623649" y="0" type="line"/>
      <point x="955.8619071661735" y="850" type="line"/>
      <point x="794.4318610846306" y="850" type="line"/>
    </contour>
    <contour>
      <point x="196.17607963932474" y="418.9290077995619" type="curve"/>
      <point x="143.31724791645672" y="418.9290077995619"/>
      <point x="95.9927090244793" y="438.7002707023707"/>
      <point x="64.125" y="469.8584997994559" type="curve"/>
      <point x="64.12500217982699" y="333.06324768066406" type="line"/>
      <point x="116.02797709815135" y="298.8074488996398"/>
      <point x="178.5021717160426" y="293.92857142857133"/>
      <point x="209.95457794597496" y="293.92857142857133" type="curve"/>
      <point x="326.48214913514624" y="293.92857142857133"/>
      <point x="420.99122733094447" y="380.05906676977656"/>
      <point x="420.99122733094447" y="486.71167375894316" type="curve"/>
      <point x="420.99122733094447" y="567.9041721781455"/>
      <point x="376.9914144936251" y="626.363495077785"/>
      <point x="311.46978977748324" y="656.4043502807617" type="curve"/>
      <point x="431.0090811593192" y="850" type="line"/>
      <point x="71.01075962611606" y="850" type="line"/>
      <point x="71.01075962611606" y="723.4807052612305" type="line"/>
      <point x="224.55966404506137" y="723.4807052612305" type="line"/>
      <point x="121.70382145472934" y="560.4610137939453" type="line"/>
      <point x="134.64321662721804" y="564.2354996107402"/>
      <point x="152.93084571025523" y="566.8949881943097"/>
      <point x="181.94038972758418" y="566.8949881943098" type="curve"/>
      <point x="240.42409477803875" y="566.8949881943097"/>
      <point x="287.81302151197895" y="543.188268189075"/>
      <point x="287.81302151197895" y="492.9119979969357" type="curve"/>
      <point x="287.81302151197895" y="447.1931676562734"/>
      <point x="249.45139490285158" y="418.9290077995619"/>
    </contour>
    <contour>
      <point x="614.9348131678296" y="111.4487533569336" type="line"/>
      <point x="902.0998064539624" y="111.4487533569336" type="line"/>
      <point x="902.0998064539624" y="0" type="line"/>
      <point x="1033.062246944685" y="0" type="line"/>
      <point x="1033.062246944685" y="111.4487533569336" type="line"/>
      <point x="1105.9595171473218" y="111.4487533569336" type="line"/>
      <point x="1105.9595171473218" y="230.23876190185547" type="line"/>
      <point x="1033.062246944685" y="230.23876190185547" type="line"/>
      <point x="1033.062246944685" y="355.85987854003906" type="line"/>
      <point x="902.0998064539624" y="355.85987854003906" type="line"/>
      <point x="902.0998064539624" y="230.23876190185547" type="line"/>
      <point x="819.0168673060132" y="230.23876190185547" type="line"/>
      <point x="997.6101442835522" y="546.4285736083984" type="line"/>
      <point x="856.6968370936108" y="546.4285736083984" type="line"/>
    </contour>
  </outline>
</glyph>
<glyph name="inv_question" format="2">
  <advance width="489.54761904761915"/>
  <unicode hex="00BF"/>
  <outline>
    <contour>
      <point x="222.6933925150521" y="527.3802083333334" type="curve" smooth="yes"/>
      <point x="222.6933925150521" y="468.06946558510424"/>
      <point x="270.8461914334896" y="419.91666666666674"/>
      <point x="330.1569341817187" y="419.91666666666674" type="curve" smooth="yes"/>
      <point x="389.46767692994786" y="419.91666666666674"/>
      <point x="437.62047584838535" y="468.06946558510424"/>
      <point x="437.6204758483854" y="527.3802083333334" type="curve" smooth="yes"/>
      <point x="437.6204758483854" y="586.6909510815625"/>
      <point x="389.46767692994797" y="634.84375"/>
      <point x="330.1569341817187" y="634.84375" type="curve" smooth="yes"/>
      <point x="270.8461914334896" y="634.84375"/>
      <point x="222.6933925150521" y="586.6909510815626"/>
    </contour>
    <contour>
      <point x="326.0863095238095" y="144.60178571428594" type="curve"/>
      <point x="340.9830642337481" y="144.60178567463876"/>
      <point x="375.5102779642528" y="143.03539958079827"/>
      <point x="412.8031503586543" y="130.34335327148438" type="curve"/>
      <point x="404.20399111793165" y="367.7501983642578" type="line"/>
      <point x="256.1098825363887" y="367.7501983642578" type="line"/>
      <point x="251.71170443580274" y="307.0374526977539" type="line"/>
      <point x="121.83491912044445" y="280.7170038899941"/>
      <point x="24.125000000000014" y="168.46744125785528"/>
      <point x="24.125" y="33.86755952380969" type="curve"/>
      <point x="24.1249999999999" y="-120.06013137110227"/>
      <point x="145.61653355884056" y="-245.15624999999997"/>
      <point x="295.21130952380946" y="-245.15625" type="curve"/>
      <point x="338.0275771203262" y="-245.15625"/>
      <point x="399.38497423353067" y="-237.28870870578675"/>
      <point x="460.42261904761915" y="-202.70702362060547" type="curve"/>
      <point x="460.42261904761915" y="-20.65972900390625" type="line"/>
      <point x="422.04177163708175" y="-54.66973233518922"/>
      <point x="371.6836763530981" y="-75.27916666666667"/>
      <point x="316.37797619047615" y="-75.27916666666661" type="curve"/>
      <point x="251.9100233244057" y="-75.27916666666671"/>
      <point x="203.49999999999994" y="-27.68328839842085"/>
      <point x="203.49999999999994" y="33.86755952380963" type="curve"/>
      <point x="203.49999999999994" y="98.42164085644893"/>
      <point x="258.40275899349683" y="144.60178571428594"/>
    </contour>
  </outline>
</glyph>
<glyph name="A_with_acute" format="2">
  <advance width="815.461311340332"/>
  <unicode hex="00C1"/>
  <outline>
    <contour>
      <point x="456.0362809897914" y="896.1677093505859" type="line"/>
      <point x="631.6616853477016" y="1102.334373474121" type="line"/>
      <point x="447.5783723594203" y="1102.334373474121" type="line"/>
      <point x="343.32315385356094" y="896.1677093505859" type="line"/>
    </contour>
    <contour>
      <point x="-16.875" y="0" type="line"/>
      <point x="163.7943115234375" y="0" type="line"/>
      <point x="219.82504272460938" y="117.05093383789062" type="line"/>
      <point x="586.0559844970703" y="117.05093383789062" type="line"/>
      <point x="642.0867156982422" y="0" type="line"/>
      <point x="832.336311340332" y="0" type="line"/>
      <point x="407.73065185546875" y="880.5833358764648" type="line"/>
    </contour>
    <contour>
      <point x="402.94051361083984" y="499.5880813598633" type="line"/>
      <point x="511.20735931396484" y="273.4133529663086" type="line"/>
      <point x="294.67366790771484" y="273.4133529663086" type="line"/>
    </contour>
  </outline>
</glyph>
<glyph name="A_with_tildeabove" format="2">
  <advance width="815.461311340332"/>
  <unicode hex="00C3"/>
  <outline>
    <contour>
      <point x="319.3231646825397" y="970.1637041391059" type="curve"/>
      <point x="336.53950986334877" y="970.1637041391059"/>
      <point x="343.1821407095609" y="965.1507952744903"/>
      <point x="360.71135848091535" y="952.180555203612" type="curve"/>
      <point x="364.73071939278105" y="949.2065448034678" type="line"/>
      <point x="399.32128127375296" y="923.6122543088892"/>
      <point x="441.48867820209773" y="895.1764916057418"/>
      <point x="496.1381448412699" y="895.1764916057418" type="curve"/>
      <point x="542.9036334185167" y="895.176491605742"/>
      <point x="583.4443478514304" y="922.0398906564225"/>
      <point x="603.1577365209187" y="961.1854248046875" type="curve"/>
      <point x="603.1577365209187" y="1079.5032196044922" type="line"/>
      <point x="568.44847916313" y="1024.4250279503403"/>
      <point x="511.65290705710163" y="1020.3546966838669"/>
      <point x="496.1381448412699" y="1020.3546966838669" type="curve"/>
      <point x="478.9217996604608" y="1020.3546966838669"/>
      <point x="472.2791688802507" y="1025.367606328255"/>
      <point x="454.7499511088962" y="1038.3378463991332" type="curve"/>
      <point x="450.73059019703055" y="1041.3118567992774" type="line"/>
      <point x="416.14002831605865" y="1066.9061472938558"/>
      <point x="373.97263132171184" y="1095.3419092172308"/>
      <point x="319.3231646825397" y="1095.3419092172308" type="curve"/>
      <point x="272.55767610529284" y="1095.3419092172308"/>
      <point x="232.0169620627289" y="1068.478510941681"/>
      <point x="212.30357239738345" y="1029.3329772949219" type="curve"/>
      <point x="212.30357239738345" y="911.0151748657227" type="line"/>
      <point x="247.0128259859523" y="966.0933688951669"/>
      <point x="303.808402466708" y="970.1637041391059"/>
    </contour>
    <contour>
      <point x="-16.875" y="0" type="line"/>
      <point x="163.7943115234375" y="0" type="line"/>
      <point x="219.82504272460938" y="117.05093383789062" type="line"/>
      <point x="586.0559844970703" y="117.05093383789062" type="line"/>
      <point x="642.0867156982422" y="0" type="line"/>
      <point x="832.336311340332" y="0" type="line"/>
      <point x="407.73065185546875" y="880.5833358764648" type="line"/>
    </contour>
    <contour>
      <point x="402.94051361083984" y="499.5880813598633" type="line"/>
      <point x="511.20735931396484" y="273.4133529663086" type="line"/>
      <point x="294.67366790771484" y="273.4133529663086" type="line"/>
    </contour>
  </outline>
</glyph>
<glyph name="A_with_diaeresis" format="2">
  <advance width="815.461311340332"/>
  <unicode hex="00C4"/>
  <outline>
    <contour>
      <point x="386.27030619269976" y="1002.0427073559308" type="curve" smooth="yes"/>
      <point x="386.27030619269976" y="1057.1526095099011"/>
      <point x="341.528056915875" y="1101.8948587867258"/>
      <point x="286.41815476190476" y="1101.8948587867258" type="curve" smooth="yes"/>
      <point x="231.3082526079345" y="1101.8948587867258"/>
      <point x="186.56600333110975" y="1057.1526095099011"/>
      <point x="186.56600333110975" y="1002.0427073559308" type="curve" smooth="yes"/>
      <point x="186.56600333110975" y="946.9328052019606"/>
      <point x="231.3082526079345" y="902.1905559251358"/>
      <point x="286.41815476190476" y="902.1905559251358" type="curve" smooth="yes"/>
      <point x="341.528056915875" y="902.1905559251358"/>
      <point x="386.27030619269976" y="946.9328052019605"/>
    </contour>
    <contour>
      <point x="628.8953061926998" y="1002.0427073559308" type="curve" smooth="yes"/>
      <point x="628.8953061926998" y="1057.1526095099011"/>
      <point x="584.153056915875" y="1101.8948587867258"/>
      <point x="529.0431547619047" y="1101.8948587867258" type="curve" smooth="yes"/>
      <point x="473.9332526079345" y="1101.8948587867258"/>
      <point x="429.19100333110975" y="1057.1526095099011"/>
      <point x="429.19100333110975" y="1002.0427073559308" type="curve" smooth="yes"/>
      <point x="429.19100333110975" y="946.9328052019606"/>
      <point x="473.9332526079345" y="902.1905559251358"/>
      <point x="529.0431547619047" y="902.1905559251358" type="curve" smooth="yes"/>
      <point x="584.153056915875" y="902.1905559251358"/>
      <point x="628.8953061926998" y="946.9328052019605"/>
    </contour>
    <contour>
      <point x="-16.875" y="0" type="line"/>
      <point x="163.7943115234375" y="0" type="line"/>
      <point x="219.82504272460938" y="117.05093383789062" type="line"/>
      <point x="586.0559844970703" y="117.05093383789062" type="line"/>
      <point x="642.0867156982422" y="0" type="line"/>
      <point x="832.336311340332" y="0" type="line"/>
      <point x="407.73065185546875" y="880.5833358764648" type="line"/>
    </contour>
    <contour>
      <point x="402.94051361083984" y="499.5880813598633" type="line"/>
      <point x="511.20735931396484" y="273.4133529663086" type="line"/>
      <point x="294.67366790771484" y="273.4133529663086" type="line"/>
    </contour>
  </outline>
</glyph>
<glyph name="A_with_ring" format="2">
  <advance width="815.461311340332"/>
  <unicode hex="00C5"/>
  <outline>
    <contour>
      <point x="557.7202380952381" y="1032.0427073559308" type="curve" smooth="yes"/>
      <point x="557.7202380952381" y="1114.8242112411392"/>
      <point x="490.5121586471131" y="1182.032290689264"/>
      <point x="407.73065476190476" y="1182.032290689264" type="curve" smooth="yes"/>
      <point x="324.9491508766964" y="1182.032290689264"/>
      <point x="257.74107142857144" y="1114.8242112411392"/>
      <point x="257.74107142857144" y="1032.0427073559308" type="curve" smooth="yes"/>
      <point x="257.74107142857144" y="949.2612034707225"/>
      <point x="324.9491508766964" y="882.0531240225974"/>
      <point x="407.73065476190476" y="882.0531240225974" type="curve" smooth="yes"/>
      <point x="490.5121586471131" y="882.0531240225974"/>
      <point x="557.7202380952381" y="949.2612034707224"/>
    </contour>
    <contour>
      <point x="452.6890486421131" y="1032.0427073559308" type="curve" smooth="yes"/>
      <point x="452.6890486421131" y="1007.2294944983678"/>
      <point x="432.54386761946785" y="987.0843134757224"/>
      <point x="407.73065476190476" y="987.0843134757224" type="curve" smooth="yes"/>
      <point x="382.9174419043417" y="987.0843134757224"/>
      <point x="362.7722608816964" y="1007.2294944983678"/>
      <point x="362.7722608816964" y="1032.0427073559308" type="curve" smooth="yes"/>
      <point x="362.7722608816964" y="1056.8559202134938"/>
      <point x="382.9174419043417" y="1077.0011012361392"/>
      <point x="407.73065476190476" y="1077.0011012361392" type="curve" smooth="yes"/>
      <point x="432.54386761946785" y="1077.0011012361392"/>
      <point x="452.6890486421131" y="1056.8559202134938"/>
    </contour>
    <contour>
      <point x="-16.875" y="0" type="line"/>
      <point x="163.7943115234375" y="0" type="line"/>
      <point x="219.82504272460938" y="117.05093383789062" type="line"/>
      <point x="586.0559844970703" y="117.05093383789062" type="line"/>
      <point x="642.0867156982422" y="0" type="line"/>
      <point x="832.336311340332" y="0" type="line"/>
      <point x="407.73065185546875" y="880.5833358764648" type="line"/>
    </contour>
    <contour>
      <point x="402.94051361083984" y="499.5880813598633" type="line"/>
      <point x="511.20735931396484" y="273.4133529663086" type="line"/>
      <point x="294.67366790771484" y="273.4133529663086" type="line"/>
    </contour>
  </outline>
</glyph>
<glyph name="AE" format="2">
  <advance width="1102.4444427490234"/>
  <unicode hex="00C6"/>
  <anchor x="587.4861097789947" y="1002.0427073559308" name="top" identifier="top"/>
  <outline>
    <contour>
      <point x="528.0367050170898" y="0" type="line"/>
      <point x="1043.3194427490234" y="0" type="line"/>
      <point x="1043.3194427490234" y="170.40625" type="line"/>
      <point x="707.4117050170898" y="170.40625" type="line"/>
      <point x="707.4117050170898" y="346.84251403808594" type="line"/>
      <point x="1013.3194427490234" y="346.84251403808594" type="line"/>
      <point x="1013.3194427490234" y="507.8658218383789" type="line"/>
      <point x="707.4117050170898" y="507.8658218383789" type="line"/>
      <point x="707.4117050170898" y="679.59375" type="line"/>
      <point x="1043.3194427490234" y="679.59375" type="line"/>
      <point x="1043.3194427490234" y="850" type="line"/>
      <point x="473.22569274902344" y="850" type="line"/>
      <point x="-24.875" y="0" type="line"/>
      <point x="163.25667572021484" y="0" type="line"/>
      <point x="231.12828826904297" y="116.612060546875" type="line"/>
      <point x="528.0367050170898" y="116.612060546875" type="line"/>
    </contour>
    <contour>
      <point x="322.6466369628906" y="273.8522262573242" type="line"/>
      <point x="528.0367050170898" y="626.7384719848633" type="line"/>
      <point x="528.0367050170898" y="273.8522262573242" type="line"/>
    </contour>
  </outline>
</glyph>
<glyph name="E_with_grave" format="2">
  <advance width="658.5327377319336"/>
  <unicode hex="00C8"/>
  <outline>
    <contour>
      <point x="299.0662141363275" y="896.1677093505859" type="line"/>
      <point x="411.779341272558" y="896.1677093505859" type="line"/>
      <point x="307.5241227666986" y="1102.334373474121" type="line"/>
      <point x="123.44080977841733" y="1102.334373474121" type="line"/>
    </contour>
    <contour>
      <point x="84.125" y="0" type="line"/>
      <point x="599.4077377319336" y="0" type="line"/>
      <point x="599.4077377319336" y="170.40625" type="line"/>
      <point x="263.5" y="170.40625" type="line"/>
      <point x="263.5" y="346.84251403808594" type="line"/>
      <point x="569.4077377319336" y="346.84251403808594" type="line"/>
      <point x="569.4077377319336" y="507.8658218383789" type="line"/>
      <point x="263.5" y="507.8658218383789" type="line"/>
      <point x="263.5" y="679.59375" type="line"/>
      <point x="599.4077377319336" y="679.59375" type="line"/>
      <point x="599.4077377319336" y="850" type="line"/>
      <point x="84.125" y="850" type="line"/>
    </contour>
  </outline>
</glyph>
<glyph name="E_with_acute" format="2">
  <advance width="658.5327377319336"/>
  <unicode hex="00C9"/>
  <outline>
    <contour>
      <point x="395.67746402550574" y="896.1677093505859" type="line"/>
      <point x="571.3028683834159" y="1102.334373474121" type="line"/>
      <point x="387.21955539513465" y="1102.334373474121" type="line"/>
      <point x="282.9643368892753" y="896.1677093505859" type="line"/>
    </contour>
    <contour>
      <point x="84.125" y="0" type="line"/>
      <point x="599.4077377319336" y="0" type="line"/>
      <point x="599.4077377319336" y="170.40625" type="line"/>
      <point x="263.5" y="170.40625" type="line"/>
      <point x="263.5" y="346.84251403808594" type="line"/>
      <point x="569.4077377319336" y="346.84251403808594" type="line"/>
      <point x="569.4077377319336" y="507.8658218383789" type="line"/>
      <point x="263.5" y="507.8658218383789" type="line"/>
      <point x="263.5" y="679.59375" type="line"/>
      <point x="599.4077377319336" y="679.59375" type="line"/>
      <point x="599.4077377319336" y="850" type="line"/>
      <point x="84.125" y="850" type="line"/>
    </contour>
  </outline>
</glyph>
<glyph name="E_with_diaeresis" format="2">
  <advance width="658.5327377319336"/>
  <unicode hex="00CB"/>
  <outline>
    <contour>
      <point x="325.9114892284141" y="1002.0427073559308" type="curve" smooth="yes"/>
      <point x="325.9114892284141" y="1057.1526095099011"/>
      <point x="281.1692399515893" y="1101.8948587867258"/>
      <point x="226.05933779761904" y="1101.8948587867258" type="curve" smooth="yes"/>
      <point x="170.9494356436488" y="1101.8948587867258"/>
      <point x="126.20718636682403" y="1057.1526095099011"/>
      <point x="126.20718636682403" y="1002.0427073559308" type="curve" smooth="yes"/>
      <point x="126.20718636682403" y="946.9328052019606"/>
      <point x="170.94943564364877" y="902.1905559251358"/>
      <point x="226.05933779761904" y="902.1905559251358" type="curve" smooth="yes"/>
      <point x="281.1692399515893" y="902.1905559251358"/>
      <point x="325.91148922841404" y="946.9328052019605"/>
    </contour>
    <contour>
      <point x="568.536489228414" y="1002.0427073559308" type="curve" smooth="yes"/>
      <point x="568.536489228414" y="1057.1526095099011"/>
      <point x="523.7942399515894" y="1101.8948587867258"/>
      <point x="468.68433779761904" y="1101.8948587867258" type="curve" smooth="yes"/>
      <point x="413.57443564364877" y="1101.8948587867258"/>
      <point x="368.832186366824" y="1057.1526095099011"/>
      <point x="368.832186366824" y="1002.0427073559308" type="curve" smooth="yes"/>
      <point x="368.832186366824" y="946.9328052019606"/>
      <point x="413.5744356436487" y="902.1905559251358"/>
      <point x="468.68433779761904" y="902.1905559251358" type="curve" smooth="yes"/>
      <point x="523.7942399515892" y="902.1905559251358"/>
      <point x="568.536489228414" y="946.9328052019605"/>
    </contour>
    <contour>
      <point x="84.125" y="0" type="line"/>
      <point x="599.4077377319336" y="0" type="line"/>
      <point x="599.4077377319336" y="170.40625" type="line"/>
      <point x="263.5" y="170.40625" type="line"/>
      <point x="263.5" y="346.84251403808594" type="line"/>
      <point x="569.4077377319336" y="346.84251403808594" type="line"/>
      <point x="569.4077377319336" y="507.8658218383789" type="line"/>
      <point x="263.5" y="507.8658218383789" type="line"/>
      <point x="263.5" y="679.59375" type="line"/>
      <point x="599.4077377319336" y="679.59375" type="line"/>
      <point x="599.4077377319336" y="850" type="line"/>
      <point x="84.125" y="850" type="line"/>
    </contour>
  </outline>
</glyph>
<glyph name="I_with_grave" format="2">
  <advance width="352.1864159502362"/>
  <unicode hex="00CC"/>
  <outline>
    <contour>
      <point x="127.75040435791016" y="896.1677093505859" type="line"/>
      <point x="240.46353149414062" y="896.1677093505859" type="line"/>
      <point x="136.20831298828125" y="1102.334373474121" type="line"/>
      <point x="-47.875" y="1102.334373474121" type="line"/>
    </contour>
    <contour>
      <point x="84.05064008816726" y="0" type="line"/>
      <point x="268.0614159502362" y="0" type="line"/>
      <point x="268.0614159502362" y="850" type="line"/>
      <point x="84.05064008816726" y="850" type="line"/>
    </contour>
  </outline>
</glyph>
<glyph name="I_with_acute" format="2">
  <advance width="352.1864185168313"/>
  <unicode hex="00CD"/>
  <outline>
    <contour>
      <point x="224.43601415892113" y="896.1677093505859" type="line"/>
      <point x="400.0614185168313" y="1102.334373474121" type="line"/>
      <point x="215.97810552855003" y="1102.334373474121" type="line"/>
      <point x="111.72288702269067" y="896.1677093505859" type="line"/>
    </contour>
    <contour>
      <point x="84.125" y="0" type="line"/>
      <point x="268.13577586206895" y="0" type="line"/>
      <point x="268.13577586206895" y="850" type="line"/>
      <point x="84.125" y="850" type="line"/>
    </contour>
  </outline>
</glyph>
<glyph name="I_with_circumflex" format="2">
  <advance width="351.7529754638672"/>
  <unicode hex="00CE"/>
  <outline>
    <contour>
      <point x="-45.875" y="913.7117004394531" type="line"/>
      <point x="113.26851654052734" y="913.7117004394531" type="line"/>
      <point x="175.8764877319336" y="975.5197296142578" type="line"/>
      <point x="238.48445892333984" y="913.7117004394531" type="line"/>
      <point x="397.6279754638672" y="913.7117004394531" type="line"/>
      <point x="175.8764877319336" y="1124.9035949707031" type="line"/>
    </contour>
    <contour>
      <point x="83.8711001642036" y="0" type="line"/>
      <point x="267.8818760262725" y="0" type="line"/>
      <point x="267.8818760262725" y="850" type="line"/>
      <point x="83.8711001642036" y="850" type="line"/>
    </contour>
  </outline>
</glyph>
<glyph name="ETH" format="2">
  <advance width="828.3147731197806"/>
  <unicode hex="00D0"/>
  <outline>
    <contour>
      <point x="101.25078502454255" y="0" type="line"/>
      <point x="334.18977275647615" y="0.0" type="line"/>
      <point x="703.5793727496999" y="0.0"/>
      <point x="809.1897731197806" y="256.7975420746361"/>
      <point x="809.1897731197806" y="425.0" type="curve" smooth="yes"/>
      <point x="809.1897731197806" y="593.2024579253639"/>
      <point x="703.5793731130044" y="850.0"/>
      <point x="334.1897731197806" y="850.0" type="curve"/>
      <point x="101.25078502454255" y="850" type="line"/>
      <point x="101.25078502454255" y="505.51165771484375" type="line"/>
      <point x="13.91447368421052" y="505.51165771484375" type="line"/>
      <point x="13.91447368421052" y="344.48834228515625" type="line"/>
      <point x="101.25078502454255" y="344.48834228515625" type="line"/>
    </contour>
    <contour>
      <point x="280.62578502454255" y="170.40625" type="line"/>
      <point x="280.62578502454255" y="344.48834228515625" type="line"/>
      <point x="478.6019736842105" y="344.48834228515625" type="line"/>
      <point x="478.6019736842105" y="505.51165771484375" type="line"/>
      <point x="280.62578502454255" y="505.51165771484375" type="line"/>
      <point x="280.62578502454255" y="679.59375" type="line"/>
      <point x="329.70539775647615" y="679.59375" type="line"/>
      <point x="587.2978255114466" y="679.59375"/>
      <point x="626.1190295852979" y="516.602675473247"/>
      <point x="626.1190295852979" y="425.0" type="curve" smooth="yes"/>
      <point x="626.1190295852979" y="333.39732452675304"/>
      <point x="587.2978258747511" y="170.40624999999991"/>
      <point x="329.7053981197806" y="170.40625" type="curve"/>
    </contour>
  </outline>
</glyph>
<glyph name="N_with_tildeabove" format="2">
  <advance width="886.5052108764648"/>
  <unicode hex="00D1"/>
  <outline>
    <contour>
      <point x="354.84511408730157" y="970.1637041391059" type="curve"/>
      <point x="372.06145926811064" y="970.1637041391059"/>
      <point x="378.7040901143228" y="965.1507952744902"/>
      <point x="396.2333078856773" y="952.180555203612" type="curve"/>
      <point x="400.252668797543" y="949.2065448034678" type="line"/>
      <point x="434.84323067851483" y="923.6122543088892"/>
      <point x="477.01062760685966" y="895.1764916057418"/>
      <point x="531.6600942460318" y="895.1764916057418" type="curve"/>
      <point x="578.4255828232787" y="895.176491605742"/>
      <point x="618.9662972561922" y="922.0398906564225"/>
      <point x="638.6796859256805" y="961.1854248046875" type="curve"/>
      <point x="638.6796859256805" y="1079.5032196044922" type="line"/>
      <point x="603.9704285678919" y="1024.4250279503403"/>
      <point x="547.1748564618634" y="1020.3546966838669"/>
      <point x="531.6600942460317" y="1020.3546966838669" type="curve"/>
      <point x="514.4437490652226" y="1020.3546966838669"/>
      <point x="507.80111828501293" y="1025.3676063282549"/>
      <point x="490.2719005136584" y="1038.337846399133" type="curve"/>
      <point x="486.2525396017927" y="1041.3118567992774" type="line"/>
      <point x="451.6619777208207" y="1066.9061472938558"/>
      <point x="409.4945807264737" y="1095.3419092172308"/>
      <point x="354.84511408730157" y="1095.3419092172308" type="curve"/>
      <point x="308.0796255100547" y="1095.3419092172308"/>
      <point x="267.5389114674908" y="1068.478510941681"/>
      <point x="247.82552180214532" y="1029.3329772949219" type="curve"/>
      <point x="247.82552180214532" y="911.0151748657227" type="line"/>
      <point x="282.53477539071423" y="966.0933688951669"/>
      <point x="339.3303518714699" y="970.1637041391059"/>
    </contour>
    <contour>
      <point x="254.53125" y="479.8241882324219" type="line"/>
      <point x="802.3802108764648" y="-30.583335876464844" type="line"/>
      <point x="802.3802108764648" y="850" type="line"/>
      <point x="631.9739608764648" y="850" type="line"/>
      <point x="631.9739608764648" y="370.1758117675781" type="line"/>
      <point x="84.125" y="880.5833358764648" type="line"/>
      <point x="84.125" y="0" type="line"/>
      <point x="254.53125" y="0" type="line"/>
    </contour>
  </outline>
</glyph>
<glyph name="O_with_grave" format="2">
  <advance width="931.9457435344827"/>
  <unicode hex="00D2"/>
  <outline>
    <contour>
      <point x="417.66724810594985" y="896.1677093505859" type="line"/>
      <point x="530.3803752421803" y="896.1677093505859" type="line"/>
      <point x="426.12515673632095" y="1102.334373474121" type="line"/>
      <point x="242.0418437480397" y="1102.334373474121" type="line"/>
    </contour>
    <contour>
      <point x="912.8207435344827" y="425.0" type="curve" smooth="yes"/>
      <point x="912.8207435344827" y="671.6220520833745"/>
      <point x="712.5949238506158" y="865.0"/>
      <point x="465.9728717672414" y="865.0" type="curve" smooth="yes"/>
      <point x="219.35081968386692" y="865.0"/>
      <point x="19.125" y="671.6220520833745"/>
      <point x="19.125" y="425.0" type="curve" smooth="yes"/>
      <point x="19.125" y="178.37794791662552"/>
      <point x="219.35081968386692" y="-15.0"/>
      <point x="465.9728717672414" y="-15.0" type="curve" smooth="yes"/>
      <point x="712.5949238506158" y="-15.0"/>
      <point x="912.8207435344827" y="178.37794791662552"/>
    </contour>
    <contour>
      <point x="724.396875" y="425.0" type="curve" smooth="yes"/>
      <point x="724.396875" y="276.2039119733148"/>
      <point x="614.4558854862099" y="155.40625"/>
      <point x="465.9728717672414" y="155.40625" type="curve" smooth="yes"/>
      <point x="317.4898580482728" y="155.40625"/>
      <point x="207.54886853448272" y="276.2039119733148"/>
      <point x="207.54886853448272" y="425.0" type="curve" smooth="yes"/>
      <point x="207.54886853448272" y="573.7960880266852"/>
      <point x="317.4898580482728" y="694.59375"/>
      <point x="465.9728717672414" y="694.59375" type="curve" smooth="yes"/>
      <point x="614.4558854862099" y="694.59375"/>
      <point x="724.396875" y="573.7960880266852"/>
    </contour>
  </outline>
</glyph>
<glyph name="O_with_circumflex" format="2">
  <advance width="931.9457435344827"/>
  <unicode hex="00D4"/>
  <outline>
    <contour>
      <point x="244.2213836720033" y="913.7117004394531" type="line"/>
      <point x="403.36490021253064" y="913.7117004394531" type="line"/>
      <point x="465.9728714039369" y="975.5197296142578" type="line"/>
      <point x="528.5808425953431" y="913.7117004394531" type="line"/>
      <point x="687.7243591358705" y="913.7117004394531" type="line"/>
      <point x="465.9728714039369" y="1124.9035949707031" type="line"/>
    </contour>
    <contour>
      <point x="912.8207435344827" y="425.0" type="curve" smooth="yes"/>
      <point x="912.8207435344827" y="671.6220520833745"/>
      <point x="712.5949238506158" y="865.0"/>
      <point x="465.9728717672414" y="865.0" type="curve" smooth="yes"/>
      <point x="219.35081968386692" y="865.0"/>
      <point x="19.125" y="671.6220520833745"/>
      <point x="19.125" y="425.0" type="curve" smooth="yes"/>
      <point x="19.125" y="178.37794791662552"/>
      <point x="219.35081968386692" y="-15.0"/>
      <point x="465.9728717672414" y="-15.0" type="curve" smooth="yes"/>
      <point x="712.5949238506158" y="-15.0"/>
      <point x="912.8207435344827" y="178.37794791662552"/>
    </contour>
    <contour>
      <point x="724.396875" y="425.0" type="curve" smooth="yes"/>
      <point x="724.396875" y="276.2039119733148"/>
      <point x="614.4558854862099" y="155.40625"/>
      <point x="465.9728717672414" y="155.40625" type="curve" smooth="yes"/>
      <point x="317.4898580482728" y="155.40625"/>
      <point x="207.54886853448272" y="276.2039119733148"/>
      <point x="207.54886853448272" y="425.0" type="curve" smooth="yes"/>
      <point x="207.54886853448272" y="573.7960880266852"/>
      <point x="317.4898580482728" y="694.59375"/>
      <point x="465.9728717672414" y="694.59375" type="curve" smooth="yes"/>
      <point x="614.4558854862099" y="694.59375"/>
      <point x="724.396875" y="573.7960880266852"/>
    </contour>
  </outline>
</glyph>
<glyph name="O_with_diaeresis" format="2">
  <advance width="931.9457435344827"/>
  <unicode hex="00D6"/>
  <outline>
    <contour>
      <point x="444.51252319803643" y="1002.0427073559308" type="curve" smooth="yes"/>
      <point x="444.51252319803643" y="1057.1526095099011"/>
      <point x="399.77027392121164" y="1101.8948587867258"/>
      <point x="344.6603717672414" y="1101.8948587867258" type="curve" smooth="yes"/>
      <point x="289.55046961327116" y="1101.8948587867258"/>
      <point x="244.80822033644637" y="1057.1526095099011"/>
      <point x="244.80822033644637" y="1002.0427073559308" type="curve" smooth="yes"/>
      <point x="244.80822033644637" y="946.9328052019606"/>
      <point x="289.5504696132711" y="902.1905559251358"/>
      <point x="344.6603717672414" y="902.1905559251358" type="curve" smooth="yes"/>
      <point x="399.77027392121164" y="902.1905559251358"/>
      <point x="444.5125231980364" y="946.9328052019605"/>
    </contour>
    <contour>
      <point x="687.1375231980364" y="1002.0427073559308" type="curve" smooth="yes"/>
      <point x="687.1375231980364" y="1057.1526095099011"/>
      <point x="642.3952739212116" y="1101.8948587867258"/>
      <point x="587.2853717672414" y="1101.8948587867258" type="curve" smooth="yes"/>
      <point x="532.1754696132712" y="1101.8948587867258"/>
      <point x="487.4332203364463" y="1057.1526095099011"/>
      <point x="487.4332203364463" y="1002.0427073559308" type="curve" smooth="yes"/>
      <point x="487.4332203364463" y="946.9328052019606"/>
      <point x="532.175469613271" y="902.1905559251358"/>
      <point x="587.2853717672414" y="902.1905559251358" type="curve" smooth="yes"/>
      <point x="642.3952739212116" y="902.1905559251358"/>
      <point x="687.1375231980364" y="946.9328052019605"/>
    </contour>
    <contour>
      <point x="912.8207435344827" y="425.0" type="curve" smooth="yes"/>
      <point x="912.8207435344827" y="671.6220520833745"/>
      <point x="712.5949238506158" y="865.0"/>
      <point x="465.9728717672414" y="865.0" type="curve" smooth="yes"/>
      <point x="219.35081968386692" y="865.0"/>
      <point x="19.125" y="671.6220520833745"/>
      <point x="19.125" y="425.0" type="curve" smooth="yes"/>
      <point x="19.125" y="178.37794791662552"/>
      <point x="219.35081968386692" y="-15.0"/>
      <point x="465.9728717672414" y="-15.0" type="curve" smooth="yes"/>
      <point x="712.5949238506158" y="-15.0"/>
      <point x="912.8207435344827" y="178.37794791662552"/>
    </contour>
    <contour>
      <point x="724.396875" y="425.0" type="curve" smooth="yes"/>
      <point x="724.396875" y="276.2039119733148"/>
      <point x="614.4558854862099" y="155.40625"/>
      <point x="465.9728717672414" y="155.40625" type="curve" smooth="yes"/>
      <point x="317.4898580482728" y="155.40625"/>
      <point x="207.54886853448272" y="276.2039119733148"/>
      <point x="207.54886853448272" y="425.0" type="curve" smooth="yes"/>
      <point x="207.54886853448272" y="573.7960880266852"/>
      <point x="317.4898580482728" y="694.59375"/>
      <point x="465.9728717672414" y="694.59375" type="curve" smooth="yes"/>
      <point x="614.4558854862099" y="694.59375"/>
      <point x="724.396875" y="573.7960880266852"/>
    </contour>
  </outline>
</glyph>
<glyph name="multiply" format="2">
  <advance width="658.3210601806641"/>
  <unicode hex="00D7"/>
  <outline>
    <contour>
      <point x="164.86869049072266" y="136.96446990966797" type="line"/>
      <point x="329.16053009033203" y="301.25630950927734" type="line"/>
      <point x="493.4523696899414" y="136.96446990966797" type="line"/>
      <point x="617.1960601806641" y="260.7081604003906" type="line"/>
      <point x="452.9042205810547" y="425" type="line"/>
      <point x="617.1960601806641" y="589.2918395996094" type="line"/>
      <point x="493.4523696899414" y="713.035530090332" type="line"/>
      <point x="329.16053009033203" y="548.7436904907227" type="line"/>
      <point x="164.86869049072266" y="713.035530090332" type="line"/>
      <point x="41.125" y="589.2918395996094" type="line"/>
      <point x="205.41683959960938" y="425" type="line"/>
      <point x="41.125" y="260.7081604003906" type="line"/>
    </contour>
  </outline>
</glyph>
<glyph name="Y_with_acute" format="2">
  <advance width="777.7202377319336"/>
  <unicode hex="00DD"/>
  <outline>
    <contour>
      <point x="437.16574527550574" y="896.1677093505859" type="line"/>
      <point x="612.7911496334159" y="1102.334373474121" type="line"/>
      <point x="428.70783664513465" y="1102.334373474121" type="line"/>
      <point x="324.4526181392753" y="896.1677093505859" type="line"/>
    </contour>
    <contour>
      <point x="299.17262268066406" y="0" type="line"/>
      <point x="478.54762268066406" y="0" type="line"/>
      <point x="478.54762268066406" y="340.4710235595703" type="line"/>
      <point x="772.5952377319336" y="850" type="line"/>
      <point x="578.7468338012695" y="850" type="line"/>
      <point x="394.00196075439453" y="527.392204284668" type="line"/>
      <point x="209.257080078125" y="850" type="line"/>
      <point x="5.125" y="850" type="line"/>
      <point x="299.17262268066406" y="340.4710159301758" type="line"/>
    </contour>
  </outline>
</glyph>
<glyph name="THORN" format="2">
  <advance width="714.2098214285714"/>
  <unicode hex="00DE"/>
  <outline>
    <contour>
      <point x="84.125" y="0" type="line"/>
      <point x="263.5" y="0" type="line"/>
      <point x="263.5" y="121.82291412353516" type="line"/>
      <point x="336.9077377319336" y="121.82291412353516" type="line"/>
      <point x="634.451384856409" y="121.82291412353516"/>
      <point x="690.0848214285714" y="319.6136285594865"/>
      <point x="690.0848214285714" y="425.0" type="curve" smooth="yes"/>
      <point x="690.0848214285714" y="530.3863714405135"/>
      <point x="634.4513852197135" y="728.1770782320642"/>
      <point x="336.90773809523813" y="728.177084363711" type="curve"/>
      <point x="263.5" y="728.1770858764648" type="line"/>
      <point x="263.5" y="850" type="line"/>
      <point x="84.125" y="850" type="line"/>
    </contour>
    <contour>
      <point x="263.5" y="292.22916412353516" type="line"/>
      <point x="263.5" y="557.7708358764648" type="line"/>
      <point x="346.6285060233441" y="557.7708358764648" type="line"/>
      <point x="384.553784193166" y="557.7708358764648"/>
      <point x="510.70982142857144" y="555.6133458030524"/>
      <point x="510.70982142857144" y="425.0" type="curve" smooth="yes"/>
      <point x="510.70982142857144" y="294.38665951869257"/>
      <point x="384.5537904377846" y="292.22916671222504"/>
      <point x="346.62850635304005" y="292.22916590120707" type="curve"/>
    </contour>
  </outline>
</glyph>
<glyph name="eszett" format="2">
  <advance width="758.6399117405582"/>
  <unicode hex="00DF"/>
  <outline>
    <contour>
      <point x="78.125" y="0" type="line"/>
      <point x="250.10851287841797" y="0" type="line"/>
      <point x="250.10851287841797" y="631.9243439469317" type="line"/>
      <point x="250.10851287841797" y="660.29881507479"/>
      <point x="250.33174320311065" y="746.4594127155173"/>
      <point x="329.434129977422" y="746.4594127155173" type="curve" smooth="yes"/>
      <point x="408.53651675173336" y="746.4594127155173"/>
      <point x="408.7597468567772" y="660.2988129049852"/>
      <point x="408.7597495432492" y="631.924339431643" type="curve"/>
      <point x="408.75975036621094" y="623.2322311401367" type="line"/>
      <point x="344.24848989227735" y="588.640614446905"/>
      <point x="300.9716081691297" y="524.182857549126"/>
      <point x="300.9716081691297" y="446.28722202316817" type="curve"/>
      <point x="300.9716081691297" y="308.61622768494584"/>
      <point x="410.8647339303344" y="266.6753009272215"/>
      <point x="484.3910403869333" y="241.16021915115587" type="curve"/>
      <point x="530.441759617371" y="225.17970926786904" type="line"/>
      <point x="542.5337182772205" y="220.98356058439091"/>
      <point x="570.0413455408458" y="211.17775992935296"/>
      <point x="570.0413455408456" y="179.98577393588363" type="curve"/>
      <point x="570.0413455408456" y="149.63451142897515"/>
      <point x="533.5258111315605" y="132.42239549209768"/>
      <point x="495.56825995484394" y="132.42239549209768" type="curve"/>
      <point x="469.29250245744026" y="132.42239549209765"/>
      <point x="375.32988239717406" y="136.41697183866853"/>
      <point x="310.4966096950086" y="190.67408752441406" type="curve"/>
      <point x="310.4966125488281" y="30.95105743408203" type="line"/>
      <point x="379.4813627008414" y="-9.647944821141856"/>
      <point x="462.2503036936192" y="-14.999999999999998"/>
      <point x="500.743259954844" y="-14.999999999999993" type="curve"/>
      <point x="629.7909904706407" y="-15.0"/>
      <point x="734.5149117405582" y="67.41477502833314"/>
      <point x="734.5149117405582" y="190.42236131016526" type="curve"/>
      <point x="734.5149117405582" y="328.8480735369606"/>
      <point x="625.144520932606" y="370.81707606946975"/>
      <point x="551.0988542716876" y="396.54505239044835" type="curve"/>
      <point x="504.652264882468" y="412.68342761054436" type="line"/>
      <point x="492.39035906351825" y="416.9439608299247"/>
      <point x="465.4451743688424" y="426.57394261129673"/>
      <point x="465.4451743688423" y="457.3418510641164" type="curve"/>
      <point x="465.44517436884234" y="484.3373255564061"/>
      <point x="492.4969946016191" y="504.43481284123567"/>
      <point x="525.9182631256153" y="504.459811358362" type="curve"/>
      <point x="531.5915122264271" y="504.46731114520367"/>
      <point x="555.2949254642555" y="504.2868241954858"/>
      <point x="580.7432632446289" y="500.32140350341797" type="curve"/>
      <point x="580.7432632446289" y="608.5346221923828" type="line"/>
      <point x="580.7432632446289" y="877.4585170671322"/>
      <point x="405.32957079425466" y="909.84375"/>
      <point x="329.434129977422" y="909.84375" type="curve" smooth="yes"/>
      <point x="253.53868916058934" y="909.84375"/>
      <point x="78.12500000000001" y="877.4585148973274"/>
      <point x="78.125" y="608.534620022578" type="curve"/>
    </contour>
  </outline>
</glyph>
